<svg width="644" height="185" viewBox="0 0 644 185" fill="none" xmlns="http://www.w3.org/2000/svg">
<path d="M245.42 173.313L274.441 139.619L268.331 161.336L288.19 135.042L287.136 150.067L337.134 73.2761L355.005 42.7752L318.039 45.3652L245.42 173.313Z" fill="#FE680E"/>
<path d="M85.1691 87.8106C96.2862 84.3922 101.841 77.0243 101.841 65.86C101.841 58.8219 99.2566 53.1433 94.1529 48.8802C89.0492 44.5528 82.3275 42.4213 73.9233 42.4213H0.442871V135.018H77.2157C85.6199 135.018 92.2692 132.951 97.2522 128.881C102.235 124.811 104.747 119.068 104.747 111.772C104.747 106.029 103 101.115 99.5786 97.1169C96.1574 93.1193 91.3113 90.465 85.1691 89.2424V87.8187V87.8106ZM58.7973 64.6293C64.1586 64.6293 67.1371 67.8548 67.1371 71.9248C67.1371 76.1235 64.2311 79.6063 58.7973 79.6063H34.76V64.6293H58.7973ZM34.76 112.802V97.8891H61.0594C72.1764 97.503 72.112 113.26 61.0594 112.802H34.76ZM207.111 135.01V109.89H146.945V99.5622H207.111V77.8689H146.945V67.6054H207.111V42.4213H112.628V135.018H207.102L207.111 135.01ZM213.695 42.4213V67.6054H246.781V135.018H281.098V67.6054H314.184V42.4213H213.695Z" fill="white"/>
<path d="M538.706 60.9535L533.345 73.5254L495.43 150.308L517.72 122.414L515.659 135.589L531.824 117.555L528.716 133.007L571.76 58.8622L636.498 50.6337L618.377 46.9337L642.229 42.2765C642.229 42.2765 641.07 30.9272 614.151 33.0748L581.21 36.0026L594.976 12.6604L589.92 15.2183L601.368 1.35132L574.722 2.51762C568.491 2.99219 562.889 5.12371 560.184 10.6094L548.028 39.1074L482.855 45.317C487.541 63.6722 502.135 57.5994 515.667 56.3044L500.324 63.3826L538.706 60.9535Z" fill="#FE680E"/>
<path fill-rule="evenodd" clip-rule="evenodd" d="M398.668 94.0041C399.906 91.4993 401.774 89.3595 404.091 87.7954C406.407 86.2313 409.091 85.2969 411.878 85.0839L436.729 83.1857L388.646 157.347L392.993 140.23L379.558 153.904L385.305 139.53L385.241 139.49L357.485 177.407L368.376 155.352L318.651 110.952C285.155 117.33 324.391 88.4461 324.391 88.4461C352.252 88.1565 373.697 68.442 374.824 56.9478C376.99 34.7639 294.912 56.8594 277.21 60.2859L297.713 50.867L285.888 47.73L306.681 42.5581H218.389C246.942 38.4961 414.978 -6.41063 408.675 58.2026C406.155 84.0222 379.509 97.0285 338.921 106.624L354.2 106.303L379.582 132.637L398.668 94.0041ZM378.286 135.275L367.764 128.905L374.84 142.249L378.286 135.275ZM374.277 143.391L366.968 140.423L368.666 154.757L374.277 143.391ZM472.406 70.7263C449.544 72.4235 435.892 90.6741 430.522 102.747C422.682 120.387 435.884 140.898 456.29 142.884C465.628 143.793 495.88 139.755 505.597 109.882C507.046 105.418 507.73 97.5513 507.73 97.5513L498.835 94.2937C498.835 94.2937 506.844 90.1352 506.289 88.5346C501.902 75.8902 488.064 69.5681 472.406 70.7263ZM482.759 105.957C478.444 117.515 464.743 122.768 461.08 122.414C447.242 121.062 448.273 109.15 451.356 102.225C453.465 97.487 461.893 87.2476 471.577 88.1887C479.692 88.977 483.644 93.2641 483.966 98.9268C484.095 101.107 483.685 103.487 482.759 105.957Z" fill="#FE680E"/>
<path d="M465.29 52.6768L442.952 70.7344L431.521 70.9515C430.579 70.7987 431.287 70.3965 431.939 70.0346C432.527 69.7048 433.058 69.4072 432.261 69.3428C433.324 68.6592 422.07 68.0478 414.455 68.0478L428.172 31.8281L433.606 50.0948L444.763 44.4724L447.097 53.7385L465.29 52.6768Z" fill="#FE680E"/>
</svg>
