<svg width="200" height="80 " viewBox="0 0 600 78" fill="none" xmlns="http://www.w3.org/2000/svg">
<path d="M13 43.8H14C16.5 43.8 19.4 43.8 21.9 43.8C23.5 43.8 24.8 43.5 26 42.5C28.9 40.3 28.9 36.2 26 34.3C25 33.7 24.1 33 23.1 33C19.6 32.7 16.4 33 13 32.7V43.8ZM13 63.1H14C16.9 63.1 19.4 63.1 22.2 63.1C22.8 63.1 23.5 63.1 24.1 63.1C27.9 62.5 30.4 59 29.2 55.2C28.6 52.7 26.3 51.4 24.1 50.8C22.5 50.5 20.6 50.5 19 50.5C17.1 50.5 15.2 50.5 13 50.5V63.1ZM0.299995 25.4C3.8 25.4 7.6 25.4 11.1 25.4C15.9 25.4 20.6 25.4 25.4 25.7C29.2 25.7 32.4 27 34.6 30.1C37.1 33.6 37.8 37.4 36.5 41.5C35.9 43.4 34.6 44.7 33 45.6C32.4 45.9 32 46.2 31.4 46.6C32.7 47.2 33.9 47.9 34.9 48.8C37.4 51 38.7 54.2 38.7 57.7C38.7 61.5 37.4 64.7 34.3 67.2C32.1 69.1 29.5 70.1 26.7 70.4C25.7 70.4 24.8 70.7 23.8 70.7C16.2 70.7 8.6 70.7 1 70.7C0.7 70.7 0.4 70.7 0 70.7V63.4H3.5V33H0L0.299995 25.4ZM576.8 56.8C576.8 55.8 576.8 54.9 576.8 53.9C576.5 51.7 575.2 50.1 573.3 49.1C569.8 46.9 565.7 48.1 564.1 52C563.1 54.9 563.1 57.4 563.8 60.2C564.4 62.4 565.4 64 567.6 65C571.7 66.6 576.8 63.1 576.8 58.7V56.8ZM568.6 78C567.3 77.7 565.7 77.4 564.8 76.7C562.3 75.4 560.7 73.5 559.7 70.7C561 70.7 562.2 70.7 563.5 70.7C563.8 70.7 563.8 71 564.1 71C566.3 74.8 570.8 75.8 574.6 73.5C576.2 72.5 576.8 71.3 577.1 69.4C577.1 67.5 577.1 65.6 577.1 63.7C576.8 64 576.5 64.7 576.1 65C572.3 69.4 565.3 68.5 562.1 64C559.9 61.1 559.6 58 559.9 54.5C559.9 52.3 560.9 50.4 561.8 48.5C565 43.7 572.6 42.8 576.1 47.9C576.4 48.2 576.7 48.5 577.1 49.2V45.1H584.1V48H580.6V49C580.6 55.7 580.6 62.3 580.6 69C580.6 73.8 577.7 76.6 573.3 77.6C572.7 77.6 572.3 77.9 571.7 77.9H568.5V78H568.6ZM598.1 11.4C598.1 6.29999 594 2.2 588.9 2.2C583.8 2.2 579.7 6.29999 579.4 11.4C579.4 16.5 583.5 20.6 588.6 20.9C594 20.6 598.1 16.5 598.1 11.4ZM600 12.7C599.7 14.6 599 16.2 597.8 17.8C594.9 21.6 590.2 23.2 585.7 21.9C581.3 20.6 578.1 16.8 577.8 12.4C577.2 6.39999 581.3 1 587 0C587 0 587.3 0 587.6 0H590.1H590.4C593.6 0.6 595.8 1.89999 597.7 4.39999C599 5.99999 599.3 7.6 599.9 9.5V12.7H600ZM379 46.9C378.4 50.1 377.4 53.2 376.8 56.4C375.8 60.8 374.6 65.3 373.6 69.7C373.6 70 373.6 70.3 373 70.3C370.1 70.3 367.3 70.3 364.4 70.3C364.1 69.3 363.8 68.4 363.8 67.4C361.6 59.5 359.4 51.5 357.5 43.6C357.5 43 357.2 42.6 356.5 42.6C355.9 42.6 355.2 42.6 354.3 42.6V35.9H367.9V42.6H364.4C366 49.3 367.6 55.9 369.2 62.6C369.5 62 369.5 61 369.8 60.4C371.4 52.5 373 44.5 374.9 36.9C374.9 36.6 375.2 36.3 375.5 36.3C378 36.3 380.6 36.3 383.1 36.3C383.7 36.3 383.7 36.6 383.7 36.9C385.6 45.1 387.2 53.4 389.1 61.6C389.1 61.9 389.1 61.9 389.4 62.2L393.8 42.5H390.3V35.8H403.9V42.5C403.3 42.5 402.3 42.5 401.7 42.5C401.4 42.5 401.1 42.5 401.1 43.1C398.9 51.7 396.3 60.5 394.1 69.1C393.8 69.7 393.8 70.1 393.1 70.1C390.6 70.1 388 70.1 385.5 70.1C384.9 70.1 384.9 70.1 384.5 69.5C382.6 62.2 381 54.9 379.1 47.3C379.3 47.2 379.3 47.2 379 46.9ZM333.3 34.2C331.1 40.9 329.2 47.2 327.3 53.9H339C337.1 47.2 335.2 40.6 333.3 34.2ZM354.5 63.1V70.4H344.4C343.8 68.2 343.1 66 342.5 63.7C342.2 62.7 341.9 61.8 341.5 60.8C341.5 60.5 341.2 60.5 340.9 60.5C335.8 60.5 330.8 60.5 326 60.5C325.4 60.5 325.4 60.8 325.4 61.1C324.4 64 323.8 66.8 322.9 69.7C322.9 70 322.9 70 322.6 70.3H312.1V63C313.1 63 314 63 315 63C315.6 63 315.6 63 316 62.4C319.8 50 323.9 38 327.7 25.6C327.7 25 328 25 328.7 25C331.9 25 335 25 338.5 25C339.1 25 339.1 25.3 339.5 25.6C343.6 37.7 347.4 50 351.6 62.1C351.9 62.7 351.9 62.7 352.6 62.7C352.6 63.1 353.6 63.1 354.5 63.1ZM478.9 48.8L493.5 49.1C493.5 45.3 490.6 42.4 486.8 42.4C483 42.2 479.2 45.3 478.9 48.8ZM503.3 55.2H478.9C479.2 58.4 480.2 61.2 482.7 63.1C484.9 64.7 487.5 65 490.3 64.1C492.2 63.5 493.2 62.2 494.1 60.3C494.4 60 494.4 59.7 495.1 59.7C497.6 59.7 500.5 59.7 503 59.4C503 60 502.7 60.4 502.7 60.7C500.8 66.7 496.7 70.2 490.3 71.2C486.5 71.8 483 71.5 479.5 69.6C475.1 67.4 472.2 63.6 470.9 58.5C469.6 52.5 470.3 46.8 474.1 41.7C480.4 33.1 493.8 33.5 500.1 42C502 45.3 503.6 51.4 503.3 55.2ZM53.3 48.8L67.9 49.1C68.2 45.6 65.4 42.8 61.6 42.4C57.7 41.9 53.6 45 53.3 48.8ZM77.1 55.2H52.7C52.7 55.8 52.7 56.5 53 57.1C53.3 58.4 53.6 59.6 54.3 60.9C55.9 63.8 58.7 64.7 61.9 64.4C64.8 64.1 66.7 62.5 67.6 60C67.6 59.7 67.9 59.7 68.2 59.7C70.7 59.7 73.6 59.4 76.1 59.4H76.4C76.1 61.3 75.4 62.9 74.5 64.5C72 68.3 68.5 70.5 64 71.2C60.2 71.8 56.4 71.5 52.9 69.6C48.1 67.1 45.6 62.9 44.3 57.9C43.3 52.8 43.7 47.8 46.5 43.3C52.2 33.5 66.8 32.5 73.5 42C76 45.8 77.3 50.2 77.3 55C77.4 54.9 77.4 54.9 77.1 55.2ZM428.4 54.2C426.2 54.5 424 54.5 422.1 55.2C420.5 55.5 419.2 55.8 417.7 56.5C415.8 57.1 415.2 58.7 415.2 60.6C415.2 62.5 416.5 63.8 418.4 64.4C421.3 65.4 424.7 64.4 427 62.2C428.8 59.9 428.8 57.1 428.4 54.2ZM428.4 48.5C428.4 47.5 428.1 46.3 428.1 45.3C427.8 43.4 426.5 42.1 424.6 41.8C423.3 41.5 421.7 41.5 420.5 41.8C418.3 42.4 416.7 43.7 416.7 46.2C416.7 46.5 416.7 46.8 416.7 47.2L408.5 46.9C408.5 45.3 408.8 43.7 409.8 42.5C411.1 40 413.3 38.1 415.8 37.1C420.9 35.2 425.9 35.2 431 37.4C435.1 39 437 42.5 437.3 46.6C437.6 50.4 437.3 54.2 437.3 58.3C437.3 60.2 437.3 62.1 437.3 64.3H440.2V71H429.4V67.2C429.1 67.5 428.4 68.2 428.1 68.5C423 72.9 414.5 72.6 409.7 68.2C405.6 64.1 405.6 55.8 411.9 52.7C414.8 51.1 417.6 50.5 420.8 50.2C423.3 49.9 425.9 49.6 428.7 49.2C428.1 48.5 428.1 48.5 428.4 48.5ZM173.5 42.2C174.8 40.9 175.7 39.7 177 38.4C179.9 35.9 183 34.9 186.8 35.5C189.7 36.1 191.2 37.7 192.2 40.3C192.5 40.9 192.5 41.6 192.8 42.2C193.1 41.9 193.4 41.2 193.8 40.9C195.4 38.4 197.6 36.1 200.8 35.5C203.7 34.9 206.5 34.9 208.7 36.8C210.6 38.4 211.2 40.6 211.6 42.8C211.6 43.4 211.6 44.4 211.6 45C211.6 51.7 211.6 58.3 211.6 64.7V65.7H216.4V69.8H206.9V68.8C206.9 60.9 206.9 53.3 206.9 45.3C206.9 44.3 206.9 43.7 206.6 42.8C206 39.6 203.7 38 200.3 39C197.8 39.6 196.2 41.2 194.6 43.4C193.3 45.3 192.7 47.5 192.7 49.7C192.7 54.8 192.7 59.8 192.7 64.9V65.9H197.8V70H187.4V69C187.4 61.1 187.4 53.1 187.4 45.2C187.4 44.2 187.4 43.3 187.1 42.3C186.5 40.4 185.2 39.4 183.3 39.1C180.4 38.8 178.5 40.1 176.6 42C174.4 44.5 173.1 47.1 173.4 50.6C173.4 55.4 173.4 60.1 173.4 65.2V66.2H178.5V70.3H164V66.2H168.8V39.9H164V35.8H174.1C173.2 38 173.2 40 173.5 42.2ZM115.4 52H104.9C104.9 50.7 104.9 49.1 105.2 47.9H121.1V70.1H116.1V63.1C115.8 63.4 115.8 63.4 115.8 63.7C112.6 68.5 108.5 71 102.8 71.3C98.4 71.3 94.9 69.7 91.4 66.9C87.6 63.4 85.4 59 84.4 54.2C83.1 47.9 83.8 41.5 86.3 35.5C88.2 31.4 91.1 27.9 95.2 26C101.9 22.8 110.1 24.1 114.9 31.1C114.9 31.4 115.2 31.4 115.5 31.7V24.7H120.3V39H115.1C114.8 37.1 113.8 35.5 112.9 33.9C110.4 30.4 106.9 28.5 102.8 28.5C99 28.5 95.8 30.4 93.6 33.3C91.4 35.8 90.4 39 89.8 42.5C89.2 47.3 89.5 51.7 91.1 56.1C92.1 58.6 93.3 60.9 95.5 62.8C99.3 66.3 104.1 66.9 108.5 64.7C112.9 62.8 115.8 57.4 115.4 52ZM249.9 53C249.9 52.4 249.9 51.7 249.9 50.8C249.6 48.3 248.9 45.7 247.7 43.5C245.2 40 241 38.7 237.2 40.6C233.7 42.2 230.2 46.6 230.9 51.4C231.2 53.9 230.9 56.2 231.5 58.7C232.1 62.8 236.3 66.3 240.4 66.9C243.9 67.2 247.1 65.3 248.6 62.1C249.3 59 249.9 56.1 249.9 53ZM225.5 27.6H221.1V23.5H230.6V43.2C230.9 42.9 230.9 42.6 231.2 42.6C232.2 41 233.7 39.4 235.3 38.2C239.7 35 245.1 35 249.6 38.8C252.8 41.3 254.4 44.8 255.3 48.6C256.6 54.3 255.9 59.7 252.8 64.8C251.2 67.3 249 69.6 246.1 70.8C241.7 72.4 236.6 71.1 233.4 67.6C232.8 66.6 231.8 65.7 230.9 64.7V70.7H221.1V66.6H225.9V27.6H225.5ZM149.4 53C149.1 53 148.8 53 148.8 53C145.9 53.3 143.1 54 139.9 54.6C138 54.9 136.1 55.6 134.5 56.8C133.5 57.4 132.6 58.4 132.6 60C132 63.8 134.8 67.6 138.9 67.9C143.3 68.2 148.1 64.7 149 60.3C149.4 57.4 149 55.2 149.4 53ZM153.8 66.6H158.6C158.6 67.9 158.9 69.5 158.9 70.7H149.1V64.7C148.8 65 148.8 65 148.8 65C146.3 69.1 142.5 71 137.7 71.3C133.6 71.6 130.4 70 128.2 66.5C126.3 63.3 125.7 60.2 127.6 56.7C128.6 54.5 130.5 53.5 132.7 52.6C135.6 51.3 138.7 50.7 141.9 50.1C144.1 49.8 146.7 49.5 149.2 49.1C149.2 47.5 149.2 45.6 148.9 44C148.3 41.5 146.4 40.2 144.1 39.6C142.2 39 140 39.3 138.1 39.6C135.6 40.2 134 42.1 133.3 44.4C133 45 133 45.4 132 45.4C130.4 45.4 129.1 45.4 127.6 45.4C128.6 41.3 130.5 38.4 134.3 36.5C138.7 34.6 143.2 34.6 147.6 36.5C151.1 38.1 153 40.9 153.6 44.7C153.6 45.7 153.6 46.3 153.6 47.2C153.6 53.2 153.6 58.9 153.6 65L153.8 66.6ZM282.2 50.4H300.9C300.9 47.5 299.9 45.3 298.7 43.1C296.8 40.6 294.6 39.3 291.4 39.9C285.4 40.6 282.6 45 282.2 50.4ZM306.7 54.2H282C282.3 55.5 282.3 56.4 282.6 57.4C282.9 59.3 283.6 61.2 284.8 63.1C287.3 66.9 293 68.2 296.5 66C298.1 65 299 63.5 300 61.9C300.3 61.3 300.6 60.9 301.3 60.9C302.9 60.9 304.5 60.9 306.1 60.9C305.8 61.5 305.8 62.2 305.5 62.8C303.3 67.9 297.3 71.4 291.5 70.7C283.6 70.1 278.2 64.7 276.9 56.7C275.9 51.6 276.6 46.6 279.4 42.1C281.6 38.3 285.1 35.8 289.5 35.1C295.8 34.1 301.6 37.3 304.4 43C306 46.2 306.6 49.7 306.6 53.5C306.7 54.2 306.7 54.2 306.7 54.2ZM456 63.7H460.1V70.4H444.2V63.7H447.7V42.8H444.2V36.1H455.9V41.2C456.2 40.9 456.5 40.2 456.5 39.9C457.8 38 459.4 36.1 461.9 35.8C463.8 35.2 466 35.5 467.9 35.8L468.2 36.1C468.2 38.6 468.2 41.2 468.2 43.7C467.2 43.7 466.3 43.4 465.3 43.4C462.8 43.1 460.2 43.7 458.3 45.3C456.7 46.6 456.1 48.5 455.8 50.4C455.8 54.5 455.8 58.6 455.8 63.1C455.7 63.4 455.7 63.4 456 63.7ZM262.9 27.3H258.1V23.5H267.9V66.3H272.3V70.4H258.1V66.3H262.9V27.3ZM519.5 58C519.5 59.9 519.8 61.8 520.5 63.7C521.8 66.2 523.7 67.8 526.5 67.8C529.3 67.8 531.6 66.5 532.8 64C533.4 62.4 533.8 61.1 534.1 59.2C534.4 56.7 534.1 54.1 532.8 51.9C531.5 49.4 529.3 48.1 526.5 48.1C523.7 48.1 522.1 49.7 520.8 51.9C519.5 53.9 519.5 55.8 519.5 58ZM537.8 57.4C537.8 60.6 537.2 63.4 535.6 65.6C533.1 69.4 529.6 70.7 525.1 70.4C521 70.1 518.1 67.5 516.5 63.7C514.9 59.6 514.6 55.1 516.5 51C518.4 46.9 521.9 44.7 526.6 44.7C531.3 44.7 534.5 46.9 536.4 51C537.5 53.3 537.8 55.5 537.8 57.4ZM551.8 70.1H540.7V67.2H544.2V48.5H540.7V45.6H548V50.7C549.3 48.5 550.9 46.3 553.4 45.3C554.7 45 556.9 45 558.2 45.3V48.8C557.6 48.8 556.9 48.8 556.3 48.5C551.9 48.2 548.1 51.4 548.1 55.8C548.1 59.3 548.1 63.1 548.1 66.6V66.9H552.2L551.8 70.1ZM507.4 66H511.5V70.1H507.4V66ZM586 6.29999V10.1C587.3 10.1 588.5 10.1 589.8 10.1C590.1 10.1 590.4 10.1 590.8 9.79999C591.8 9.49999 592.1 8.79999 591.8 7.59999C591.8 6.59999 591.2 6 590.2 6C588.9 6.3 587.6 6.29999 586 6.29999ZM591.4 11.1C592.7 11.4 593 12.4 593 13.3C593 14.2 593.3 15.5 593.3 16.5C591.4 16.5 591.7 16.8 591.4 14.9C591.4 14.3 591.4 13.6 591.1 13C590.8 12 590.5 11.4 589.2 11.4C587.9 11.4 586.7 11.4 585.4 11.4V16.2H583.8V4.79999C584.1 4.79999 584.4 4.79999 585.1 4.79999C586.7 4.79999 588.3 4.79999 589.9 4.79999C591.5 4.79999 592.4 5.8 592.8 7C593.7 8.9 593 10.1 591.4 11.1Z" fill="white"/>
</svg>
