<svg xmlns="http://www.w3.org/2000/svg" fill="none" viewBox="0 0 184 28"><g clip-path="url(#a)"><path d="M183.756 1.39c-.305.91-.569 1.71-.885 2.62-.233.66-.691 1.06-1.423 1.1-1.23 0-5.855.05-7.207.05-1.23.07-1.942.64-2.166 1.83-.345 1.79-.66 3.59-.986 5.39-.488 2.69-.965 5.39-1.484 8.08-.305 1.59.224 2.26 1.85 2.27.6 0 1.2.01 1.79-.01 1.331-.06 2.216-.75 2.51-2.04.285-1.42.448-2.37.671-3.55.051-.24-.04-.33-.284-.32-.417 0-1.027.01-1.434 0-.965-.04-1.077-.37-1.057-1.3.01-.83.041-1.66.031-2.49 0-.32.132-.42.427-.42 1.169 0 6.536.04 7.156.04.62 0 .976.43.895 1.1-.102.76-.244 1.51-.376 2.27l-1.068 6.02c-.254 1.44-.528 2.88-.772 4.33-.051.3-.153.41-.468.4-.742-.02-1.494 0-2.236-.01-.936-.02-1.2-.28-1.281-1.19-.021-.24-.051-.53-.082-.83-.02-.18-.274-.21-.396-.02-.834 1.33-2.511 2.22-3.7 2.32-1.19.1-2.328.06-3.477 0-1.322-.08-2.552-.44-3.436-1.51-.651-.78-.874-1.71-.945-2.68-.092-1.25.122-2.47.335-3.69.6-3.35 1.2-6.7 1.789-10.06.254-1.43.519-2.85 1.149-4.18 1.016-2.13 2.714-3.37 5.042-3.78.946-.16 1.911-.21 2.867-.24 1.138-.04 2.287 0 3.436 0h4.747c.468 0 .62.12.478.57M20.392 4.39c.285 2.07-.172 4.1-1.026 6.01-.54 1.21-1.607 2.18-2.908 2.43-.284.05-.488.05-.467.3.01.18.111.18.416.27 1.037.31 1.81.94 2.216 1.95.305.76.397 1.56.305 2.36-.193 1.68-.416 3.37-1.006 4.97-.854 2.34-2.602 3.62-5.063 4.01-1.91.3-3.832.15-5.753.18H.783c-.336 0-.417-.08-.356-.41.396-2.15.772-4.3 1.149-6.45.65-3.67 1.3-7.35 1.951-11.02L4.87 1.44c.051-.27.082-.48.468-.47 3.548.03 7.096.09 10.643.09 2.521 0 4.148 1.31 4.412 3.32M11.66 15.39c-1.159 0-2.186 0-3.284-.02-.305 0-.447.08-.498.39-.386 2.17-.782 4.33-1.179 6.49-.06.31.05.4.356.4 1.057 0 2.846-.02 3.924-.06.884-.03 1.494-.55 1.698-1.41.244-1.06.549-2.89.742-3.96.244-1.38-.6-1.84-1.759-1.84M13.378 5.2c-1.057-.02-2.125 0-3.182-.02-.315 0-.437.12-.488.4-.325 1.79-.65 3.59-.986 5.38-.05.26.03.35.295.35.722 0 2.267-.01 2.979-.01 1.25 0 1.992-.59 2.297-1.78.224-.88.366-1.79.498-2.69.152-1.09-.305-1.61-1.413-1.63ZM86.073.96c-1.758.03-3.517 0-5.266.08-1.453.07-2.53.8-3.171 2.11-.295.6-.57 1.21-.824 1.83-.62 1.5-1.423 3.31-1.941 4.51-.275.65-.478 1.15-.58 1.51-.234.77-.437 1.51-.62 2.23-.05.18-.346.14-.346-.05 0-.18.132-1.92.132-2.14.02-.52.041-1.01 0-1.79-.111-1.95-.284-3.9-.487-5.85-.133-1.3-.681-2.1-2.074-2.3-.264-.04-.519-.09-.783-.09-1.596-.02-3.182-.02-4.778-.04-.274 0-.366.11-.406.37-.183 1.04-3.772 21-4.473 24.92-.082.45.03.6.508.61 1.423 0 3.802.01 4.137.01.336 0 .56-.13.63-.52.519-2.97 1.017-5.94 1.597-8.9.508-2.61.843-5.24 1.016-7.9.071-1.01.163-2.01.275-3.02.01-.12.152-.23.223-.35.122.11.265.2.366.32.04.05.02.16.03.24.052.55.102 1.1.153 1.66.214 2.34.427 4.67.65 7.01.123 1.32.255 2.63.387 3.94.061.61.305.83.935.86.448.03 1.23.02 1.698.02.701 0 1.027-.13 1.322-.81.58-1.35 5.743-12.81 5.804-12.97.122-.28.702-.19.61.14-.335 1.21-.66 2.42-.996 3.63-.346 1.26-.752 2.51-1.006 3.78-.54 2.77-.997 5.55-1.495 8.32-.264 1.49-.64 3.55-.701 3.95-.071.39.07.56.417.56.345 0 2.836 0 4.432.01.335 0 .376-.25.417-.49.457-2.55 4.086-22.9 4.473-25.05.05-.26.01-.36-.275-.36M60.994 6.87c-.366 2.22-1.982 11.33-2.42 13.67a10.301 10.301 0 0 1-1.026 2.95c-1.037 1.95-2.694 3.08-4.86 3.42-1.33.21-6.312.22-7.43.12-.58-.05-1.18-.22-1.718-.43-1.637-.64-2.4-1.92-2.552-3.59-.112-1.28.071-2.54.295-3.79.396-2.18 1.84-10.23 2.206-12.07.285-1.4.793-2.73 1.698-3.87 1.22-1.53 2.897-2.29 4.808-2.45 1.698-.14 5.57-.07 7.187.11 1.759.19 3.263 1.24 3.71 3.02.245.96.265 1.94.112 2.91m-5.57-.27c.111-1.01-.397-1.54-1.434-1.59-.945-.04-1.89-.04-2.836 0-.925.04-1.586.51-1.9 1.4a5.22 5.22 0 0 0-.235.9l-1.464 8.13c-.325 1.84-.66 3.69-.986 5.53-.203 1.15.356 1.83 1.556 1.87.416.01 1.972 0 2.338 0 1.413-.02 2.165-.6 2.43-1.96.325-1.71.62-3.43.925-5.14.355-1.96.711-3.91 1.057-5.87.193-1.09.416-2.18.538-3.28M40.551 3.94c.244.96.264 1.94.112 2.91-.366 2.22-1.982 11.33-2.42 13.67a10.298 10.298 0 0 1-1.026 2.95c-1.037 1.95-2.694 3.08-4.86 3.42-1.331.21-6.313.22-7.43.12-.58-.05-1.18-.22-1.719-.43-1.636-.64-2.399-1.92-2.551-3.59-.112-1.28.07-2.54.294-3.79.397-2.18 1.84-10.23 2.206-12.07.285-1.4.793-2.73 1.698-3.87 1.22-1.53 2.897-2.29 4.808-2.45 1.698-.14 5.571-.07 7.188.11 1.758.19 3.263 1.24 3.71 3.02m-5.469 2.65c.112-1.01-.396-1.54-1.433-1.59a33.55 33.55 0 0 0-2.837 0c-.925.04-1.585.51-1.9 1.4-.102.29-.184.59-.234.9l-1.464 8.13c-.326 1.84-.661 3.69-.986 5.53-.204 1.15.355 1.83 1.555 1.87.417.01 1.972 0 2.338 0 1.413-.02 2.165-.6 2.43-1.96.325-1.71.62-3.43.925-5.14.356-1.96.711-3.91 1.057-5.87.193-1.09.417-2.18.539-3.28m103.04-4.54c.183 2.26 1.108 14.23 1.901 24.34.03.35-.051.45-.407.44-1.26-.02-2.521 0-3.781 0-1.098 0-1.515-.43-1.566-1.52-.051-1.17-.112-2.35-.173-3.52-.03-.52-.081-.58-.63-.58h-4.93c-.427 0-.671.16-.824.55-.498 1.26-1.027 2.51-1.535 3.76-.366.9-1.047 1.31-2.013 1.31h-7.959c-.194 0-.397-.03-.59-.05-.976-.06-1.423-.61-1.657-1.52-.244-.95-.58-2.07-.752-2.81-.143-.63-.122-.85.376-1.28.508-.43 3.161-2.66 3.527-2.96.366-.3.712-.15.875.42.315 1.12.864 3.03 1.26 4.41.305 1.03.6 2.06.905 3.09h.122c.356-.82.722-1.64 1.077-2.46 3.091-7.11 9.241-21.23 9.505-21.83.265-.6.824-.92 1.525-.92 1.515 0 3.019-.01 4.524 0 .823 0 1.179.34 1.24 1.15M133.7 9.52c.03-1.01.183-2.8.183-3.01 0-.2-.346-.27-.387-.06-.04.21-1.189 3.64-1.819 5.37-.559 1.55-1.19 3.07-1.789 4.61-.214.55-.163.63.406.63h2.887c.681 0 .722-.05.702-.74-.061-1.6-.112-3.19-.183-4.98 0-.48-.01-1.15 0-1.82ZM164.085.94h-4.178c-.539 0-.752.26-.844.78-.427 2.41-.823 4.57-1.25 6.97-.315 1.78-.702 3.55-.915 5.35-.274 2.28-.396 4.65-.518 6.95-.021.32-.488.35-.519-.02-.681-8.07-1.057-12.95-1.494-18.2-.112-1.31-.712-1.83-1.779-1.83-1.454 0-5.002.02-5.856 0-.356-.01-.478.11-.528.45-.143.98-.336 1.96-.509 2.94-.508 2.84-3.548 19.93-3.903 21.95-.102.55-.082.55.467.55h3.731c1.088 0 1.068 0 1.251-1.05.335-1.98 1.799-9.73 2.053-11.65.254-1.96.356-3.93.518-5.9.051-.57.072-1.14.133-1.71.03-.29.559-.26.569.03.091 1.38.234 3.04.335 4.42.194 2.67.834 11.68.986 13.51.122 1.4.804 2.08 2.227 2.24.508.06 1.027.1 1.535.1 1.26.01 2.521 0 3.781 0 .57 0 .58 0 .682-.56.284-1.59 3.822-21.58 4.422-24.88.071-.38-.041-.45-.387-.45m-63.576 10.62h-7.218c-.478 0-.488 0-.407-.46.316-1.78.661-3.56.956-5.34.071-.42.254-.5.65-.5 1.932.01 4.352 0 5.775 0s.132-4.32-.458-4.32H89.774c-.651 0-.64 0-.763.66-.274 1.57-2.795 15.71-3.13 17.67-.255 1.43-.52 2.86-.164 4.32.275 1.09.875 1.92 1.881 2.45 1.19.62 2.5.76 3.812.78 2.898.04 5.805.01 8.702.02.346 0 .417-.13.417-.42 0-.75.02-1.5.041-2.25.03-1.38-.234-1.65-1.617-1.65h-5.621a6.56 6.56 0 0 1-1.088-.08c-.681-.1-1.047-.52-1.068-1.2 0-.31 0-.62.061-.93.234-1.4.509-2.79.722-4.19.061-.42.224-.53.64-.52 1.953.02 3.914.01 5.866 0 .864 0 1.362-.35 1.647-1.16.275-.78.702-2.08.793-2.39.081-.32-.061-.48-.396-.48m10.043-4.76c-1.098-.27-2.511-.47-3.507-.57-.549-.05-.803.09-.874.51-.397 2.36-1.24 7.29-1.667 9.76-.132.76.417.63.742.31 2.074-2.04 4.544-4.48 4.93-4.99.387-.51.509-.75.641-1.36.132-.61.284-1.81.416-2.55.133-.74-.091-.97-.67-1.11" fill="#fff"/><path d="M103.182.97c-.65.04-.915.51-.742 1.41.153.79.681 1.64 1.698 1.79 3.07.44 7.868 1.16 11.203 1.8 1.372.26 1.423.72.579 1.74-2.602 3.17-7.055 8.48-11.904 13.79-1.637 1.8-1.454 3.33-.813 4.5.386.7 1.169.83 1.606.47 6.557-5.49 15.523-13.55 19.925-19.14 2.338-2.96 1.769-5.9-2.288-6.27-3.039-.28-6.363-.38-9.576-.38-3.578 0-7.004.13-9.708.28" fill="url(#b)"/></g><defs><linearGradient id="b" x1="102.776" x2="126.935" y1="26.949" y2="2.431" gradientUnits="userSpaceOnUse"><stop stop-color="#0DF"/><stop offset=".486" stop-color="#B3F"/><stop offset=".84" stop-color="#FF0080"/></linearGradient></defs></svg>