<svg width="210" height="50" viewBox="0 0 210 51" fill="none" xmlns="http://www.w3.org/2000/svg">
<path d="M16.0488 40C11.4174 40 7.5774 38.4805 4.52886 35.4412C1.50961 32.3727 0 28.559 0 24.0001C0 19.4411 1.50961 15.6421 4.52886 12.6027C7.5774 9.53426 11.4174 8 16.0488 8C18.8335 8 21.4131 8.65755 23.7874 9.9726C26.1617 11.2877 28.0231 13.0557 29.3715 15.2767L22.5562 19.1781C21.97 18.0968 21.0906 17.2493 19.9181 16.6357C18.7749 15.9927 17.4851 15.6713 16.0488 15.6713C13.5865 15.6713 11.5932 16.4457 10.069 17.9945C8.57404 19.5142 7.82655 21.516 7.82655 24.0001C7.82655 26.4841 8.57404 28.5005 10.069 30.0494C11.5932 31.569 13.5865 32.3288 16.0488 32.3288C17.4851 32.3288 18.7749 32.022 19.9181 31.4083C21.0906 30.7654 21.97 29.8886 22.5562 28.7781L29.3715 32.7233C28.0231 34.9736 26.1617 36.7563 23.7874 38.0713C21.4424 39.3572 18.8628 40 16.0488 40Z" fill="white"/>
<path fill-rule="evenodd" clip-rule="evenodd" d="M51.3583 39.3433L50.0392 34.9158H39.7944L38.4754 39.3433H29.9453L40.1024 8.6582H49.6876L59.8444 39.3433H51.3583ZM41.8169 28.1651H48.0169L44.895 17.7322L41.8169 28.1651Z" fill="white"/>
<path d="M97.6139 8.6582H89.7432V39.3433H97.6139V8.6582Z" fill="white"/>
<path d="M133.82 39.3433H125.994V22.8171L118.519 35.135H117.728L110.297 22.861V39.3433H102.426V8.6582H110.297L118.123 21.7651L125.994 8.6582H133.82V39.3433Z" fill="white"/>
<path fill-rule="evenodd" clip-rule="evenodd" d="M162 30.3569C162 27.2884 160.71 24.9943 158.13 23.4747C160.036 21.9843 160.989 19.9532 160.989 17.3815C160.989 14.6929 160.065 12.5742 158.219 11.0253C156.372 9.44725 153.909 8.6582 150.832 8.6582H138.696V39.3433H151.667C154.804 39.3433 157.31 38.525 159.186 36.8884C161.062 35.2519 162 33.0747 162 30.3569ZM146.567 15.6719H150.612C151.345 15.6719 151.945 15.8911 152.415 16.3294C152.884 16.7678 153.118 17.3523 153.118 18.0829C153.118 18.8427 152.869 19.4418 152.371 19.8801C151.902 20.2893 151.315 20.4939 150.612 20.4939H146.567V15.6719ZM153.382 31.6281C152.884 32.0957 152.239 32.3295 151.447 32.3295H146.567V27.1569H151.447C152.239 27.1569 152.884 27.3907 153.382 27.8583C153.88 28.3259 154.129 28.9541 154.129 29.7432C154.129 30.503 153.88 31.1313 153.382 31.6281Z" fill="white"/>
<path d="M84.7638 31.8092H73.4492L84.409 14.642V8.55176H63.3767V16.1866H74.1146L63.1548 33.3538V39.4442H84.7638V31.8092Z" fill="white"/>
<path fill-rule="evenodd" clip-rule="evenodd" d="M169.182 6.02373C168.521 5.90036 167.85 6.29248 167.546 6.86524C166.737 8.37202 166.478 10.0925 166.431 11.7755C166.454 13.785 166.699 15.7761 166.946 17.7674C167.354 19.9494 168.251 24.0372 169.082 25.5392C168.319 24.9539 167.781 24.1835 167.413 23.3386C167.365 23.6727 167.258 23.9953 167.063 24.2836C165.966 26.9931 165.684 30.0574 166.379 32.9035C166.949 35.2254 168.503 37.349 170.698 38.4152C172.153 39.21 173.572 39.5095 174.994 39.8094C176.441 40.1147 177.89 40.4206 179.382 41.2503C181.01 42.1139 184.506 42.2945 186.187 41.464C187.75 40.6727 189.265 40.3128 190.767 39.9558C192.382 39.5721 193.983 39.1918 195.612 38.283C197.494 37.2124 198.902 35.4104 199.501 33.3573C200.297 30.7006 200.076 27.8501 199.3 25.2154C199.223 24.9365 199.094 24.6723 198.965 24.4087L198.964 24.4071V24.4058C198.817 24.1065 198.671 23.8078 198.602 23.4888C198.236 24.2746 197.719 24.9888 197 25.5392C197.704 24.2689 198.453 21.1493 198.915 18.897C198.962 18.5146 199.012 18.1322 199.062 17.7494L199.066 17.7217C199.16 16.9949 199.255 16.268 199.336 15.5403L199.386 14.9216C199.578 12.5833 199.776 10.1722 198.918 7.93585L198.876 7.82821C198.586 7.07747 198.234 6.16954 197.322 6.04135C196.179 5.97887 195.137 6.55058 194.162 7.08605L194.16 7.08711L193.994 7.17805C191.834 8.76194 190.006 10.76 188.383 12.8659C187.738 13.7694 187.162 14.6237 186.766 15.2325C186.906 14.5636 187.201 13.627 187.67 12.6606C186.076 12.2175 184.439 11.8838 182.775 11.9451C181.26 11.8997 179.787 12.2614 178.341 12.676C178.806 13.6369 179.099 14.5671 179.238 15.2325C178.83 14.6052 178.23 13.7172 177.562 12.7833C176.231 11.0158 174.686 9.41525 173.04 7.93144C171.923 7.02825 170.62 6.28367 169.182 6.02373ZM192.766 26.0287C191.005 25.7325 188.389 26.2255 186.709 27.887C186.58 28.0418 186.349 28.0646 186.192 27.938C186.035 27.8113 186.012 27.5832 186.14 27.4285C188.015 25.1707 190.962 24.5799 193.026 25.3516C193.216 25.4225 193.311 25.6316 193.239 25.8186C193.167 26.0055 192.955 26.0996 192.766 26.0287ZM173.129 26.1211C174.869 25.7731 177.499 26.1886 179.24 27.7995C179.373 27.9504 179.605 27.9664 179.758 27.8352C179.911 27.704 179.927 27.4753 179.794 27.3244C177.852 25.123 174.888 24.6196 172.848 25.452C172.661 25.5285 172.572 25.7403 172.649 25.925C172.727 26.1098 172.942 26.1976 173.129 26.1211ZM191.895 34.0661C192.058 34.1845 192.093 34.4111 191.973 34.5722C190.622 36.3841 188.38 37.5412 186.495 37.5961C185.068 37.6231 183.698 37.2703 182.979 36.4831L182.954 36.4845L182.931 36.4833C182.212 37.2704 180.843 37.6231 179.415 37.5961C177.53 37.5412 175.288 36.3841 173.937 34.5722C173.817 34.4111 173.852 34.1845 174.016 34.0661C174.179 33.9477 174.409 33.9823 174.529 34.1435C175.712 35.7295 177.712 36.46 179.437 36.5103C180.217 36.533 181.939 36.4024 182.289 35.4794C182.078 35.1595 181.665 35.0545 181.3 34.9615L181.247 34.9479C180.82 34.8385 180.435 34.7395 180.435 34.5134C180.435 34.1664 180.441 33.8323 180.782 33.708C181.486 33.536 182.226 33.5056 182.954 33.5061C183.688 33.5056 184.413 33.5341 185.125 33.708C185.466 33.8323 185.472 34.1664 185.472 34.5134C185.472 34.7395 185.086 34.8385 184.66 34.9479L184.606 34.9615C184.243 35.0542 183.832 35.1587 183.62 35.4761C183.967 36.4021 185.692 36.5331 186.474 36.5103C188.198 36.46 190.199 35.7295 191.381 34.1435C191.501 33.9823 191.731 33.9477 191.895 34.0661Z" fill="#FF7C1E"/>
<path d="M16.0488 40C11.4174 40 7.5774 38.4805 4.52886 35.4412C1.50961 32.3727 0 28.559 0 24.0001C0 19.4411 1.50961 15.6421 4.52886 12.6027C7.5774 9.53426 11.4174 8 16.0488 8C18.8335 8 21.4131 8.65755 23.7874 9.9726C26.1617 11.2877 28.0231 13.0557 29.3715 15.2767L22.5562 19.1781C21.97 18.0968 21.0906 17.2493 19.9181 16.6357C18.7749 15.9927 17.4851 15.6713 16.0488 15.6713C13.5865 15.6713 11.5932 16.4457 10.069 17.9945C8.57404 19.5142 7.82655 21.516 7.82655 24.0001C7.82655 26.4841 8.57404 28.5005 10.069 30.0494C11.5932 31.569 13.5865 32.3288 16.0488 32.3288C17.4851 32.3288 18.7749 32.022 19.9181 31.4083C21.0906 30.7654 21.97 29.8886 22.5562 28.7781L29.3715 32.7233C28.0231 34.9736 26.1617 36.7563 23.7874 38.0713C21.4424 39.3572 18.8628 40 16.0488 40Z" fill="white"/>
<path fill-rule="evenodd" clip-rule="evenodd" d="M51.3583 39.3433L50.0392 34.9158H39.7944L38.4754 39.3433H29.9453L40.1024 8.6582H49.6876L59.8444 39.3433H51.3583ZM41.8169 28.1651H48.0169L44.895 17.7322L41.8169 28.1651Z" fill="white"/>
<path d="M97.6139 8.6582H89.7432V39.3433H97.6139V8.6582Z" fill="white"/>
<path d="M133.82 39.3433H125.994V22.8171L118.519 35.135H117.728L110.297 22.861V39.3433H102.426V8.6582H110.297L118.123 21.7651L125.994 8.6582H133.82V39.3433Z" fill="white"/>
<path fill-rule="evenodd" clip-rule="evenodd" d="M162 30.3569C162 27.2884 160.71 24.9943 158.13 23.4747C160.036 21.9843 160.989 19.9532 160.989 17.3815C160.989 14.6929 160.065 12.5742 158.219 11.0253C156.372 9.44725 153.909 8.6582 150.832 8.6582H138.696V39.3433H151.667C154.804 39.3433 157.31 38.525 159.186 36.8884C161.062 35.2519 162 33.0747 162 30.3569ZM146.567 15.6719H150.612C151.345 15.6719 151.945 15.8911 152.415 16.3294C152.884 16.7678 153.118 17.3523 153.118 18.0829C153.118 18.8427 152.869 19.4418 152.371 19.8801C151.902 20.2893 151.315 20.4939 150.612 20.4939H146.567V15.6719ZM153.382 31.6281C152.884 32.0957 152.239 32.3295 151.447 32.3295H146.567V27.1569H151.447C152.239 27.1569 152.884 27.3907 153.382 27.8583C153.88 28.3259 154.129 28.9541 154.129 29.7432C154.129 30.503 153.88 31.1313 153.382 31.6281Z" fill="white"/>
<path d="M84.7638 31.8092H73.4492L84.409 14.642V8.55176H63.3767V16.1866H74.1146L63.1548 33.3538V39.4442H84.7638V31.8092Z" fill="white"/>
<path fill-rule="evenodd" clip-rule="evenodd" d="M169.182 6.02373C168.521 5.90036 167.85 6.29248 167.546 6.86524C166.737 8.37202 166.478 10.0925 166.431 11.7755C166.454 13.785 166.699 15.7761 166.946 17.7674C167.354 19.9494 168.251 24.0372 169.082 25.5392C168.319 24.9539 167.781 24.1835 167.413 23.3386C167.365 23.6727 167.258 23.9953 167.063 24.2836C165.966 26.9931 165.684 30.0574 166.379 32.9035C166.949 35.2254 168.503 37.349 170.698 38.4152C172.153 39.21 173.572 39.5095 174.994 39.8094C176.441 40.1147 177.89 40.4206 179.382 41.2503C181.01 42.1139 184.506 42.2945 186.187 41.464C187.75 40.6727 189.265 40.3128 190.767 39.9558C192.382 39.5721 193.983 39.1918 195.612 38.283C197.494 37.2124 198.902 35.4104 199.501 33.3573C200.297 30.7006 200.076 27.8501 199.3 25.2154C199.223 24.9365 199.094 24.6723 198.965 24.4087L198.964 24.4071V24.4058C198.817 24.1065 198.671 23.8078 198.602 23.4888C198.236 24.2746 197.719 24.9888 197 25.5392C197.704 24.2689 198.453 21.1493 198.915 18.897C198.962 18.5146 199.012 18.1322 199.062 17.7494L199.066 17.7217C199.16 16.9949 199.255 16.268 199.336 15.5403L199.386 14.9216C199.578 12.5833 199.776 10.1722 198.918 7.93585L198.876 7.82821C198.586 7.07747 198.234 6.16954 197.322 6.04135C196.179 5.97887 195.137 6.55058 194.162 7.08605L194.16 7.08711L193.994 7.17805C191.834 8.76194 190.006 10.76 188.383 12.8659C187.738 13.7694 187.162 14.6237 186.766 15.2325C186.906 14.5636 187.201 13.627 187.67 12.6606C186.076 12.2175 184.439 11.8838 182.775 11.9451C181.26 11.8997 179.787 12.2614 178.341 12.676C178.806 13.6369 179.099 14.5671 179.238 15.2325C178.83 14.6052 178.23 13.7172 177.562 12.7833C176.231 11.0158 174.686 9.41525 173.04 7.93144C171.923 7.02825 170.62 6.28367 169.182 6.02373ZM192.766 26.0287C191.005 25.7325 188.389 26.2255 186.709 27.887C186.58 28.0418 186.349 28.0646 186.192 27.938C186.035 27.8113 186.012 27.5832 186.14 27.4285C188.015 25.1707 190.962 24.5799 193.026 25.3516C193.216 25.4225 193.311 25.6316 193.239 25.8186C193.167 26.0055 192.955 26.0996 192.766 26.0287ZM173.129 26.1211C174.869 25.7731 177.499 26.1886 179.24 27.7995C179.373 27.9504 179.605 27.9664 179.758 27.8352C179.911 27.704 179.927 27.4753 179.794 27.3244C177.852 25.123 174.888 24.6196 172.848 25.452C172.661 25.5285 172.572 25.7403 172.649 25.925C172.727 26.1098 172.942 26.1976 173.129 26.1211ZM191.895 34.0661C192.058 34.1845 192.093 34.4111 191.973 34.5722C190.622 36.3841 188.38 37.5412 186.495 37.5961C185.068 37.6231 183.698 37.2703 182.979 36.4831L182.954 36.4845L182.931 36.4833C182.212 37.2704 180.843 37.6231 179.415 37.5961C177.53 37.5412 175.288 36.3841 173.937 34.5722C173.817 34.4111 173.852 34.1845 174.016 34.0661C174.179 33.9477 174.409 33.9823 174.529 34.1435C175.712 35.7295 177.712 36.46 179.437 36.5103C180.217 36.533 181.939 36.4024 182.289 35.4794C182.078 35.1595 181.665 35.0545 181.3 34.9615L181.247 34.9479C180.82 34.8385 180.435 34.7395 180.435 34.5134C180.435 34.1664 180.441 33.8323 180.782 33.708C181.486 33.536 182.226 33.5056 182.954 33.5061C183.688 33.5056 184.413 33.5341 185.125 33.708C185.466 33.8323 185.472 34.1664 185.472 34.5134C185.472 34.7395 185.086 34.8385 184.66 34.9479L184.606 34.9615C184.243 35.0542 183.832 35.1587 183.62 35.4761C183.967 36.4021 185.692 36.5331 186.474 36.5103C188.198 36.46 190.199 35.7295 191.381 34.1435C191.501 33.9823 191.731 33.9477 191.895 34.0661Z" fill="#FF7C1E"/>
</svg>
