<svg width="143" height="36" viewBox="0 0 143 36" fill="none" xmlns="http://www.w3.org/2000/svg">
<g clip-path="url(#clip0_590_10213)">
<path d="M17.6103 35.3422C27.2425 35.3422 35.0509 27.5534 35.0509 17.9455C35.0509 8.33758 27.2425 0.548828 17.6103 0.548828C7.97819 0.548828 0.1698 8.33758 0.1698 17.9455C0.1698 27.5534 7.97819 35.3422 17.6103 35.3422Z" fill="white"/>
<path d="M28.544 7.21435C26.1449 4.80722 23.0462 3.2157 19.6884 2.66602C20.3166 5.56935 21.2707 8.46768 22.2264 10.0694C25.5681 9.10769 28.2616 9.47768 28.6375 10.4544C29.0135 11.431 27.2323 13.5494 23.9975 15.066C23.956 15.6764 23.956 16.2889 23.9975 16.8994C24.2582 20.6477 26.0694 23.4777 27.2407 24.4143C27.7307 24.7947 28.2515 25.1336 28.7979 25.4277C29.2557 25.6677 29.5866 25.7993 29.5866 25.7993C30.0677 25.9982 30.5646 26.1571 31.072 26.2744C31.8649 25.1804 32.4676 23.9612 32.8548 22.6677C33.3377 21.0294 33.3327 19.7194 33.3327 18.7327C33.3387 16.5921 32.9185 14.4717 32.0964 12.4945C31.2744 10.5172 30.0669 8.72244 28.544 7.21435Z" fill="#FDCF39"/>
<path d="M18.0453 0C14.4762 0 10.9873 1.05568 8.01979 3.03355C5.05224 5.01141 2.73932 7.82263 1.37351 11.1117C0.00769577 14.4008 -0.349662 18.02 0.346623 21.5116C1.04291 25.0033 2.76157 28.2106 5.28526 30.7279C7.80896 33.2453 11.0243 34.9596 14.5248 35.6541C18.0253 36.3487 21.6536 35.9922 24.9509 34.6298C28.2483 33.2675 31.0666 30.9604 33.0495 28.0003C35.0323 25.0402 36.0907 21.5601 36.0907 18C36.0854 13.2277 34.1824 8.65243 30.7994 5.27792C27.4164 1.90342 22.8296 0.00529371 18.0453 0ZM18.0453 34.8933C14.6957 34.8933 11.4213 33.9026 8.63618 32.0463C5.85108 30.19 3.68036 27.5517 2.39852 24.4648C1.11668 21.378 0.781292 17.9813 1.43477 14.7043C2.08825 11.4273 3.70124 8.41719 6.06977 6.05461C8.4383 3.69204 11.456 2.0831 14.7412 1.43127C18.0265 0.779436 21.4317 1.11398 24.5264 2.39259C27.621 3.67121 30.266 5.83647 32.127 8.61457C33.9879 11.3927 34.9812 14.6588 34.9812 18C34.9763 22.4789 33.1905 26.773 30.0154 29.94C26.8404 33.1071 22.5355 34.8885 18.0453 34.8933Z" fill="#010101"/>
<path d="M20.6142 25.6244C20.057 26.2632 19.4497 26.8567 18.798 27.3994C18.143 27.9427 17.7654 28.1627 17.2942 28.1477C16.9628 28.1417 16.6431 28.0242 16.3869 27.8144C16.1447 27.601 16.0711 27.3677 15.8857 26.7127C15.5515 25.5061 15.2524 24.3194 15.1405 23.8794C15.1037 23.736 15.0736 23.6194 15.0536 23.5461C14.8865 23.6327 14.7628 23.7127 14.676 23.7577C14.5891 23.8027 14.5857 23.8144 14.4186 23.911C14.2516 24.0077 14.1613 24.0594 14.0711 24.106C14.0404 24.1241 14.0086 24.1403 13.9759 24.1544C13.9395 24.1652 13.9018 24.1708 13.8639 24.1711C13.7849 24.1708 13.7079 24.1455 13.6442 24.0987C13.5806 24.052 13.5334 23.9863 13.5097 23.911V23.901C13.5097 23.8794 13.5097 23.861 13.5013 23.8444C13.5004 23.8305 13.5004 23.8166 13.5013 23.8027C13.4261 23.2277 13.2908 21.7227 13.1471 19.7327C12.3568 19.8994 8.27654 20.6644 7.70009 19.4344C7.04678 18.0394 11.2089 14.7544 11.7102 14.4227C14.9851 12.2044 16.8147 11.381 20.6192 9.92271C17.4096 10.8028 14.3454 12.1441 11.523 13.9044C10.9758 12.6852 10.3622 11.4968 9.68508 10.3444C8.98053 9.14028 8.20847 7.97676 7.37259 6.85938C5.94607 8.23708 4.8072 9.88295 4.02172 11.702C3.23623 13.521 2.81966 15.4772 2.79608 17.4577C2.79032 19.5965 3.20985 21.7152 4.03039 23.6911C4.85094 25.6671 6.05621 27.4611 7.57644 28.9694C9.49056 30.7836 11.848 32.0656 14.4136 32.6877C14.7812 32.781 17.4396 33.4061 19.5382 31.7211C20.2302 31.1589 20.7701 30.433 21.1088 29.6094C21.317 28.9485 21.381 28.2508 21.2965 27.5632C21.2121 26.8756 20.9812 26.214 20.6192 25.6227L20.6142 25.6244Z" fill="#010101"/>
<path d="M27.4846 26.7263C27.4594 26.6874 27.4252 26.6552 27.3847 26.6324C27.3443 26.6097 27.2989 26.5971 27.2525 26.5958C27.2061 26.5945 27.1601 26.6045 27.1184 26.6249C27.0768 26.6453 27.0407 26.6756 27.0134 26.713L25.6383 28.5713L23.3809 29.0713C23.3357 29.0815 23.2935 29.1025 23.2582 29.1325C23.2228 29.1624 23.1952 29.2005 23.1778 29.2434C23.1604 29.2863 23.1537 29.3328 23.1582 29.3789C23.1628 29.425 23.1784 29.4693 23.2038 29.508L24.4921 31.4746C24.5175 31.5132 24.5518 31.5451 24.5922 31.5676C24.6326 31.5902 24.6779 31.6026 24.7242 31.6039C24.7704 31.6052 24.8163 31.5953 24.8579 31.5752C24.8996 31.555 24.9357 31.5251 24.9632 31.488L26.3417 29.6363L28.6007 29.128C28.646 29.118 28.6881 29.0973 28.7235 29.0675C28.7589 29.0377 28.7865 28.9997 28.8039 28.9569C28.8213 28.9141 28.8281 28.8677 28.8235 28.8217C28.819 28.7758 28.8033 28.7316 28.7778 28.693L27.4846 26.7263Z" fill="#010101"/>
<path d="M42.5908 23.9274V12.4141H50.9034V14.4991H44.7696V17.6457H50.5692V19.6657H44.7696V23.9324L42.5908 23.9274Z" fill="white"/>
<path d="M60.3384 19.6962C60.3384 22.0296 58.736 23.9296 56.0944 23.9296C53.4527 23.9296 51.8671 22.0346 51.8671 19.6962C51.8671 17.3579 53.4861 15.4629 56.0777 15.4629C58.6692 15.4629 60.3384 17.3746 60.3384 19.6962ZM53.8821 19.6962C53.8821 20.9312 54.6257 22.0846 56.0944 22.0846C57.5631 22.0846 58.3066 20.9312 58.3066 19.6962C58.3066 18.4612 57.4494 17.2912 56.0944 17.2912C54.6424 17.2912 53.8821 18.4779 53.8821 19.6962Z" fill="white"/>
<path d="M63.5982 15.8087L63.7469 16.7471C64.3735 15.7471 65.2156 15.5938 66.041 15.5938C66.8664 15.5938 67.6919 15.9271 68.138 16.3688L67.2307 18.1138C67.035 17.935 66.8059 17.7964 66.5564 17.706C66.307 17.6157 66.0421 17.5752 65.777 17.5871C64.721 17.5871 63.7469 18.1471 63.7469 19.6454V23.9288H61.7235V15.8087H63.5982Z" fill="white"/>
<path d="M72.2434 13.416V15.7227H74.489V17.451H72.2267V20.951C72.2267 21.726 72.6561 22.1044 73.2827 22.1044C73.6217 22.095 73.9544 22.0108 74.2568 21.8577L74.8182 23.5694C74.2887 23.7908 73.7214 23.9085 73.1473 23.916C71.3812 23.981 70.225 22.9777 70.225 20.951V17.451H68.7062V15.7227H70.225V13.6294L72.2434 13.416Z" fill="white"/>
<path d="M78.0556 15.6777V19.9261C78.0556 21.1611 78.7239 22.1011 80.0205 22.1011C81.2586 22.1011 82.1007 21.0627 82.1007 19.8277V15.6777H84.1058C84.118 18.4277 84.1292 21.1783 84.1392 23.9294H82.6488L82.1692 22.7094C81.3338 23.5327 80.5518 23.9294 79.4123 23.9294C77.4641 23.9294 76.0438 22.4627 76.0438 19.9427V15.6777H78.0556Z" fill="white"/>
<path d="M91.8811 23.9294V19.6794C91.8811 18.4444 91.2128 17.5127 89.9162 17.5127C88.6781 17.5127 87.836 18.5494 87.836 19.7844V23.9361H85.8309V15.7927H87.6305L87.7624 16.8961C88.5878 16.0894 89.4133 15.6777 90.4358 15.6777C92.3506 15.6777 93.8862 17.1094 93.8862 19.6627V23.9294H91.8811Z" fill="white"/>
<path d="M97.3429 20.3687C97.4749 21.3687 98.3454 22.0987 99.769 22.0987C100.513 22.0987 101.487 21.8187 101.941 21.3404L103.229 22.6087C102.371 23.4987 100.967 23.9271 99.7206 23.9271C96.9135 23.9271 95.246 22.1971 95.246 19.5937C95.246 17.1221 96.9302 15.3438 99.5719 15.3438C102.295 15.3438 103.996 17.0238 103.682 20.3671L97.3429 20.3687ZM101.767 18.7021C101.635 17.6487 100.81 17.1204 99.6537 17.1204C98.5643 17.1204 97.6721 17.6487 97.3763 18.7021H101.767Z" fill="white"/>
<path d="M112.913 12.166V14.191V18.771C112.913 20.516 111.988 21.8827 110.006 21.8827C108.024 21.8827 107.084 20.8827 107.084 18.9027H104.94C104.94 22.1627 107.054 23.926 110.008 23.926C113.196 23.926 115.094 21.751 115.094 18.771V12.166H112.913Z" fill="#FDCF39"/>
<path d="M123.104 15.5601H125.036L125.004 23.9284H123.519C123.358 23.4506 123.198 22.9729 123.039 22.4951C122.576 23.4501 121.305 23.9118 120.396 23.9284C117.986 23.9434 116.202 22.4618 116.202 19.6118C116.202 16.8118 118.068 15.3468 120.446 15.3634C121.535 15.3634 122.576 15.8734 123.039 16.6801L123.104 15.5601ZM118.217 19.6118C118.217 21.1601 119.29 22.0834 120.628 22.0834C123.803 22.0834 123.803 17.1584 120.628 17.1584C119.29 17.1668 118.217 18.0651 118.217 19.6118Z" fill="#FDCF39"/>
<path d="M133.9 22.6423C133.496 23.0629 133.008 23.3944 132.467 23.6157C131.927 23.837 131.346 23.9431 130.762 23.9273C128.401 23.9273 126.436 22.5107 126.436 19.6273C126.436 16.744 128.401 15.3323 130.771 15.3323C131.318 15.3136 131.863 15.4112 132.37 15.6187C132.877 15.8262 133.333 16.1387 133.71 16.5357L132.438 17.869C131.991 17.4625 131.409 17.2341 130.804 17.2273C129.451 17.2273 128.465 18.2157 128.465 19.6307C128.465 21.179 129.521 22.0023 130.776 22.0023C131.103 22.016 131.429 21.964 131.736 21.8495C132.042 21.7349 132.323 21.5602 132.56 21.3357L133.9 22.6423Z" fill="#FDCF39"/>
<path d="M136.755 12.4141V19.0674L139.495 15.8074H141.906V15.9224L138.586 19.6274L142.369 23.7791V23.9274H139.942L136.755 20.2607V23.9274H134.74V12.4141H136.755Z" fill="#FDCF39"/>
</g>
<defs>
<clipPath id="clip0_590_10213">
<rect width="142.371" height="36" fill="white"/>
</clipPath>
</defs>
</svg>
