<svg width="210" height="50" viewBox="0 0 289 44" fill="none" xmlns="http://www.w3.org/2000/svg">
<path d="M180.29 12.7658C182.161 12.7125 184.02 13.1013 185.721 13.9022V19.2414C185.087 18.2434 183.749 17.582 181.707 17.2573C180.952 17.1425 180.19 17.0912 179.427 17.104C178.501 17.1064 177.585 17.2868 176.724 17.636C175.893 17.9544 175.148 18.4709 174.55 19.1424C173.363 20.6735 172.774 22.6018 172.895 24.5534C172.895 27.2832 173.594 29.3183 174.99 30.6592C176.248 31.8147 177.898 32.417 179.585 32.3368C181.446 32.4307 183.29 31.9363 184.867 30.9207C185.353 30.5856 185.774 30.1604 186.108 29.6672H186.161V34.5463C184.147 36.1222 181.649 36.9088 179.119 36.765C175.656 36.765 172.945 35.6376 170.985 33.3828C169.023 31.0045 168.013 27.9527 168.159 24.8421C168.159 21.0904 169.192 18.1321 171.258 15.9677C173.324 13.8032 176.334 12.736 180.29 12.7658Z" fill="#B0AEAE"/>
<path d="M192.485 36.0312C191.498 35.9443 190.342 35.9009 189.017 35.9009H187.662L195.159 15.3991C195.375 14.8786 195.542 14.34 195.658 13.7898C195.668 13.6975 195.668 13.604 195.658 13.5117C196.407 13.5465 197.2 13.5638 198.038 13.5638C198.727 13.5638 199.553 13.5638 200.516 13.5638C200.502 13.6239 200.502 13.6863 200.516 13.7464C200.618 14.3443 200.791 14.928 201.033 15.4862L208.681 36.0226H207.87H206.978H203.519L201.897 31.1777H194.107L192.485 36.0312ZM200.507 27.0199L197.904 19.1917L195.373 27.0199H200.507Z" fill="#B0AEAE"/>
<path d="M225.379 14.5509L225.052 19.6513H224.928C224.416 18.9587 223.77 18.3798 223.03 17.9505C222.289 17.5212 221.47 17.2504 220.622 17.1551C220.017 17.0316 219.401 16.9687 218.783 16.9666C218.278 16.9565 217.774 17.0079 217.28 17.1192C216.901 17.2065 216.54 17.3582 216.211 17.5681C215.926 17.732 215.689 17.9695 215.525 18.2566C215.36 18.5437 215.273 18.8702 215.273 19.2024C215.248 19.5741 215.309 19.9467 215.452 20.2899C215.595 20.6331 215.815 20.9374 216.096 21.1779C217.121 21.8322 218.291 22.2178 219.5 22.3004C220.799 22.4544 222.077 22.7555 223.31 23.1984C224.177 23.5146 224.977 23.9926 225.671 24.608C226.268 25.1816 226.735 25.8804 227.041 26.6556C227.346 27.4308 227.482 28.2641 227.439 29.0977C227.491 30.2416 227.258 31.3801 226.762 32.4082C226.266 33.4363 225.523 34.3204 224.601 34.9795C222.802 36.224 220.658 36.8531 218.483 36.7753C216.47 36.7682 214.475 36.3781 212.604 35.6258C212.014 35.3928 211.454 35.0914 210.932 34.7281L211.118 28.9273L211.189 28.8733C212.604 31.3516 214.923 32.5908 218.147 32.5908C220.44 32.5908 221.954 32.0282 222.691 30.9027C222.942 30.5263 223.074 30.0819 223.071 29.6277C223.086 29.2266 223.011 28.8273 222.85 28.4603C222.683 28.1323 222.429 27.8585 222.117 27.67C221.086 27.1196 219.947 26.8126 218.783 26.772C217.473 26.6785 216.184 26.3911 214.955 25.919C214.068 25.5717 213.259 25.0465 212.577 24.3747C211.451 22.9939 210.88 21.2322 210.979 19.4426C211.077 17.6527 211.837 15.9665 213.107 14.7216C214.751 13.3545 216.838 12.6598 218.96 12.7729C221.221 12.7462 223.445 13.3619 225.379 14.5509Z" fill="#B0AEAE"/>
<path d="M232.701 12.824L234.653 12.896H235.837C236.297 12.9094 236.756 12.8639 237.205 12.761V36.0311H232.735L232.701 12.824Z" fill="#B0AEAE"/>
<path d="M243.961 36.0312C244.034 35.6177 244.07 35.1983 244.069 34.7787V13.5117H247.543L256.722 27.6313V14.6678C256.766 14.2745 256.707 13.8766 256.551 13.5117H261.226C261.164 14.0058 261.134 14.503 261.136 15.0008V36.0225H257.555L248.519 22.4546V36.0225L243.961 36.0312Z" fill="#B0AEAE"/>
<path d="M269.051 33.5214C268.009 32.5016 267.179 31.277 266.611 29.9212C266.009 28.4482 265.709 26.8641 265.731 25.2679C265.723 23.63 266.006 22.0043 266.567 20.4702C267.103 18.996 267.914 17.642 268.954 16.4829C270.011 15.3342 271.284 14.4159 272.696 13.7826C274.247 13.0857 275.926 12.7387 277.619 12.7655C280.545 12.6819 283.388 13.7665 285.544 15.7898C286.7 16.9076 287.606 18.2669 288.2 19.7754C288.794 21.2838 289.063 22.9054 288.988 24.5296C289.051 27.2227 288.223 29.8587 286.638 32.0102C285.052 34.1618 282.802 35.703 280.252 36.3839C279.12 36.6663 277.957 36.7993 276.791 36.7799C273.926 36.7249 271.182 35.5902 269.086 33.5937L269.051 33.5214ZM270.442 24.9977C270.43 26.0163 270.61 27.0275 270.97 27.9771C271.299 28.8466 271.797 29.6397 272.432 30.3084C273.103 30.9913 273.904 31.5258 274.786 31.879C275.668 32.232 276.611 32.3959 277.557 32.3605C278.445 32.4001 279.331 32.2453 280.155 31.907C280.98 31.5686 281.724 31.0541 282.339 30.3982C283.63 28.8585 284.289 26.8692 284.18 24.8447C284.247 22.8509 283.623 20.897 282.418 19.3272C281.795 18.5478 281.003 17.9277 280.104 17.5167C279.205 17.1057 278.224 16.9153 277.24 16.9599C276.272 16.9266 275.31 17.1266 274.432 17.5441C273.554 17.9619 272.784 18.585 272.186 19.3632C270.983 20.9779 270.366 22.9696 270.442 24.9977Z" fill="#B0AEAE"/>
<path d="M125.164 7.52694C125.907 7.52694 126.51 6.92418 126.51 6.1806C126.51 5.43702 125.907 4.83423 125.164 4.83423C124.42 4.83423 123.817 5.43702 123.817 6.1806C123.817 6.92418 124.42 7.52694 125.164 7.52694Z" fill="#CE8F3C"/>
<path d="M121.638 11.2369C122.975 10.7351 123.39 10.2356 123.39 10.2356C123.39 10.2356 121.981 9.14578 120.509 9.73384C119.885 9.99041 119.717 10.6716 119.885 10.9849C120.08 11.3526 120.636 11.6115 121.638 11.2369Z" fill="#CE8F3C"/>
<path d="M125.518 10.0789C127.502 12.6286 128.351 16.5973 128.351 16.5973L131.185 16.4566C131.131 14.9291 130.941 13.4094 130.617 11.9157C130.331 10.3977 129.855 8.92177 129.201 7.52234C128.849 7.8807 128.417 8.14936 127.94 8.30564C126.558 8.82336 126.213 8.65079 126.213 8.65079L125.518 10.0789Z" fill="#CE8F3C"/>
<path d="M140.149 5.58118C138.58 3.70125 136.416 1.88491 133.526 0.93586C124.028 -2.18145 119.494 3.48783 119.494 3.48783C119.494 3.48783 117.58 3.27441 116.164 6.11019C114.747 8.94594 116.447 12.9215 116.447 12.9215C116.447 12.9215 115.993 9.24342 119.708 8.38063C121.549 7.94698 124.596 9.30926 124.596 9.30926L125 8.70078C124.065 8.56746 123.174 8.21759 122.398 7.67907C121.354 6.89576 121.122 6.11927 121.122 6.11927C121.122 6.11927 122.192 3.70125 125.37 3.70125C126.126 3.70597 126.871 3.87281 127.557 4.19047C128.242 4.50812 128.852 4.96921 129.343 5.54258C129.343 5.54258 130.654 6.87306 131.469 9.9359C132.036 12.061 132.531 16.2432 132.531 16.2432C133.495 16.2016 134.452 16.0724 135.392 15.8572C136.72 15.5703 138.017 15.1537 139.263 14.613C142.523 13.1962 143.656 11.7795 143.656 11.7795C142.865 9.52124 141.677 7.42227 140.149 5.58118Z" fill="#CE8F3C"/>
<path d="M148.903 18.0141C147.427 16.2832 145.816 14.6723 144.085 13.1963C144.085 13.1963 140.966 16.0297 135.587 17.165L134.981 17.2876C132.428 17.7961 129.829 18.0403 127.225 18.0164C127.225 18.0164 126.317 15.6392 126.035 14.8196C125.573 13.553 124.969 12.3427 124.235 11.2119L121.406 12.4879C122.574 14.2439 123.548 16.1211 124.312 18.0868C125.447 21.2041 125.252 23.1998 125.239 23.8333C126.49 23.8639 127.737 23.6693 128.919 23.2589C130.946 22.5346 132.613 22.0215 134 21.6695C137.497 20.7614 139.222 20.8476 140.541 20.9884C145.502 21.556 148.261 23.2112 150.747 23.5404C151.425 23.5908 152.107 23.5294 152.765 23.3588C151.616 21.4813 150.325 19.6946 148.903 18.0141Z" fill="#CE8F3C"/>
<path d="M153.58 25.0707C153.58 25.0707 151.764 25.4885 150.747 25.3546C148.249 25.0253 145.502 23.3702 140.541 22.8026C139.193 22.6482 137.404 22.5755 133.73 23.5496C132.4 23.9037 130.824 24.3942 128.93 25.0707C127.702 25.4995 126.404 25.6921 125.105 25.6384L124.964 27.9088C124.964 27.9088 126.001 27.8111 128.801 27.046C130.02 26.7123 131.578 26.1583 133.526 25.593C134.295 25.3659 135.115 25.1388 136.023 24.9322C139 24.2239 143.216 24.9322 145.377 25.6406C147.312 26.2718 148.835 26.794 150.036 26.9575C152.89 27.3412 154.448 26.6328 154.448 26.6328L153.58 25.0707Z" fill="#B0AEAE"/>
<path d="M151.737 31.0531C153.139 30.7304 154.559 30.4938 155.989 30.3448L155.138 28.6442C155.138 28.6442 152.168 28.8962 150.745 28.8962C148.901 28.8962 148.052 28.3286 144.737 27.2365C142.814 26.6031 139.763 25.5451 134.87 26.9414C134.416 27.0731 133.916 27.2093 133.41 27.3455C129.564 28.3854 124.807 29.4911 124.807 29.4911L124.523 31.4754C124.523 31.4754 126.932 31.7593 128.068 32.1838C128.976 32.5244 131.968 33.4417 133.635 33.9139C134.055 34.032 134.391 34.1228 134.588 34.1682C138.273 35.0196 142.383 34.452 142.383 34.452C142.383 34.452 140.539 37.5693 135.864 40.1281C135.543 40.3022 135.219 40.4687 134.893 40.6276C131.487 42.2918 127.836 43.0252 126.154 41.4745C125.848 41.1689 125.608 40.8035 125.449 40.4012C125.291 39.9988 125.217 39.5681 125.232 39.1359C125.243 38.6438 125.416 38.1691 125.724 37.7847C126.032 37.4005 126.457 37.1278 126.935 37.0085C126.935 37.0085 126.51 38.8521 128.07 38.7091C129.509 38.5774 129.711 36.0913 127.786 35.4487C127.254 35.2495 126.675 35.2104 126.121 35.3363C125.567 35.4621 125.062 35.7475 124.669 36.1571C123.554 37.2605 122.755 40.1871 124.95 42.3918C127.502 44.9437 132.425 43.4475 135.297 42.1079H135.317C139.558 40.1236 142.671 36.7292 144.226 35.031C144.505 34.7267 144.985 33.9184 145.643 34.1796C146.351 34.4633 144.524 43.7154 144.524 43.7154C145.658 42.7217 146.488 41.4278 146.919 39.9828C147.766 37.0062 149.644 37.0062 149.644 37.0062C149.644 37.0062 147.203 36.5817 147.627 34.4542C147.938 32.9013 149.187 31.6208 151.737 31.0531ZM139.122 32.8967C137.221 32.9032 135.327 32.6744 133.483 32.2157C131.677 31.792 129.912 31.2108 128.208 30.4787C128.208 30.4787 131.387 29.6137 132.461 29.3435C132.727 29.2777 133.035 29.2028 133.369 29.1164C134.452 28.8804 135.814 28.5852 136.993 28.3809C136.908 28.7181 136.901 29.0704 136.974 29.4104C137.047 29.7505 137.197 30.0693 137.412 30.3423C137.628 30.6153 137.903 30.8351 138.217 30.9849C138.531 31.1346 138.875 31.2102 139.222 31.206C139.57 31.2016 139.912 31.1175 140.222 30.96C140.532 30.8025 140.802 30.5759 141.011 30.2977C141.219 30.0194 141.361 29.6969 141.426 29.3552C141.49 29.0134 141.475 28.6614 141.381 28.3264C144.998 28.8509 148.336 30.4787 148.336 30.4787C148.336 30.4787 146.351 32.7537 139.122 32.8967Z" fill="#B0AEAE"/>
<path d="M15.851 20.8439H5.91791V9.00781H0V39.0338H5.91791V26.0427H15.851V39.0338H21.7688V9.00781H15.851V20.8439Z" fill="#CE8F3C"/>
<path d="M42.1227 16.0895C40.311 14.3751 37.922 13.4518 35.4604 13.5147C34.0421 13.4954 32.6363 13.7896 31.3382 14.3771C30.1487 14.9234 29.079 15.7117 28.1939 16.6945C27.3279 17.6713 26.653 18.8105 26.2063 20.0499C25.745 21.3302 25.5133 22.6859 25.5225 24.0511C25.5104 25.4023 25.7673 26.7417 26.2778 27.9869C26.7567 29.1511 27.4598 30.2035 28.3449 31.0808C30.1104 32.7758 32.425 33.737 34.8403 33.7782C35.8071 33.7917 36.7716 33.6776 37.7102 33.439C39.8469 32.8639 41.7324 31.5646 43.0619 29.7512C44.3914 27.9378 45.087 25.7165 45.0364 23.4463C45.0364 20.3973 44.0586 17.9124 42.1227 16.0895ZM38.3383 27.2758C37.9672 27.6695 37.5182 27.9766 37.0217 28.1769C36.5253 28.3771 35.9929 28.4656 35.4604 28.4366C34.8749 28.4667 34.2896 28.3712 33.7421 28.1558C33.1946 27.9405 32.6967 27.6101 32.2803 27.1858C31.8935 26.7751 31.5907 26.2886 31.3899 25.7554C31.1722 25.1475 31.0697 24.5024 31.0877 23.8549C31.0308 22.5457 31.4218 21.2571 32.1929 20.2134C32.5513 19.7416 33.0144 19.3647 33.5434 19.1144C34.0724 18.8642 34.652 18.7477 35.2338 18.7747C35.8281 18.7415 36.4217 18.8526 36.9666 19.0989C37.5115 19.3454 37.9923 19.7201 38.3701 20.193C39.1338 21.2027 39.524 22.4585 39.4713 23.7364C39.4594 25.2813 39.0897 26.4298 38.3383 27.2676V27.2758Z" fill="#CE8F3C"/>
<path d="M101.312 23.4112C100.395 22.623 99.3376 22.0107 98.1934 21.6058C96.5611 21.0452 94.8702 20.6667 93.1526 20.4776C91.0575 20.209 89.5608 19.7295 88.6628 19.0391C87.939 18.4749 87.5771 17.6274 87.5771 16.4964C87.5768 16.0718 87.6899 15.6546 87.9049 15.2867C88.1198 14.9189 88.4291 14.6134 88.8016 14.4011C89.2358 14.1304 89.7133 13.9341 90.2139 13.8209C90.866 13.6758 91.5333 13.6083 92.2017 13.6193C93.024 13.6222 93.8443 13.7046 94.6505 13.8651C97.3227 14.354 99.2179 15.4192 100.336 17.0606V10.1298C97.8954 8.85068 95.1645 8.20721 92.4016 8.2601C89.1554 8.2601 86.5704 9.09287 84.6466 10.7583C82.7228 12.4239 81.7813 14.5663 81.8221 17.1855C81.8221 19.743 82.5309 21.7361 83.9485 23.1654C84.85 24.0299 85.919 24.7054 87.0914 25.1519C88.7156 25.7571 90.4208 26.1251 92.1527 26.2439C94.2179 26.4373 95.6873 26.8161 96.5608 27.3802C96.9743 27.6225 97.3107 27.9744 97.5321 28.3956C97.7436 28.8656 97.8441 29.3768 97.826 29.8907C97.8314 30.4744 97.6579 31.0461 97.3281 31.5306C96.3485 32.9732 94.3445 33.6945 91.3159 33.6945C87.1799 33.6945 84.1717 32.1956 82.2914 29.1975V36.757C82.8356 37.0709 83.4048 37.3404 83.9935 37.5629C86.4632 38.5257 89.0933 39.0245 91.7485 39.0337C95.0138 39.0337 97.7104 38.2747 99.8382 36.757C102.339 34.9866 103.589 32.4655 103.589 29.1935C103.608 26.7141 102.849 24.7866 101.312 23.4112Z" fill="#CE8F3C"/>
<path d="M57.626 25.3164C57.795 25.1915 57.956 25.054 58.1088 24.8997L58.2457 24.7747C58.8637 24.1964 59.3562 23.4887 59.6905 22.6985C60.025 21.9084 60.1935 21.0539 60.1851 20.1912C60.1851 17.937 59.4529 16.2202 58.0083 15.0993C56.6321 14.0326 54.6725 13.5117 52.0167 13.5117C51.6144 13.5117 51.2402 13.5117 50.8699 13.5117C49.716 13.5284 48.5635 13.6077 47.4175 13.7492L46.5403 13.8659V33.7502H51.9926V26.9123C52.1858 26.9123 52.3387 26.9123 52.4915 26.9123L55.421 33.7793H61.5533L57.626 25.3164ZM54.3547 21.5662C54.1517 21.7135 53.9237 21.8196 53.6826 21.8788C53.2865 21.9697 52.8812 22.0104 52.4754 21.9996H51.9845V18.787H52.2542C52.8478 18.7673 53.4407 18.8418 54.0127 19.0078C54.1422 19.0491 54.2675 19.1035 54.3867 19.1704C54.5236 19.2537 54.8496 19.4495 54.8496 20.2787C54.8496 20.2787 54.8496 20.3037 54.8496 20.3163C54.8743 20.5527 54.8421 20.7917 54.7558 21.0121C54.6693 21.2324 54.5315 21.4271 54.3547 21.5787V21.5662Z" fill="#CE8F3C"/>
<path d="M72.4415 25.4513C72.4564 25.9996 72.389 26.5472 72.2415 27.0753C71.9107 28.1032 71.3595 28.5431 70.4 28.5431C69.7788 28.5672 69.1716 28.3527 68.7016 27.9428C68.462 27.7031 68.2768 27.414 68.1591 27.0952C68.0414 26.7765 67.9939 26.4358 68.0198 26.0968V13.5117H62.3039V25.9405C62.3039 28.5142 63.1204 30.5289 64.7903 31.9309C66.2396 33.1643 68.1341 33.777 70.4163 33.777C71.4143 33.802 72.4068 33.622 73.3334 33.2481C74.2599 32.8742 75.1011 32.3141 75.8057 31.6019C77.3081 30.089 78.0675 28.0784 78.0675 25.628V13.5117H72.4415V25.4513Z" fill="#CE8F3C"/>
<path opacity="0.22" d="M145.35 25.6384C147.284 26.2695 148.808 26.7918 150.009 26.9552C152.863 27.3389 154.421 26.6305 154.421 26.6305L153.569 25.0707C153.569 25.0707 151.753 25.4885 150.736 25.3546C148.238 25.0253 145.491 23.3702 140.53 22.8026C139.181 22.6482 137.392 22.5755 133.719 23.5496C133.634 24.2246 133.565 24.9057 133.512 25.593C134.282 25.3659 135.101 25.1388 136.01 24.9322C138.993 24.2194 143.198 24.9322 145.35 25.6384Z" fill="white"/>
<path opacity="0.22" d="M144.215 35.022C144.494 34.7177 144.973 33.9094 145.632 34.1705C146.34 34.4543 144.512 43.7064 144.512 43.7064C145.646 42.7127 146.477 41.4188 146.908 39.9738C147.754 36.9972 149.632 36.9972 149.632 36.9972C149.632 36.9972 147.191 36.5727 147.616 34.4452C147.927 32.8923 149.176 31.6118 151.725 31.0396C153.127 30.7168 154.547 30.4802 155.978 30.3312L155.127 28.6306C155.127 28.6306 152.157 28.8827 150.733 28.8827C148.89 28.8827 148.041 28.3151 144.726 27.223C142.803 26.5895 139.751 25.5315 134.858 26.9279C134.404 27.0595 133.905 27.1958 133.399 27.3319C133.376 27.9155 133.36 28.499 133.36 29.087C133.36 29.087 133.36 29.1052 133.36 29.1143C134.452 28.8804 135.814 28.5852 136.993 28.3809C136.908 28.7182 136.901 29.0704 136.974 29.4105C137.047 29.7505 137.197 30.0694 137.412 30.3424C137.628 30.6154 137.903 30.8352 138.217 30.985C138.531 31.1347 138.875 31.2103 139.222 31.206C139.57 31.2017 139.912 31.1175 140.222 30.9601C140.532 30.8026 140.802 30.5759 141.011 30.2977C141.219 30.0195 141.361 29.697 141.426 29.3552C141.49 29.0134 141.475 28.6614 141.381 28.3264C144.998 28.8509 148.336 30.4788 148.336 30.4788C148.336 30.4788 146.351 32.7492 139.122 32.8877C137.221 32.8943 135.327 32.6655 133.483 32.2066C133.522 32.7742 133.572 33.3388 133.632 33.9003C134.052 34.0184 134.388 34.1093 134.586 34.1547C138.271 35.0061 142.38 34.4384 142.38 34.4384C142.38 34.4384 140.537 37.5558 135.862 40.1145C135.541 40.2886 135.217 40.4551 134.89 40.614C135.023 41.109 135.164 41.6001 135.313 42.0875C139.558 40.1145 142.669 36.7202 144.215 35.022Z" fill="white"/>
<path opacity="0.22" d="M101.312 23.4112C100.395 22.623 99.3376 22.0107 98.1934 21.6058C96.5611 21.0452 94.8702 20.6667 93.1526 20.4776C91.0575 20.209 89.5608 19.7295 88.6628 19.0391C87.939 18.4749 87.5771 17.6274 87.5771 16.4964C87.5768 16.0718 87.6899 15.6546 87.9049 15.2867C88.1198 14.9189 88.4291 14.6134 88.8016 14.4011C89.2358 14.1304 89.7133 13.9341 90.2139 13.8209C90.866 13.6758 91.5333 13.6083 92.2017 13.6193C93.024 13.6222 93.8443 13.7046 94.6505 13.8651C97.3227 14.354 99.2179 15.4192 100.336 17.0606V10.1298C97.8954 8.85068 95.1645 8.20721 92.4016 8.2601C89.1554 8.2601 86.5704 9.09287 84.6466 10.7583C82.7228 12.4239 81.7813 14.5663 81.8221 17.1855C81.8221 19.743 82.5309 21.7361 83.9485 23.1654C84.85 24.0299 85.919 24.7054 87.0914 25.1519C88.7156 25.7571 90.4208 26.1251 92.1527 26.2439C94.2179 26.4373 95.6873 26.8161 96.5608 27.3802C96.9743 27.6225 97.3107 27.9744 97.5321 28.3956C97.7436 28.8656 97.8441 29.3768 97.826 29.8907C97.8314 30.4744 97.6579 31.0461 97.3281 31.5306C96.3485 32.9732 94.3445 33.6945 91.3159 33.6945C87.1799 33.6945 84.1717 32.1956 82.2914 29.1975V36.757C82.8356 37.0709 83.4048 37.3404 83.9935 37.5629C86.4632 38.5257 89.0933 39.0245 91.7485 39.0337C95.0138 39.0337 97.7104 38.2747 99.8382 36.757C102.339 34.9866 103.589 32.4655 103.589 29.1935C103.608 26.7141 102.849 24.7866 101.312 23.4112Z" fill="white"/>
<path opacity="0.22" d="M60.8025 20.133C60.8025 17.8984 60.0353 16.1965 58.5219 15.0855C57.0804 14.0281 55.0275 13.5117 52.2456 13.5117C51.824 13.5117 51.432 13.5117 51.0441 13.5117C52.0726 15.3621 53.1743 17.1686 54.3489 18.9309C54.4846 18.9719 54.616 19.0259 54.7409 19.0921C54.8843 19.1747 55.2257 19.3688 55.2257 20.1907C55.2257 20.1907 55.2257 20.2156 55.2257 20.228C56.3076 21.7865 57.4415 23.3011 58.6273 24.7715L58.7707 24.6476C59.4144 24.0774 59.9281 23.3807 60.2782 22.6027C60.6283 21.8248 60.8069 20.9832 60.8025 20.133Z" fill="white"/>
<path opacity="0.22" d="M72.4415 25.4513C72.4564 25.9996 72.389 26.5472 72.2415 27.0753C71.9107 28.1032 71.3595 28.5431 70.4 28.5431C69.7788 28.5672 69.1716 28.3527 68.7016 27.9428C68.462 27.7031 68.2768 27.414 68.1591 27.0952C68.0414 26.7765 67.9939 26.4358 68.0198 26.0968V13.5117H62.3039V25.9405C62.3039 28.5142 63.1204 30.5289 64.7903 31.9309C66.2396 33.1643 68.1341 33.777 70.4163 33.777C71.4143 33.802 72.4068 33.622 73.3334 33.2481C74.2599 32.8742 75.1011 32.3141 75.8057 31.6019C77.3081 30.089 78.0675 28.0784 78.0675 25.628V13.5117H72.4415V25.4513Z" fill="white"/>
<path opacity="0.22" d="M143.659 11.7794C142.867 9.52111 141.678 7.42211 140.149 5.58118C138.128 8.7881 136.53 12.2428 135.394 15.8594C136.722 15.5726 138.019 15.1559 139.265 14.6152C142.526 13.1962 143.659 11.7794 143.659 11.7794Z" fill="white"/>
<path opacity="0.22" d="M140.541 20.9906C145.502 21.5582 148.261 23.2134 150.747 23.5426C151.425 23.593 152.107 23.5316 152.765 23.361C151.617 21.4836 150.327 19.6969 148.906 18.0164C147.43 16.2855 145.819 14.6745 144.088 13.1985C144.088 13.1985 140.966 16.0297 135.587 17.1649L134.981 17.2876C134.579 18.729 134.251 20.19 133.998 21.665C137.497 20.7614 139.22 20.8408 140.541 20.9906Z" fill="white"/>
</svg>
