<svg width="601" height="79" viewBox="0 0 601 79" fill="white" xmlns="http://www.w3.org/2000/svg">
<path d="M13.8999 44.4H14.8999C17.3999 44.4 20.2999 44.4 22.7999 44.4C24.3999 44.4 25.6999 44.1 26.8999 43.1C29.7999 40.9 29.7999 36.8 26.8999 34.9C25.8999 34.3 24.9999 33.6 23.9999 33.6C20.4999 33.3 17.2999 33.6 13.8999 33.3V44.4ZM13.8999 63.7H14.8999C17.7999 63.7 20.2999 63.7 23.0999 63.7C23.6999 63.7 24.3999 63.7 24.9999 63.7C28.7999 63.1 31.2999 59.6 30.0999 55.8C29.4999 53.3 27.1999 52 24.9999 51.4C23.3999 51.1 21.4999 51.1 19.8999 51.1C17.9999 51.1 16.0999 51.1 13.8999 51.1V63.7ZM1.1999 26C4.6999 26 8.4999 26 11.9999 26C16.7999 26 21.4999 26 26.2999 26.3C30.0999 26.3 33.2999 27.6 35.4999 30.7C37.9999 34.2 38.6999 38 37.3999 42.1C36.7999 44 35.4999 45.3 33.8999 46.2C33.2999 46.5 32.8999 46.8 32.2999 47.2C33.5999 47.8 34.7999 48.5 35.7999 49.4C38.2999 51.6 39.5999 54.8 39.5999 58.3C39.5999 62.1 38.2999 65.3 35.1999 67.8C32.9999 69.7 30.3999 70.7 27.5999 71C26.5999 71 25.6999 71.3 24.6999 71.3C17.0999 71.3 9.4999 71.3 1.8999 71.3C1.5999 71.3 1.2999 71.3 0.899902 71.3V64H4.3999V33.6H0.899902L1.1999 26ZM577.7 57.4C577.7 56.4 577.7 55.5 577.7 54.5C577.4 52.3 576.1 50.7 574.2 49.7C570.7 47.5 566.6 48.7 565 52.6C564 55.5 564 58 564.7 60.8C565.3 63 566.3 64.6 568.5 65.6C572.6 67.2 577.7 63.7 577.7 59.3V57.4ZM569.5 78.6C568.2 78.3 566.6 78 565.7 77.3C563.2 76 561.6 74.1 560.6 71.3C561.9 71.3 563.1 71.3 564.4 71.3C564.7 71.3 564.7 71.6 565 71.6C567.2 75.4 571.7 76.4 575.5 74.1C577.1 73.1 577.7 71.9 578 70C578 68.1 578 66.2 578 64.3C577.7 64.6 577.4 65.3 577 65.6C573.2 70 566.2 69.1 563 64.6C560.8 61.7 560.5 58.6 560.8 55.1C560.8 52.9 561.8 51 562.7 49.1C565.9 44.3 573.5 43.4 577 48.5C577.3 48.8 577.6 49.1 578 49.8V45.7H585V48.6H581.5V49.6C581.5 56.3 581.5 62.9 581.5 69.6C581.5 74.4 578.6 77.2 574.2 78.2C573.6 78.2 573.2 78.5 572.6 78.5H569.4V78.6H569.5ZM599 12C599 6.89997 594.9 2.79997 589.8 2.79997C584.7 2.79997 580.6 6.89997 580.3 12C580.3 17.1 584.4 21.2 589.5 21.5C594.9 21.2 599 17.1 599 12ZM600.9 13.3C600.6 15.2 599.9 16.8 598.7 18.4C595.8 22.2 591.1 23.8 586.6 22.5C582.2 21.2 579 17.4 578.7 13C578.1 6.99997 582.2 1.59998 587.9 0.599976C587.9 0.599976 588.2 0.599976 588.5 0.599976H591H591.3C594.5 1.19998 596.7 2.49997 598.6 4.99997C599.9 6.59997 600.2 8.19998 600.8 10.1V13.3H600.9ZM379.9 47.5C379.3 50.7 378.3 53.8 377.7 57C376.7 61.4 375.5 65.9 374.5 70.3C374.5 70.6 374.5 70.9 373.9 70.9C371 70.9 368.2 70.9 365.3 70.9C365 69.9 364.7 69 364.7 68C362.5 60.1 360.3 52.1 358.4 44.2C358.4 43.6 358.1 43.2 357.4 43.2C356.8 43.2 356.1 43.2 355.2 43.2V36.5H368.8V43.2H365.3C366.9 49.9 368.5 56.5 370.1 63.2C370.4 62.6 370.4 61.6 370.7 61C372.3 53.1 373.9 45.1 375.8 37.5C375.8 37.2 376.1 36.9 376.4 36.9C378.9 36.9 381.5 36.9 384 36.9C384.6 36.9 384.6 37.2 384.6 37.5C386.5 45.7 388.1 54 390 62.2C390 62.5 390 62.5 390.3 62.8L394.7 43.1H391.2V36.4H404.8V43.1C404.2 43.1 403.2 43.1 402.6 43.1C402.3 43.1 402 43.1 402 43.7C399.8 52.3 397.2 61.1 395 69.7C394.7 70.3 394.7 70.7 394 70.7C391.5 70.7 388.9 70.7 386.4 70.7C385.8 70.7 385.8 70.7 385.4 70.1C383.5 62.8 381.9 55.5 380 47.9C380.2 47.8 380.2 47.8 379.9 47.5ZM334.2 34.8C332 41.5 330.1 47.8 328.2 54.5H339.9C338 47.8 336.1 41.2 334.2 34.8ZM355.4 63.7V71H345.3C344.7 68.8 344 66.6 343.4 64.3C343.1 63.3 342.8 62.4 342.4 61.4C342.4 61.1 342.1 61.1 341.8 61.1C336.7 61.1 331.7 61.1 326.9 61.1C326.3 61.1 326.3 61.4 326.3 61.7C325.3 64.6 324.7 67.4 323.8 70.3C323.8 70.6 323.8 70.6 323.5 70.9H313V63.6C314 63.6 314.9 63.6 315.9 63.6C316.5 63.6 316.5 63.6 316.9 63C320.7 50.6 324.8 38.6 328.6 26.2C328.6 25.6 328.9 25.6 329.6 25.6C332.8 25.6 335.9 25.6 339.4 25.6C340 25.6 340 25.9 340.4 26.2C344.5 38.3 348.3 50.6 352.5 62.7C352.8 63.3 352.8 63.3 353.5 63.3C353.5 63.7 354.5 63.7 355.4 63.7ZM479.8 49.4L494.4 49.7C494.4 45.9 491.5 43 487.7 43C483.9 42.8 480.1 45.9 479.8 49.4ZM504.2 55.8H479.8C480.1 59 481.1 61.8 483.6 63.7C485.8 65.3 488.4 65.6 491.2 64.7C493.1 64.1 494.1 62.8 495 60.9C495.3 60.6 495.3 60.3 496 60.3C498.5 60.3 501.4 60.3 503.9 60C503.9 60.6 503.6 61 503.6 61.3C501.7 67.3 497.6 70.8 491.2 71.8C487.4 72.4 483.9 72.1 480.4 70.2C476 68 473.1 64.2 471.8 59.1C470.5 53.1 471.2 47.4 475 42.3C481.3 33.7 494.7 34.1 501 42.6C502.9 45.9 504.5 52 504.2 55.8ZM54.1999 49.4L68.7999 49.7C69.0999 46.2 66.2999 43.4 62.4999 43C58.5999 42.5 54.4999 45.6 54.1999 49.4ZM77.9999 55.8H53.5999C53.5999 56.4 53.5999 57.1 53.8999 57.7C54.1999 59 54.4999 60.2 55.1999 61.5C56.7999 64.4 59.5999 65.3 62.7999 65C65.6999 64.7 67.5999 63.1 68.4999 60.6C68.4999 60.3 68.7999 60.3 69.0999 60.3C71.5999 60.3 74.4999 60 76.9999 60H77.2999C76.9999 61.9 76.2999 63.5 75.3999 65.1C72.8999 68.9 69.3999 71.1 64.8999 71.8C61.0999 72.4 57.2999 72.1 53.7999 70.2C48.9999 67.7 46.4999 63.5 45.1999 58.5C44.1999 53.4 44.5999 48.4 47.3999 43.9C53.0999 34.1 67.6999 33.1 74.3999 42.6C76.8999 46.4 78.1999 50.8 78.1999 55.6C78.2999 55.5 78.2999 55.5 77.9999 55.8ZM429.3 54.8C427.1 55.1 424.9 55.1 423 55.8C421.4 56.1 420.1 56.4 418.6 57.1C416.7 57.7 416.1 59.3 416.1 61.2C416.1 63.1 417.4 64.4 419.3 65C422.2 66 425.6 65 427.9 62.8C429.7 60.5 429.7 57.7 429.3 54.8ZM429.3 49.1C429.3 48.1 429 46.9 429 45.9C428.7 44 427.4 42.7 425.5 42.4C424.2 42.1 422.6 42.1 421.4 42.4C419.2 43 417.6 44.3 417.6 46.8C417.6 47.1 417.6 47.4 417.6 47.8L409.4 47.5C409.4 45.9 409.7 44.3 410.7 43.1C412 40.6 414.2 38.7 416.7 37.7C421.8 35.8 426.8 35.8 431.9 38C436 39.6 437.9 43.1 438.2 47.2C438.5 51 438.2 54.8 438.2 58.9C438.2 60.8 438.2 62.7 438.2 64.9H441.1V71.6H430.3V67.8C430 68.1 429.3 68.8 429 69.1C423.9 73.5 415.4 73.2 410.6 68.8C406.5 64.7 406.5 56.4 412.8 53.3C415.7 51.7 418.5 51.1 421.7 50.8C424.2 50.5 426.8 50.2 429.6 49.8C429 49.1 429 49.1 429.3 49.1ZM174.4 42.8C175.7 41.5 176.6 40.3 177.9 39C180.8 36.5 183.9 35.5 187.7 36.1C190.6 36.7 192.1 38.3 193.1 40.9C193.4 41.5 193.4 42.2 193.7 42.8C194 42.5 194.3 41.8 194.7 41.5C196.3 39 198.5 36.7 201.7 36.1C204.6 35.5 207.4 35.5 209.6 37.4C211.5 39 212.1 41.2 212.5 43.4C212.5 44 212.5 45 212.5 45.6C212.5 52.3 212.5 58.9 212.5 65.3V66.3H217.3V70.4H207.8V69.4C207.8 61.5 207.8 53.9 207.8 45.9C207.8 44.9 207.8 44.3 207.5 43.4C206.9 40.2 204.6 38.6 201.2 39.6C198.7 40.2 197.1 41.8 195.5 44C194.2 45.9 193.6 48.1 193.6 50.3C193.6 55.4 193.6 60.4 193.6 65.5V66.5H198.7V70.6H188.3V69.6C188.3 61.7 188.3 53.7 188.3 45.8C188.3 44.8 188.3 43.9 188 42.9C187.4 41 186.1 40 184.2 39.7C181.3 39.4 179.4 40.7 177.5 42.6C175.3 45.1 174 47.7 174.3 51.2C174.3 56 174.3 60.7 174.3 65.8V66.8H179.4V70.9H164.9V66.8H169.7V40.5H164.9V36.4H175C174.1 38.6 174.1 40.6 174.4 42.8ZM116.3 52.6H105.8C105.8 51.3 105.8 49.7 106.1 48.5H122V70.7H117V63.7C116.7 64 116.7 64 116.7 64.3C113.5 69.1 109.4 71.6 103.7 71.9C99.2999 71.9 95.7999 70.3 92.2999 67.5C88.4999 64 86.2999 59.6 85.2999 54.8C83.9999 48.5 84.6999 42.1 87.1999 36.1C89.0999 32 91.9999 28.5 96.0999 26.6C102.8 23.4 111 24.7 115.8 31.7C115.8 32 116.1 32 116.4 32.3V25.3H121.2V39.6H116C115.7 37.7 114.7 36.1 113.8 34.5C111.3 31 107.8 29.1 103.7 29.1C99.8999 29.1 96.6999 31 94.4999 33.9C92.2999 36.4 91.2999 39.6 90.6999 43.1C90.0999 47.9 90.3999 52.3 91.9999 56.7C92.9999 59.2 94.1999 61.5 96.3999 63.4C100.2 66.9 105 67.5 109.4 65.3C113.8 63.4 116.7 58 116.3 52.6ZM250.8 53.6C250.8 53 250.8 52.3 250.8 51.4C250.5 48.9 249.8 46.3 248.6 44.1C246.1 40.6 241.9 39.3 238.1 41.2C234.6 42.8 231.1 47.2 231.8 52C232.1 54.5 231.8 56.8 232.4 59.3C233 63.4 237.2 66.9 241.3 67.5C244.8 67.8 248 65.9 249.5 62.7C250.2 59.6 250.8 56.7 250.8 53.6ZM226.4 28.2H222V24.1H231.5V43.8C231.8 43.5 231.8 43.2 232.1 43.2C233.1 41.6 234.6 40 236.2 38.8C240.6 35.6 246 35.6 250.5 39.4C253.7 41.9 255.3 45.4 256.2 49.2C257.5 54.9 256.8 60.3 253.7 65.4C252.1 67.9 249.9 70.2 247 71.4C242.6 73 237.5 71.7 234.3 68.2C233.7 67.2 232.7 66.3 231.8 65.3V71.3H222V67.2H226.8V28.2H226.4ZM150.3 53.6C150 53.6 149.7 53.6 149.7 53.6C146.8 53.9 144 54.6 140.8 55.2C138.9 55.5 137 56.2 135.4 57.4C134.4 58 133.5 59 133.5 60.6C132.9 64.4 135.7 68.2 139.8 68.5C144.2 68.8 149 65.3 149.9 60.9C150.3 58 149.9 55.8 150.3 53.6ZM154.7 67.2H159.5C159.5 68.5 159.8 70.1 159.8 71.3H150V65.3C149.7 65.6 149.7 65.6 149.7 65.6C147.2 69.7 143.4 71.6 138.6 71.9C134.5 72.2 131.3 70.6 129.1 67.1C127.2 63.9 126.6 60.8 128.5 57.3C129.5 55.1 131.4 54.1 133.6 53.2C136.5 51.9 139.6 51.3 142.8 50.7C145 50.4 147.6 50.1 150.1 49.7C150.1 48.1 150.1 46.2 149.8 44.6C149.2 42.1 147.3 40.8 145 40.2C143.1 39.6 140.9 39.9 139 40.2C136.5 40.8 134.9 42.7 134.2 45C133.9 45.6 133.9 46 132.9 46C131.3 46 130 46 128.5 46C129.5 41.9 131.4 39 135.2 37.1C139.6 35.2 144.1 35.2 148.5 37.1C152 38.7 153.9 41.5 154.5 45.3C154.5 46.3 154.5 46.9 154.5 47.8C154.5 53.8 154.5 59.5 154.5 65.6L154.7 67.2ZM283.1 51H301.8C301.8 48.1 300.8 45.9 299.6 43.7C297.7 41.2 295.5 39.9 292.3 40.5C286.3 41.2 283.5 45.6 283.1 51ZM307.6 54.8H282.9C283.2 56.1 283.2 57 283.5 58C283.8 59.9 284.5 61.8 285.7 63.7C288.2 67.5 293.9 68.8 297.4 66.6C299 65.6 299.9 64.1 300.9 62.5C301.2 61.9 301.5 61.5 302.2 61.5C303.8 61.5 305.4 61.5 307 61.5C306.7 62.1 306.7 62.8 306.4 63.4C304.2 68.5 298.2 72 292.4 71.3C284.5 70.7 279.1 65.3 277.8 57.3C276.8 52.2 277.5 47.2 280.3 42.7C282.5 38.9 286 36.4 290.4 35.7C296.7 34.7 302.5 37.9 305.3 43.6C306.9 46.8 307.5 50.3 307.5 54.1C307.6 54.8 307.6 54.8 307.6 54.8ZM456.9 64.3H461V71H445.1V64.3H448.6V43.4H445.1V36.7H456.8V41.8C457.1 41.5 457.4 40.8 457.4 40.5C458.7 38.6 460.3 36.7 462.8 36.4C464.7 35.8 466.9 36.1 468.8 36.4L469.1 36.7C469.1 39.2 469.1 41.8 469.1 44.3C468.1 44.3 467.2 44 466.2 44C463.7 43.7 461.1 44.3 459.2 45.9C457.6 47.2 457 49.1 456.7 51C456.7 55.1 456.7 59.2 456.7 63.7C456.6 64 456.6 64 456.9 64.3ZM263.8 27.9H259V24.1H268.8V66.9H273.2V71H259V66.9H263.8V27.9ZM520.4 58.6C520.4 60.5 520.7 62.4 521.4 64.3C522.7 66.8 524.6 68.4 527.4 68.4C530.2 68.4 532.5 67.1 533.7 64.6C534.3 63 534.7 61.7 535 59.8C535.3 57.3 535 54.7 533.7 52.5C532.4 50 530.2 48.7 527.4 48.7C524.6 48.7 523 50.3 521.7 52.5C520.4 54.5 520.4 56.4 520.4 58.6ZM538.7 58C538.7 61.2 538.1 64 536.5 66.2C534 70 530.5 71.3 526 71C521.9 70.7 519 68.1 517.4 64.3C515.8 60.2 515.5 55.7 517.4 51.6C519.3 47.5 522.8 45.3 527.5 45.3C532.2 45.3 535.4 47.5 537.3 51.6C538.4 53.9 538.7 56.1 538.7 58ZM552.7 70.7H541.6V67.8H545.1V49.1H541.6V46.2H548.9V51.3C550.2 49.1 551.8 46.9 554.3 45.9C555.6 45.6 557.8 45.6 559.1 45.9V49.4C558.5 49.4 557.8 49.4 557.2 49.1C552.8 48.8 549 52 549 56.4C549 59.9 549 63.7 549 67.2V67.5H553.1L552.7 70.7ZM508.3 66.6H512.4V70.7H508.3V66.6ZM586.9 6.89996V10.7C588.2 10.7 589.4 10.7 590.7 10.7C591 10.7 591.3 10.7 591.7 10.4C592.7 10.1 593 9.39997 592.7 8.19997C592.7 7.19997 592.1 6.59998 591.1 6.59998C589.8 6.89998 588.5 6.89996 586.9 6.89996ZM592.3 11.7C593.6 12 593.9 13 593.9 13.9C593.9 14.8 594.2 16.1 594.2 17.1C592.3 17.1 592.6 17.4 592.3 15.5C592.3 14.9 592.3 14.2 592 13.6C591.7 12.6 591.4 12 590.1 12C588.8 12 587.6 12 586.3 12V16.8H584.7V5.39996C585 5.39996 585.3 5.39996 586 5.39996C587.6 5.39996 589.2 5.39996 590.8 5.39996C592.4 5.39996 593.3 6.39998 593.7 7.59998C594.6 9.49998 593.9 10.7 592.3 11.7Z" fill="white"/>
</svg>
