<svg width="172" height="52" viewBox="0 0 172 52" fill="none" xmlns="http://www.w3.org/2000/svg">
<path d="M12 16.5667L26.7651 36L34.1473 26.2834L41.6095 36L43.0439 34.1118L34.3426 22.6598L26.9067 32.3787L16.5996 18.8129H23.4713L24.8336 20.9985L26.2511 19.1328L24.3013 16.5667H12Z" fill="#2BCDF0"/>
<path d="M23.3799 25.3123L24.7151 27.0698L27.2297 23.7602L29.1465 26.2831L34.2393 19.5719L44.1649 32.6354L56.3741 16.5665H44.1351L40.3463 21.5526L41.726 23.3685L45.0198 19.0337L51.7206 19.0598L44.1426 29.0334L34.2402 16L29.0553 22.824L27.1629 20.3334L23.3799 25.3123Z" fill="#BADAEE"/>
<path d="M73.184 21.858C73.328 22.35 73.484 22.908 73.652 23.532C73.832 24.144 74.018 24.78 74.21 25.44C74.414 26.1 74.618 26.76 74.822 27.42C75.026 28.08 75.224 28.692 75.416 29.256C75.572 28.644 75.728 27.978 75.884 27.258C76.052 26.538 76.208 25.794 76.352 25.026C76.496 24.258 76.634 23.496 76.766 22.74C76.91 21.972 77.042 21.234 77.162 20.526H80.078C79.658 22.614 79.172 24.732 78.62 26.88C78.08 29.028 77.492 31.068 76.856 33H74.282C73.862 31.848 73.454 30.642 73.058 29.382C72.662 28.11 72.272 26.838 71.888 25.566C71.504 26.838 71.12 28.11 70.736 29.382C70.352 30.642 69.95 31.848 69.53 33H66.956C66.32 31.068 65.726 29.028 65.174 26.88C64.634 24.732 64.154 22.614 63.734 20.526H66.776C66.896 21.234 67.028 21.972 67.172 22.74C67.316 23.496 67.466 24.258 67.622 25.026C67.778 25.794 67.934 26.538 68.09 27.258C68.258 27.978 68.426 28.644 68.594 29.256C68.81 28.668 69.02 28.044 69.224 27.384C69.428 26.724 69.626 26.064 69.818 25.404C70.01 24.744 70.184 24.108 70.34 23.496C70.508 22.884 70.658 22.338 70.79 21.858H73.184Z" fill="#2BCDF0"/>
<path d="M82.6024 20.526H85.4104V33H82.6024V20.526Z" fill="#2BCDF0"/>
<path d="M97.3877 33C96.5837 31.572 95.7137 30.162 94.7777 28.77C93.8417 27.378 92.8457 26.064 91.7897 24.828V33H89.0177V20.526H91.3037C91.6997 20.922 92.1377 21.408 92.6177 21.984C93.0977 22.56 93.5837 23.178 94.0757 23.838C94.5797 24.486 95.0777 25.164 95.5697 25.872C96.0617 26.568 96.5237 27.24 96.9557 27.888V20.526H99.7457V33H97.3877Z" fill="#2BCDF0"/>
<path d="M112.595 20.526V22.92H108.833V33H106.025V22.92H102.263V20.526H112.595Z" fill="#BADAEE"/>
<path d="M117.056 26.754C117.056 27.366 117.128 27.918 117.272 28.41C117.428 28.902 117.644 29.328 117.92 29.688C118.208 30.036 118.556 30.306 118.964 30.498C119.372 30.69 119.84 30.786 120.368 30.786C120.884 30.786 121.346 30.69 121.754 30.498C122.174 30.306 122.522 30.036 122.798 29.688C123.086 29.328 123.302 28.902 123.446 28.41C123.602 27.918 123.68 27.366 123.68 26.754C123.68 26.142 123.602 25.59 123.446 25.098C123.302 24.594 123.086 24.168 122.798 23.82C122.522 23.46 122.174 23.184 121.754 22.992C121.346 22.8 120.884 22.704 120.368 22.704C119.84 22.704 119.372 22.806 118.964 23.01C118.556 23.202 118.208 23.478 117.92 23.838C117.644 24.186 117.428 24.612 117.272 25.116C117.128 25.608 117.056 26.154 117.056 26.754ZM126.578 26.754C126.578 27.822 126.416 28.764 126.092 29.58C125.78 30.384 125.348 31.062 124.796 31.614C124.244 32.154 123.584 32.562 122.816 32.838C122.06 33.114 121.244 33.252 120.368 33.252C119.516 33.252 118.712 33.114 117.956 32.838C117.2 32.562 116.54 32.154 115.976 31.614C115.412 31.062 114.968 30.384 114.644 29.58C114.32 28.764 114.158 27.822 114.158 26.754C114.158 25.686 114.326 24.75 114.662 23.946C114.998 23.13 115.448 22.446 116.012 21.894C116.588 21.342 117.248 20.928 117.992 20.652C118.748 20.376 119.54 20.238 120.368 20.238C121.22 20.238 122.024 20.376 122.78 20.652C123.536 20.928 124.196 21.342 124.76 21.894C125.324 22.446 125.768 23.13 126.092 23.946C126.416 24.75 126.578 25.686 126.578 26.754Z" fill="#BADAEE"/>
<path d="M133.383 20.382C135.243 20.382 136.671 20.712 137.667 21.372C138.663 22.02 139.161 23.088 139.161 24.576C139.161 26.076 138.657 27.162 137.649 27.834C136.641 28.494 135.201 28.824 133.329 28.824H132.447V33H129.639V20.706C130.251 20.586 130.899 20.502 131.583 20.454C132.267 20.406 132.867 20.382 133.383 20.382ZM133.563 22.776C133.359 22.776 133.155 22.782 132.951 22.794C132.759 22.806 132.591 22.818 132.447 22.83V26.43H133.329C134.301 26.43 135.033 26.298 135.525 26.034C136.017 25.77 136.263 25.278 136.263 24.558C136.263 24.21 136.197 23.922 136.065 23.694C135.945 23.466 135.765 23.286 135.525 23.154C135.297 23.01 135.015 22.914 134.679 22.866C134.343 22.806 133.971 22.776 133.563 22.776Z" fill="#BADAEE"/>
<path d="M141.943 20.526H144.751V33H141.943V20.526Z" fill="#BADAEE"/>
<path d="M156.71 33C156.578 32.568 156.428 32.124 156.26 31.668C156.104 31.212 155.948 30.756 155.792 30.3H150.932C150.776 30.756 150.614 31.212 150.446 31.668C150.29 32.124 150.146 32.568 150.014 33H147.098C147.566 31.656 148.01 30.414 148.43 29.274C148.85 28.134 149.258 27.06 149.654 26.052C150.062 25.044 150.458 24.09 150.842 23.19C151.238 22.278 151.646 21.39 152.066 20.526H154.748C155.156 21.39 155.558 22.278 155.954 23.19C156.35 24.09 156.746 25.044 157.142 26.052C157.55 27.06 157.964 28.134 158.384 29.274C158.804 30.414 159.248 31.656 159.716 33H156.71ZM153.344 23.352C153.284 23.532 153.194 23.778 153.074 24.09C152.954 24.402 152.816 24.762 152.66 25.17C152.504 25.578 152.33 26.028 152.138 26.52C151.958 27.012 151.772 27.528 151.58 28.068H155.126C154.934 27.528 154.748 27.012 154.568 26.52C154.388 26.028 154.214 25.578 154.046 25.17C153.89 24.762 153.752 24.402 153.632 24.09C153.512 23.778 153.416 23.532 153.344 23.352Z" fill="#BADAEE"/>
</svg>
