<svg id="Layer_1" data-name="Layer 1" xmlns="http://www.w3.org/2000/svg" viewBox="0 0 467.49 116.87"><defs><clipPath id="clippath"><path class="cls-2" d="M0 0h467.49v116.87H0z"/></clipPath><clipPath id="clippath-1"><path class="cls-2" d="M0 0h467.49v116.87H0z"/></clipPath><linearGradient id="linear-gradient" x1="233.61" y1="1324.37" x2="233.61" y2="1207.49" gradientTransform="matrix(1 0 0 -1 .14 1324.37)" gradientUnits="userSpaceOnUse"><stop offset="0" stop-color="#ff8a00"/><stop offset="1" stop-color="#ff4e20"/></linearGradient><style>.cls-2{fill:none;stroke-width:0}</style></defs><g style="clip-path:url(#clippath)"><g style="clip-path:url(#clippath-1)"><path d="M0 42.28V74.6c0 23.35 18.93 42.28 42.28 42.28h382.94c23.35 0 42.28-18.93 42.28-42.28V42.28C467.5 18.93 448.57 0 425.22 0H42.28C18.93 0 0 18.93 0 42.28Z" style="fill:url(#linear-gradient);stroke-width:0"/><path d="M77.28 67.18h-.01Zm-12.05 6.69c4.85-.03 9.22-2.67 12.05-6.69l13.5 12.49c-6.94 6.97-17.14 10.95-29.8 10.88-8.19-.44-17.61-3.26-23.65-12.57-6.81-10.47-4.51-27.47 4.7-37.37C53.52 28.28 73.5 24.9 88.44 32.76c3.41 1.79 6.23 4.57 8.33 7.94L80.22 54.3c-1.06-5.29-5.2-8.67-11.13-8.73-9-.09-14.82 6.38-14.92 16.6-.07 6.89 4.51 11.74 11.05 11.72Zm303.25 4.1c6.04 9.3 15.48 12.13 23.65 12.57 22.36.13 37.1-12.39 39.6-31.68 1.41-10.89-3.56-21.58-12.14-26.11-14.93-7.86-34.93-4.48-46.41 7.85-9.22 9.89-11.51 26.88-4.7 37.37Zm16.85-15.82c.1-10.22 5.92-16.68 14.92-16.6h.01c7.01.07 11.57 4.81 11.38 11.85-.24 9.01-7.1 16.42-15.26 16.46-6.54.03-11.13-4.84-11.05-11.72ZM139.01 89.71h17.1l-14.13-58.27h-15.14L89.83 89.71h20.15l5.59-10.39h21.34L139 89.71h.01Zm-16.48-23.3 8.6-15.99 3.2 15.99h-11.8ZM242.34 31.4h18.29l-18.77 33.97h5.66l-13.44 24.34h-20.59l-2.97-24.34h-3.42l-13.44 24.34h-20.58l-2.97-24.34h-3.25l-4.14-33.93h17.39l4.13 33.93 18.83-34.01h15.87l4.65 34.01 18.76-33.97Zm44.3.04h-17.39l-6.98 33.93h4.2l-5.01 24.34h17.39l5-24.34h-4.19l6.98-33.93Zm52.65 0h17.39l-6.98 33.93h4.42l-5.01 24.34H329.1l-13.44-24.34-5.01 24.34h-17.39l5.01-24.34h-4.13l6.98-33.93h14.23l17.92 29.25 6.01-29.25Z" style="fill:#fff;fill-rule:evenodd;stroke-width:0"/></g></g><path d="M427.51 0H39.98C17.9 0 0 18.8 0 41.98v3C0 21.8 17.9 3 39.98 3h387.53c22.08 0 39.98 18.8 39.98 41.98v-3c0-23.19-17.9-41.98-39.98-41.98Z" style="fill:#ff9950;stroke-width:0"/><path d="M427.51 112.87H39.98C17.9 112.87 0 94.08 0 70.89v4c0 23.19 17.9 41.98 39.98 41.98h387.53c22.08 0 39.98-18.8 39.98-41.98v-4c0 23.19-17.9 41.98-39.98 41.98Z" style="fill:#d54000;stroke-width:0"/></svg>