<svg version="1.2" xmlns="http://www.w3.org/2000/svg" viewBox="0 0 925 180" width="250" height="50">
	<title>GOMBLINGO LOGO-ai</title>
	<style>
		.s0 { fill: #ffffff } 
		.s1 { fill: #6dc184 } 
		.s2 { fill: #090a0a } 
	</style>
	<g id="Layer 1">
		<path id="&lt;Compound Path&gt;" class="s0" d="m91.1 108.8q6.5-0.3 9.7 5.8 1.9 3.4 0.8 6.8-1.1 3.5-4.4 5.1-3.2 1.9-6.6 0.2-3.5-1.7-5.3-5.3-3.6-6.6-2.1-13.4 1.5-6.8 7.5-10.2 2.3-1.3 4.7-2.1 10.8-4 20.9 0.4 10.2 4.5 14 14.9 5.2 14.2-2.5 32.2-7.8 18.1-20.4 24.8-4.5 2.5-9.1 4.2-26.8 9.9-52.1-6.7-22.8-15-33-42.6-9.7-26.4-3.8-54.2 6.9-31.8 31.9-41 15-5.5 31.9 1.4 15.9 6.9 26.8 21.7 0.3 0.1 0.5 0.1 0.8-0.3 3.1-3.4 2.8-4 3.6-5 4.6-1.7 5.1-1-5.8 9.7-12.3 30.9-1.1 3.1-3.1 9.5-0.7-0.8-2.4-1.2-1.6-0.5-2.4-1.3 1.1-3.4 2.2-9.5 0.3-7.8-1.4-9.4-14.7-13.9-31.7-7.7-2.4 0.9-5 2.3-12.3 6.6-13.2 27.1-0.8 17.1 5.7 34.7 1.6 4.4 3.6 7.8 15.3 29.3 41.3 19.8 3.2-1.2 6.4-3.1 20.8-11.3 13.2-28.9-3.2-7.2-3.7-8.2-2.2-2.8-7.6-3.8-3.8-0.6-7 0.6-5.2 1.9-6.7 7.9z"/>
		<path id="&lt;Compound Path&gt;" class="s0" d="m300.1 159.2c0.9 2.5 0 5.3-1.8 7q-1.9 1.7-5.5 1.5-3.2-0.2-5.3-2.8-2.1-2.6-1.9-6.4 0.3-5.1 5.2-8.1 4.2-2.8 8.8-2.5 4.5 0.3 7.7 3.9 3.2 3.6 2.9 8.8-0.4 7.5-6.3 13.1-5.8 5.5-12 5.1-15.3-0.9-14.5-14.5 0.1-2.1 0.6-4.7 0.3-1.9 13.6-21.8 15.4-23.1 24.2-42.3 13.3-28.8 14.8-54.4 0.4-6.4-8.9-11.4l1.4-2.7 9 1.4q14 0.9 30.3-5.7l0.7 1.1q-2 6-2.6 16.7-1.6 26.5 0.8 34 4.1-7.8 9.1-22.8 7.5-23.5 7.5-23.7l-1.5-4.3q19.1-0.1 23.9-0.9 18.1-2.6 18.7-12.9 0.3-4.7-5.9-6.8-2.1-0.7-3.9 0.4 4.2 2.7 4 6.8-0.4 5.6-5.7 5.2-5.2-0.3-4.8-7.1 0.3-3.8 4.1-6.2 3.2-2.1 6.7-1.9 3.3 0.2 6.4 3.4 3.1 3.3 2.9 7.1-0.6 10.2-11.6 18.3-8.6 38.6-11.1 80.2-0.5 8.6 0.7 12.1 2.7 4.4 5.2 9 1.6 3.3 3.2 6.7c-2.2-2.7-7.1-7.6-14.4-8.8-5.4-0.9-9.7 0.8-15.5 2.6q-10.6 3.2-14.1 7l-0.6-0.9q7.3-10.4 11.1-29.9 2.8-16.1 5.7-32.2l-0.5-0.4q-8.5 17.2-17 35.1-8.5 17.9-16.5 35.5-1.8-17.4-4.2-35.5-2.3-17.9-4.9-35.2-2.6 4.8-6.6 22.2-4 16.8-4.3 23.5-0.7 11.7 6 16.3-0.5 0.3-5.1-0.5-5.7-1.2-6.2-1.2-11-0.7-25.5 7.6-16.4 9.5-17.1 21.6-0.3 5.2 2.7 8.5 3.1 3.2 7.8 3 16.4-0.6 17.3-16.3 0.5-7.6-6.9-8.2-4.5-0.2-8.3 2.3-3.7 2.5-4.1 6.6-0.1 1.6 1.9 3.8c-0.8-3.6 0.3-6.9 2.5-8.2 1.2-0.7 2.4-0.6 2.7-0.6 2.5 0.2 4.3 2.3 5 4.4z"/>
		<path id="&lt;Compound Path&gt;" fill-rule="evenodd" class="s0" d="m437.5 153.8q-20.1-2.7-33.2-3.1-1.8 0-5.6 0.4l-1-4.5q4.9 0.1 8.7-0.7 9.4-1.7 12-7.7-0.3-18.2 3.3-40.8 4.5-29.6 5.9-33.3 1.1-3.3-0.5-7-2-4.1-6.3-4.9-1.5-0.3-3.2-0.2l-1.9-0.8-1.6-3.7q9.8-0.4 28.5-2.5 13.1-2.3 22.6-0.5 12.5 2.4 17.7 11.5 4.7 8.4 2.3 21-2.8 14.4-16.5 17.9 12.6 4 20 12.6 7.1 8.3 6.8 17.9-0.1 4.6-0.9 8.6-5.2 27.3-39.2 22.8-2.8 0.2-8.9-1.1-8.3-1.7-9-1.9zm19.8-92.5l-12.6-0.1q-1 11.6-2.4 28.6 9.7 2.3 13.2 1.1 6.8-2.5 8.5-11.9 0.4-1.6 0.6-4.5 0.3-3.5-1.4-7.2-2.1-4.2-5.9-6zm14.3 66q1.3-8.2-3.6-14.8-4.8-6.6-12.2-7.7-9.8-1.3-13.1-0.8 0.2 7.9 0.4 15.9 0.7 8.9 5.1 20.5 9.8 0.9 14.6-0.9 7.3-2.6 8.8-12.2z"/>
		<path id="&lt;Compound Path&gt;" class="s0" d="m564.8 108.5q-3.9 0.3-7-2.1-3-2.4-3-6.3 0-5.8 5.8-10.2 5.2-4 11.1-4 8.9 0 15.5 6.5 6.6 6.6 6.6 15.7 0 13.5-8.9 24.4-9.7 11.6-22.8 10.7-1.7-0.1-7.1-0.9-4.3-0.6-7-0.6-17 0-24.1 2.1-10.1 3-19.9 13.6h-2.5q-2.8-2.3-2.8-2.4-1.5-1.5-1.8-3.2 22.9-25 22.9-91.9 0-5.1-0.4-9.5-9.6-4.2-9.9-9.1l3.2-2.4 5.4 1.2q7 0 14.5-4.6 6.8-4.3 11.5-10.3l2.3 2.4q-3.8 17.2-7.6 34.3-3.7 19.9-3.7 35 0 14.6 7.5 19.6 5.9 3.9 21.3 3.9 5.6 0 12.8-6.5 7.3-6.4 7.3-11.7 0-4.4-3.2-8.4-3.2-4-7.9-4-3.3 0-6.9 1.7 6.9 3 6.9 8.1 0 3.2-2.6 6-2.7 2.8-5.5 2.9z"/>
		<path id="&lt;Compound Path&gt;" class="s0" d="m652.2 140.7q-5.9 1.9-13.4 1.9-13.7 0-24.2 4.3-12.5 5.3-17.6 15.9h-0.7q-2.7-4.3-2.7-4.9 0-3 3.5-8.2 3.5-5.2 3.5-5.5v-22.8q-0.3-39.6 8.1-82.1-9-2.7-9.3-5.4l1.2-1.4 2.9 0.3q8.1 0.6 18.2-6.1 8.2-5.5 14.5-13.4l1.6 6.5q0 1.7-1.9 3.4-1.9 1.6-2.8 4.3-1.7 6-3 30.5-1.4 20.7-1.4 32.4 0 19.8 3.6 29.8 5.1 14.5 19.9 20.5z"/>
		<path id="&lt;Compound Path&gt;" class="s0" d="m731.9 155.6l-1.5 0.7-3.8-0.3q-7.6-0.4-18.3 5-9.6-33.1-35.7-75.6l-0.3 1.8q0 11.6 4.6 34.3 5.5 25.9 11.2 30.3v1q-15.4 0-26.3 7-0.4 0.3-15 13-8 6.9-16.8 6.9-5.4 0-9.2-3.8-3.8-3.9-3.8-9.2 0-4.7 3.7-8.4 3.7-3.8 8.2-3.8 3.7 0 6.2 3.2 2.6 3.3 2.6 6.9 0 3-2.1 5.7-2.1 2.8-5.1 2.8-2 0-3.9-1.4-1.9-1.4-1.9-3.5 0-6.3 5.9-6.3 1.5 0 2.9 2.3 0.7 1.8 1.6 3.6l0.8-2.9q0-2.7-1.9-4.6-1.9-1.9-4.8-1.9-3.6 0-6.3 2.3-2.7 2.3-2.7 5.9 0 4.1 3.2 6.8 3.3 2.7 7.5 2.7 15.6 0 21.1-24.2 2.9-12.9 2.9-36.8v-21.1q0-30.8-3.3-37-10.9-1.5-15-11.5l0.5-2.2q2.3 4.8 8.9 6.3 3.6 0.9 11.5 0.9 9.6 0 20.9-3.2l1.3 0.4q2.5 5.5 14.1 33.8 8.6 20.6 15.3 33.3 0-7.4 1-22.3 1.1-14.8 1.1-22.2 0-4.7-1.7-11.2l-4.2 0.6q-3.9 0-7-2.5-3.1-2.6-3.1-6.4 0-4.5 3-8.1 3-3.5 7.6-3.5 3 0 5.5 1.6 2.6 1.6 2.6 4.6 0 1.6-1.3 3.2-1.3 1.5-2.9 1.5-1.2 0-2.9-1.5-1.6-1.6-1.6-2.8l2.2-4-0.7-0.5q-3.2 0-5.5 3-2.2 2.9-2.2 6.1 0 1.2 2.3 3.1 2.3 2 3.6 2 6.3 0 13.8-6.5 6.8-6 9.5-12.4l1.3-0.6 0.4 2.4q0 0.3-2.3 5.3-2.2 4.9-2.2 7.1 0 5.6 2.2 16.4 2.3 10.8 2.3 16.4 0 8-1.7 23.7-1.8 15.7-1.8 23.7 0 5.5 1.4 12.8 1.7 8.9 4.1 11.8z"/>
		<path id="&lt;Compound Path&gt;" class="s0" d="m793.3 106.3q4.3 1.3 5 6.2 0.4 2.7-1.2 4.7-1.6 2.1-4.1 2.4-2.6 0.4-4.5-1.6-1.9-1.9-2.2-4.8-0.7-5.3 1.9-9.4 2.7-4.2 7.5-4.9 1.8-0.3 3.6-0.3 8.2 0 13.8 5.4 5.7 5.4 5.7 13.3 0 10.7-9.6 20.8-9.6 10.1-19.6 11.5-3.6 0.6-7 0.6-20.3 0-33.1-17.2-11.5-15.6-11.5-36.4 0-19.9 10.7-37 12.4-19.4 31.3-19.4 11.3 0 20.8 8.7 8.9 8.5 12.5 21 0.2 0.2 0.3 0.2 0.6 0 2.9-1.6 2.9-1.9 3.6-2.4 3.5 0 3.7 0.6-6.2 5-15.7 17.5-1.6 1.9-4.4 5.6-0.3-0.7-1.3-1.4-1-0.7-1.3-1.4 1.5-2 3.8-5.8 2.1-5.1 1.3-6.6-6.3-12.8-19.1-12.8-1.8 0-3.9 0.3-9.9 1.3-15.4 14.7-4.7 11.2-4.7 24.5 0 3.3 0.4 6 3.1 23.3 22.7 23.3 2.4 0 5-0.5 16.6-2.4 15.8-16-0.3-5.6-0.4-6.3-0.8-2.4-4.1-4.4-2.4-1.4-4.9-1.4-3.9 0.1-6.3 3.7z"/>
		<path id="&lt;Compound Path&gt;" fill-rule="evenodd" class="s0" d="m878.1 148.3q-23.1 0-36.3-17.6-11.9-15.7-11.9-39.1 0-21.2 11.8-39.4 13.9-21.3 35.3-21.3 9.7 0 20.2 8 16.8 12.8 19.2 40.3 0.6 7.1 0.6 13.3 0 32.8-15.5 46.9-10 8.9-23.4 8.9zm25.5-50.2q0-15.4-1.8-21-4.3-12-18.6-12-8.5 0-16.2 8.5-9.9 11-10.7 31-0.4 11.9 7.7 18.9 7.6 6.5 18.3 5.8 8.1-0.7 14.9-11.1 6.4-10 6.4-20.1z"/>
		<g id="Group 41298 00000066490743400409702300000002094617756563673741 ">
			<path id="Path 331300 00000153666507636627682620000005818062571572217486 " class="s1" d="m265 152.4c-30.3 14.9-65.7 14.9-96 0-11.2-5.3-16-19.6-10.5-31.4l-0.1-0.5c-7.1-24.4 6.2-50 30.1-58.3 18.5-5.9 38.4-5.9 56.9 0 24 8.3 37.3 33.9 30.2 58.3l-0.1 0.5c5.4 11.8 0.7 26.1-10.5 31.4z"/>
			<path id="Path 331301 00000067928336214726858330000008731789254440892033 " class="s1" d="m166.8 79.7q-0.2-1.1-0.5-2.1-0.2-0.6-0.4-1.3l0.4 1.2q-0.6-1.7-1.3-3.3-0.9-2.1-2-4.1-0.7-1.2-1.5-2.4l0.7 1q-2-3.2-4.7-5.9-0.9-0.8-1.7-1.6l1 0.9q-2.7-2.4-5.7-4.1-0.9-0.5-1.9-1l1.2 0.6q-3.4-1.7-7-2.6-1.2-0.3-2.3-0.5l1.2 0.2q-4.6-0.9-9.2-0.8-1.5 0-3 0.1l1.2-0.1q-3.7 0.3-7.3 1 1.9-2.9 3.8-5.8 0.1 0.9 0.3 1.7 0.4 2.1 1 4.2 0.4 1.6 1 3.2l-0.4-1.2q1.6 5.1 4.2 9.8 0.9 1.5 1.8 2.9-0.4-0.5-0.7-1 2.2 3.4 5 6.3 0.9 0.8 1.7 1.6l-0.9-0.9c2.1 1.9 4.5 3.5 7 4.8l-1.2-0.6c2.6 1.3 5.3 2.2 8.1 2.7l-1.3-0.2c3.2 0.6 6.5 0.8 9.8 0.5l-1.2 0.1q1.4-0.1 2.8-0.2l-3.2 2 2.1-3 3.1-4.7 0.8-1.1c0.3-0.5 0.8-1 1.4-1.3 1.6-1 3.7-1 5.3 0 1.1 0.7 1.8 1.8 2.1 3.1 0.2 1.3-0.1 2.6-0.8 3.6q-1.4 2.2-2.8 4.3-1.5 2.3-3.1 4.5c-0.3 0.6-0.8 1.1-1.4 1.4-0.5 0.4-1.1 0.6-1.7 0.7q-0.5 0.1-0.9 0.1-0.8 0.1-1.7 0.1c-1.4 0.1-2.9 0.2-4.3 0.2q-3 0-5.9-0.4-3.3-0.5-6.4-1.6-3-1-5.7-2.5c-3.2-1.7-6-3.9-8.6-6.4q-3.5-3.6-6.2-7.9-2.3-3.5-3.9-7.3-1.7-3.9-2.9-7.9-0.8-2.5-1.3-5.1-0.3-1.2-0.5-2.5v-0.1c-0.2-0.6-0.2-1.2 0-1.9 0.1-0.6 0.3-1.2 0.7-1.7 0.7-1.1 1.9-1.8 3.1-2.1q6.2-1.1 12.5-1.1 5.3 0 10.5 1.2 4.1 0.9 7.8 2.7 3.9 1.7 7.4 4.3 3.1 2.4 5.8 5.4 2.4 2.7 4.3 5.8 1.4 2.2 2.6 4.6 0.9 2 1.7 4 0.7 2 1.3 4.1 0.2 0.7 0.4 1.4v0.1c0.1 0.6 0.1 1.2-0.1 1.9-0.2 1.2-0.9 2.4-2.1 3.1q-0.7 0.6-1.7 0.7c-1.2 0.2-2.5 0-3.6-0.7-1.1-0.8-1.8-1.9-2.1-3.1"/>
			<path id="Path 331302 00000072997631640387218270000010755552912387811983 " class="s1" d="m165.7 87.5c-37.1 4.6-42.7-37.4-42.7-37.4 41.7-7.6 48.6 28.6 48.6 28.6z"/>
			<path id="Path 331303 00000097495151214658340270000005279883392850999937 " class="s1" d="m264.9 81.8c-0.2 1.2-1 2.3-2 3.1-1.1 0.7-2.4 1-3.7 0.7q-0.9-0.1-1.7-0.7c-1.1-0.7-1.9-1.8-2.1-3.1-0.1-0.6-0.2-1.3 0-1.9v-0.1q0.2-0.7 0.4-1.4 0.5-2.1 1.3-4.1 0.7-2 1.7-4 1.1-2.4 2.6-4.6 1.9-3.1 4.3-5.8 2.6-3 5.8-5.4 3.4-2.5 7.4-4.3 3.7-1.8 7.7-2.7 5.2-1.1 10.6-1.2 6.3 0 12.4 1.1c1.3 0.3 2.4 1 3.1 2.1 0.4 0.5 0.7 1.1 0.7 1.8 0.2 0.6 0.2 1.2 0.1 1.8v0.1q-0.2 1.3-0.5 2.6-0.6 2.5-1.3 5.1-1.2 4-2.9 7.8-1.6 3.8-3.9 7.3-2.7 4.3-6.3 7.9c-2.5 2.5-5.4 4.7-8.5 6.4q-2.8 1.5-5.7 2.5-3.2 1.1-6.5 1.6-2.9 0.4-5.8 0.4c-1.5 0.1-2.9 0-4.4-0.1q-0.8-0.1-1.6-0.2-0.5 0-0.9-0.1c-0.6-0.1-1.2-0.3-1.8-0.7-0.5-0.3-1-0.8-1.3-1.3q-1.6-2.3-3.1-4.6-1.4-2.1-2.9-4.2c-0.7-1.1-0.9-2.4-0.7-3.7 0.3-1.2 1-2.4 2.1-3.1 1-0.7 2.3-0.9 3.6-0.7 1.3 0.3 2.4 1 3.1 2l0.7 1.1 3.2 4.8 2 2.9-3.1-2q1.4 0.1 2.8 0.2h-1.2c3.2 0.2 6.5 0 9.8-0.6l-1.3 0.2c2.8-0.5 5.5-1.4 8-2.7l-1.1 0.6c2.5-1.3 4.9-2.9 7-4.8l-1 0.9q0.9-0.8 1.8-1.6 2.8-2.9 5-6.3-0.4 0.5-0.7 1.1 0.9-1.5 1.7-2.9 2.6-4.7 4.3-9.8l-0.4 1.1q0.5-1.6 1-3.2 0.6-2.1 1-4.2 0.1-0.8 0.3-1.6l3.8 5.7q-3.7-0.7-7.4-1l1.3 0.1q-1.5-0.1-3-0.1-4.6-0.1-9.2 0.8l1.2-0.2q-1.1 0.2-2.3 0.5-3.6 0.9-7 2.6l1.2-0.6q-1 0.5-1.9 1-3 1.7-5.7 4.1l1-0.9q-0.9 0.8-1.7 1.6-2.7 2.7-4.8 5.9l0.7-1q-0.8 1.2-1.5 2.4-1.1 2-1.9 4.1-0.8 1.6-1.3 3.3l0.4-1.1q-0.2 0.6-0.4 1.2-0.3 1-0.6 2.1"/>
			<path id="Path 331304 00000108281849721879505480000005962790125288492932 " class="s1" d="m260.2 80.8c0 0 6.9-36.2 48.5-28.6 0 0-5.6 42.1-42.6 37.4z"/>
			<path id="Path 331305 00000170276747639380231960000006525622107902764424 " class="s2" d="m214 98.8c0 8.9-7.2 16.1-16.1 16.1-8.9 0-16.2-7.2-16.2-16.1 0-8.9 7.3-16.2 16.2-16.2 8.9 0 16.1 7.3 16.1 16.2z"/>
			<path id="Path 331306 00000080169084262176172370000008752815374113899181 " class="s0" d="m207.3 92.1c0 3.7-3 6.7-6.6 6.7-3.7 0-6.7-3-6.7-6.7 0-3.7 3-6.7 6.7-6.7 3.6 0 6.6 3 6.6 6.7q0 0 0 0z"/>
			<path id="Path 331307 00000043431457365530433480000011575549603398547339 " class="s0" d="m195.5 104.2c0 1.3-1 2.3-2.3 2.3-1.3 0-2.3-1-2.3-2.3 0-1.3 1-2.3 2.3-2.3 1.3 0 2.3 1 2.3 2.3z"/>
			<path id="Path 331308 00000016762087978766379330000017592870103489031070 " class="s2" d="m238.1 82.6c8.9 0 16.2 7.3 16.2 16.2 0 8.9-7.3 16.1-16.2 16.1-8.9 0-16.1-7.2-16.2-16.1 0-8.9 7.3-16.2 16.2-16.2z"/>
			<path id="Path 331309 00000122678078103069688260000007143894993428349318 " class="s0" d="m228.6 92.1c0-3.7 3-6.7 6.7-6.7 3.7 0 6.7 3 6.7 6.7 0 3.7-3 6.7-6.7 6.7-3.7 0-6.7-3-6.7-6.7q0 0 0 0z"/>
			<path id="Path 331310 00000088125815442672017030000015972407290721222033 " class="s2" d="m218.4 147.3c-10.1 0.8-20.2-0.7-29.5-4.5-1.4-0.5-1.5-1.6-0.3-2.4 1.4-0.8 3.1-0.9 4.6-0.3 7.9 3.1 16.5 4.4 25 3.8 8.4-0.4 16.7-2.6 24.1-6.5 1.4-0.8 3.1-0.8 4.6-0.2 1.2 0.6 1.2 1.7-0.1 2.5-8.8 4.6-18.5 7.2-28.4 7.6z"/>
			<path id="Path 331311 00000158013201102111493850000006049983060811830664 " class="s0" d="m227.6 104.2c0-1.3 1.1-2.3 2.3-2.3 1.3 0 2.3 1 2.3 2.3 0 1.3-1 2.3-2.3 2.3-1.2 0-2.3-1-2.3-2.3z"/>
			<path id="Path 331312 00000122688358118135243120000003618423665047996557 " class="s0" d="m187.7 142.8c-1.5-2.5 5.6-13.2 5.6-13.2l4.9 16.6"/>
			<path id="Path 331313 00000114040280818908154420000006451615820665454493 " class="s0" d="m237.2 144.2l4.9-16.2c0 0 7.1 9 5.6 11.5"/>
		</g>
	</g>
</svg>