<svg id="ezTOoZa8yKd1" xmlns="http://www.w3.org/2000/svg" xmlns:xlink="http://www.w3.org/1999/xlink" viewBox="0 0 300 80" shape-rendering="geometricPrecision" text-rendering="geometricPrecision">
<style><![CDATA[
#ezTOoZa8yKd3 {animation: ezTOoZa8yKd3_c_o 3800ms linear infinite normal forwards}@keyframes ezTOoZa8yKd3_c_o { 0% {opacity: 0} 7.894737% {opacity: 1;animation-timing-function: cubic-bezier(0.42,0,0.58,1)} 78.947368% {opacity: 1;animation-timing-function: cubic-bezier(0.42,0,0.58,1)} 86.842105% {opacity: 0} 100% {opacity: 0}} #ezTOoZa8yKd4_to {animation: ezTOoZa8yKd4_to__to 3800ms linear infinite normal forwards}@keyframes ezTOoZa8yKd4_to__to { 0% {transform: translate(149.822px,38.18565px)} 36.315789% {transform: translate(149.822px,38.18565px);animation-timing-function: cubic-bezier(0.42,0,0.58,1)} 51.315789% {transform: translate(270.340562px,38.18565px)} 100% {transform: translate(270.340562px,38.18565px)}} #ezTOoZa8yKd4-fill {animation: ezTOoZa8yKd4-fill__t 3800ms linear infinite normal forwards}@keyframes ezTOoZa8yKd4-fill__t { 0% {transform: matrix(0.094178,0,0,0.094178,1.028353,0.5)} 36.052632% {transform: matrix(0.094178,0,0,0.094178,1.028353,0.5);animation-timing-function: cubic-bezier(0.42,0,0.58,1)} 46.578947% {transform: matrix(0.009175,0,0,0.009175,0.089778,0.5)} 100% {transform: matrix(0.009175,0,0,0.009175,0.089778,0.5)}} #ezTOoZa8yKd4-fill-0 {animation: ezTOoZa8yKd4-fill-0__c 3800ms linear infinite normal forwards}@keyframes ezTOoZa8yKd4-fill-0__c { 0% {stop-color: #fff} 36.052632% {stop-color: #fff;animation-timing-function: cubic-bezier(0.42,0,0.58,1)} 46.578947% {stop-color: #fff} 100% {stop-color: #fff}} #ezTOoZa8yKd4-fill-1 {animation: ezTOoZa8yKd4-fill-1__c 3800ms linear infinite normal forwards}@keyframes ezTOoZa8yKd4-fill-1__c { 0% {stop-color: rgba(255,255,255,0)} 36.052632% {stop-color: rgba(255,255,255,0);animation-timing-function: cubic-bezier(0.42,0,0.58,1)} 46.578947% {stop-color: rgba(255,255,255,0)} 100% {stop-color: rgba(255,255,255,0)}} #ezTOoZa8yKd5_to {animation: ezTOoZa8yKd5_to__to 3800ms linear infinite normal forwards}@keyframes ezTOoZa8yKd5_to__to { 0% {offset-distance: 0%} 36.315789% {offset-distance: 0%;animation-timing-function: cubic-bezier(0.1,0.005,0.19,1.01)} 67.631579% {offset-distance: 100%} 100% {offset-distance: 100%}} #ezTOoZa8yKd5_tr {animation: ezTOoZa8yKd5_tr__tr 3800ms linear infinite normal forwards}@keyframes ezTOoZa8yKd5_tr__tr { 0% {transform: rotate(-0.000001deg)} 15% {transform: rotate(-0.000001deg);animation-timing-function: cubic-bezier(0.42,0,0.58,1)} 36.052632% {transform: rotate(765.000001deg)} 100% {transform: rotate(765.000001deg)}} #ezTOoZa8yKd6_to {animation: ezTOoZa8yKd6_to__to 3800ms linear infinite normal forwards}@keyframes ezTOoZa8yKd6_to__to { 0% {transform: translate(248.4685px,72.1885px)} 37.105263% {transform: translate(248.4685px,72.1885px)} 41.315789% {transform: translate(248.4685px,68.1885px)} 100% {transform: translate(248.4685px,68.1885px)}} #ezTOoZa8yKd6 {animation: ezTOoZa8yKd6_c_o 3800ms linear infinite normal forwards}@keyframes ezTOoZa8yKd6_c_o { 0% {opacity: 1} 37.105263% {opacity: 1} 41.315789% {opacity: 0} 100% {opacity: 0}} #ezTOoZa8yKd8_to {animation: ezTOoZa8yKd8_to__to 3800ms linear infinite normal forwards}@keyframes ezTOoZa8yKd8_to__to { 0% {transform: translate(170px,21.572021px)} 39.473684% {transform: translate(170px,21.572021px);animation-timing-function: cubic-bezier(0,0,0.58,1)} 49.473684% {transform: translate(158.600502px,21.572021px)} 100% {transform: translate(158.600502px,21.572021px)}} #ezTOoZa8yKd8 {animation: ezTOoZa8yKd8_c_o 3800ms linear infinite normal forwards}@keyframes ezTOoZa8yKd8_c_o { 0% {opacity: 0} 42.105263% {opacity: 0;animation-timing-function: cubic-bezier(0,0,0.58,1)} 53.684211% {opacity: 1} 78.947368% {opacity: 1;animation-timing-function: cubic-bezier(0.42,0,0.58,1)} 86.842105% {opacity: 0} 100% {opacity: 0}}
]]></style>
<defs><linearGradient id="ezTOoZa8yKd4-fill" x1="0" y1="0" x2="1" y2="0" spreadMethod="pad" gradientUnits="objectBoundingBox" gradientTransform="matrix(0.094178 0 0 0.094178 1.028353 0.5)"><stop id="ezTOoZa8yKd4-fill-0" offset="0%" stop-color="#fff"/><stop id="ezTOoZa8yKd4-fill-1" offset="100%" stop-color="rgba(255,255,255,0)"/></linearGradient></defs><g id="ezTOoZa8yKd3" transform="translate(.000001 0.000001)" opacity="0"><g id="ezTOoZa8yKd4_to" transform="translate(149.822,38.18565)"><path id="ezTOoZa8yKd4" d="M56.1058,26.3986h-25.4414v-6.2465h25.4414v6.2465ZM51.8251,41.366h-21.1607v-6.2997h21.1607v6.2997Zm4.2807,14.9142h-25.4414v-6.2465h25.4414v6.2465ZM87.634,20.1521h6.6564L81.1294,56.2802h-6.6564L61.3121,20.1521h6.6563l9.8062,26.9898L87.634,20.1521Zm15.665,2.4288c2.771-1.6167,5.792-2.4288,9.055-2.4288c3.264,0,6.285.8121,9.055,2.4288s4.964,3.8101,6.581,6.5805c1.616,2.7703,2.428,5.7911,2.428,9.0547c0,3.2637-.812,6.2921-2.428,9.0548-1.617,2.7704-3.811,4.9638-6.581,6.5805s-5.791,2.4288-9.055,2.4288c-3.263,0-6.292-.8046-9.055-2.4288-2.77-1.6167-4.9634-3.8101-6.58-6.5805-1.6167-2.7703-2.4288-5.7911-2.4288-9.0548c0-3.2636.8045-6.2844,2.4288-9.0547c1.6166-2.7704,3.81-4.9639,6.58-6.5805Zm.699,23.9993c2.307,2.3074,5.093,3.4611,8.364,3.4611s6.057-1.1537,8.364-3.4611c2.307-2.3073,3.461-5.0928,3.461-8.3641c0-3.2712-1.154-6.0567-3.461-8.3641s-5.093-3.461-8.364-3.461-6.057,1.1537-8.364,3.461c-2.308,2.3074-3.461,5.0929-3.461,8.3641c0,3.2713,1.153,6.0568,3.461,8.3641Zm57.031,3.4535v6.2465h-25.441v-36.1281h6.246v29.8816h19.195Zm24.409-29.8816h6.247v23.377c0,3.5445-1.237,6.5577-3.719,9.032-2.475,2.4743-5.473,3.7191-8.979,3.7191-3.507,0-6.512-1.2372-9.01-3.7191-2.497-2.4743-3.741-5.4875-3.741-9.032v-23.377h6.246v23.377c0,1.7912.638,3.3244,1.913,4.5919c1.275,1.2751,2.801,1.9127,4.592,1.9127s3.309-.6376,4.569-1.9127c1.252-1.2751,1.882-2.8007,1.882-4.5919v-23.377Zm27.309,6.0944v29.8816h-6.247v-29.8816h-9.601v-6.2465h15.871l-.023,6.2465Zm13.814,30.1246h-6.247v-36.1281h6.247v36.1281ZM240.784,22.672c2.771-1.6166,5.791-2.4288,9.055-2.4288s6.284.8122,9.055,2.4288c2.77,1.6167,4.964,3.8102,6.58,6.5805c1.617,2.7703,2.429,5.7911,2.429,9.0548s-.812,6.292-2.429,9.0548c-1.616,2.7703-3.81,4.9638-6.58,6.5804-2.771,1.6167-5.791,2.4288-9.055,2.4288s-6.292-.8045-9.055-2.4288c-2.77-1.6166-4.964-3.8101-6.58-6.5804-1.617-2.7704-2.429-5.7912-2.429-9.0548s.812-6.2845,2.429-9.0548c1.616-2.7703,3.81-4.9638,6.58-6.5805Zm.698,23.9994c2.308,2.3073,5.093,3.461,8.365,3.461c3.271,0,6.056-1.1537,8.364-3.461c2.307-2.3074,3.461-5.0929,3.461-8.3641s-1.154-6.0568-3.461-8.3641c-2.308-2.3074-5.093-3.461-8.364-3.461-3.272,0-6.057,1.1536-8.365,3.461-2.307,2.3073-3.461,5.0928-3.461,8.3641s1.154,6.0567,3.461,8.3641ZM293.398,20.243h6.246v36.1281h-6.246L279.311,32.5767v23.7944h-6.247v-36.1281h6.247l14.087,23.8476v-23.8476ZM25.4432,30.7325c0,2.0341-.5313,3.886-1.6015,5.571-1.0702,1.6849-2.4743,2.9752-4.2352,3.8708l5.8291,16.1059h-6.6564L13.36,41.366h-6.93132v14.9143h-6.42868l.00168-21.214h14.86112c1.2068,0,2.2238-.4174,3.0739-1.2675s1.2675-1.8595,1.2675-3.0436c0-1.184-.425-2.2086-1.2675-3.0739-.8425-.8576-1.8671-1.2903-3.0739-1.2903h-14.86112v-6.2389h14.86112c2.9221,0,5.4192,1.0322,7.4837,3.0967s3.0967,4.5615,3.0967,7.4837Z" transform="translate(-149.822,-38.18565)" fill="url(#ezTOoZa8yKd4-fill)"/></g><g id="ezTOoZa8yKd5_to" style="offset-path:path('M112.378045,38.208988C209.170609,38.208988,209.102942,38.208988,168.3,38.208988');offset-rotate:0deg"><g id="ezTOoZa8yKd5_tr" transform="rotate(-0.000001)"><path d="M117.075,38.5347c2.83,0,5.124-2.2937,5.124-5.1232c0-2.8294-2.294-5.1232-5.124-5.1232-2.829,0-5.123,2.2938-5.123,5.1232c0,2.8295,2.294,5.1232,5.123,5.1232Z" transform="translate(-112.378045,-38.208988)" fill="#ef4423"/></g></g><g id="ezTOoZa8yKd6_to" transform="translate(248.4685,72.1885)"><path id="ezTOoZa8yKd6" d="M199.594,79.194c-.843-.4402-1.496-1.0474-1.958-1.8368-.456-.7893-.691-1.7001-.691-2.7323v-4.9639c0-1.0322.228-1.943.691-2.7323.455-.7894,1.108-1.3966,1.958-1.8292.842-.4326,1.829-.6452,2.945-.6452c1.115,0,2.072.205,2.914.6148.843.4099,1.488.9867,1.958,1.7381.471.7514.699,1.6243.699,2.611c0,.129-.084.2049-.258.2353l-2.513.1518h-.045c-.144,0-.213-.076-.213-.2353c0-.759-.235-1.3662-.698-1.8292s-1.078-.6907-1.837-.6907-1.396.2277-1.859.6907-.699,1.0702-.699,1.8292v5.1839c0,.7438.236,1.351.699,1.8064s1.085.6907,1.859.6907s1.374-.2277,1.837-.6907c.463-.4554.698-1.0626.698-1.8064c0-.1594.084-.2353.258-.2353l2.513.1063c.068,0,.129.0227.182.0607s.076.0911.076.1518c0,.9867-.236,1.8671-.699,2.6261s-1.115,1.3434-1.958,1.7609c-.842.4174-1.806.6223-2.914.6223-1.109,0-2.103-.2201-2.945-.6527Zm26.222.2735l-.645-2.1099c-.03-.0608-.061-.0835-.106-.0835h-5.29c-.046,0-.076.0303-.106.0835l-.623,2.1099c-.045.1443-.136.2126-.281.2126h-2.732c-.084,0-.152-.0228-.19-.0759-.045-.0532-.053-.1291-.023-.2277l4.645-14.5272c.046-.1442.137-.2125.281-.2125h3.378c.144,0,.235.0683.281.2125l4.645,14.5272c0,0,.022.0607.022.1062c0,.1291-.075.1898-.235.1898h-2.732c-.144,0-.236-.0683-.281-.2125l-.008.0075Zm-5.29-4.5387h3.78c.083,0,.114-.0456.083-.1291l-1.935-6.3831c-.015-.0607-.038-.0835-.061-.0759-.03,0-.053.0304-.06.0759l-1.89,6.3831c-.016.0835.015.1291.083.1291Zm18.194,4.3716c-.858-.3644-1.526-.8881-1.989-1.5712s-.698-1.4724-.698-2.3756v-.4706c0-.0683.023-.129.076-.1821.053-.0532.114-.0759.182-.0759h2.451c.069,0,.129.0227.183.0759.053.0531.076.1138.076.1821v.3188c0,.5768.265,1.055.796,1.4497.532.3946,1.245.592,2.148.592.759,0,1.329-.1594,1.701-.4858.371-.3187.561-.721.561-1.1916c0-.3415-.114-.63-.341-.8728-.228-.2353-.539-.4402-.934-.6224s-1.017-.425-1.882-.7438c-.964-.3264-1.776-.6679-2.437-1.0095-.66-.3415-1.222-.8121-1.677-1.4041s-.675-1.3283-.675-2.2011.22-1.6091.667-2.2542c.448-.6451,1.063-1.1385,1.852-1.48.79-.3416,1.701-.5162,2.733-.5162c1.085,0,2.057.1898,2.914.5769.858.3871,1.518.926,1.996,1.6242.479.6983.722,1.5028.722,2.4212v.3188c0,.0683-.023.129-.076.1821-.054.0532-.114.0759-.183.0759h-2.474c-.068,0-.129-.0227-.182-.0759-.053-.0531-.076-.1138-.076-.1821v-.1746c0-.5996-.25-1.1157-.744-1.5407-.493-.4251-1.169-.63-2.034-.63-.675,0-1.199.1442-1.579.4326-.379.2884-.569.6831-.569,1.1841c0,.3567.114.6603.334.9032s.554.4629.987.6527c.432.1897,1.116.4554,2.034.7818c1.017.3719,1.814.7058,2.398.9866.577.2885,1.101.7135,1.572,1.2827.47.5693.698,1.2979.698,2.2011c0,1.351-.494,2.4136-1.48,3.1954-.987.7817-2.33,1.1688-4.023,1.1688-1.146,0-2.148-.1821-3.006-.5464h-.022Zm17.267.3038c-.053-.0532-.076-.1139-.076-.1822v-14.5271c0-.0683.023-.129.076-.1822.053-.0531.114-.0759.183-.0759h2.512c.068,0,.129.0228.182.0759.053.0532.076.1139.076.1822v14.5271c0,.0683-.023.129-.076.1822-.053.0531-.114.0759-.182.0759h-2.512c-.069,0-.13-.0228-.183-.0759Zm20.849-14.8994c.053-.0531.114-.0759.182-.0759h2.513c.068,0,.129.0228.182.0759s.076.1139.076.1822v14.5271c0,.0683-.023.129-.076.1822-.053.0531-.114.0759-.182.0759h-2.429c-.144,0-.243-.0608-.304-.1746l-5.563-9.199c-.031-.0455-.061-.0607-.084-.0531-.03,0-.045.0379-.045.0986l.045,9.07c0,.0683-.022.129-.076.1822-.053.0531-.113.0759-.182.0759h-2.512c-.068,0-.129-.0228-.182-.0759-.053-.0532-.076-.1139-.076-.1822v-14.5271c0-.0683.023-.129.076-.1822s.114-.0759.182-.0759h2.429c.144,0,.243.0607.303.1746l5.549,9.1534c.03.0456.06.0608.083.0532.03,0,.046-.038.046-.0987l-.023-9.0244c0-.0683.023-.129.076-.1822h-.008ZM291.37,79.2245c-.85-.4554-1.518-1.1006-1.988-1.9203-.471-.8273-.706-1.776-.706-2.8462v-4.5995c0-1.0626.235-1.9962.706-2.8159.47-.8197,1.138-1.4497,1.988-1.905.85-.4554,1.837-.6756,2.953-.6756c1.115,0,2.125.2277,2.975.6756.85.4478,1.518,1.0853,1.988,1.905.471.8197.706,1.7533.706,2.8159v4.5995c0,1.0778-.235,2.0265-.706,2.8614-.47.8349-1.138,1.4724-1.988,1.9278-.85.4478-1.845.6755-2.975.6755-1.131,0-2.103-.2277-2.953-.6907v-.0075Zm4.873-2.6641c.486-.5009.728-1.1689.728-1.9962v-4.7285c0-.8273-.242-1.5028-.721-2.0113-.478-.5085-1.123-.759-1.92-.759s-1.419.2505-1.905.759c-.478.5085-.721,1.1764-.721,2.0113v4.7285c0,.8349.243,1.4953.721,1.9962s1.116.7514,1.905.7514c.79,0,1.427-.2505,1.913-.7514Z" transform="translate(-248.4685,-72.1885)" fill="#ef4423"/></g></g><g transform="translate(0 16.613629)"><g id="ezTOoZa8yKd8_to" transform="translate(170,21.572021)"><path id="ezTOoZa8yKd8" d="M171.764,5.62175c.452.26197.89.53877,1.312.83043l-3.173,5.56232c-2.13-1.6705-4.61-2.50584-7.444-2.50584-3.364,0-6.229,1.17694-8.602,3.53074s-3.56,5.1955-3.56,8.5326s1.187,6.1788,3.56,8.5326c2.373,2.3539,5.238,3.5308,8.602,3.5308c2.841,0,5.326-.8395,7.46-2.5184l3.409,5.3983c-.5.357-1.021.6927-1.564,1.007C168.914,39.1715,165.808,40,162.451,40c-3.356,0-6.471-.8207-9.312-2.4777-2.85-1.6492-5.105-3.8869-6.768-6.7131s-2.498-5.9078-2.498-9.2372.835-6.4111,2.498-9.2372s3.918-5.06382,6.768-6.71305c2.849-1.64922,5.956-2.47771,9.312-2.47771c3.357,0,6.463.82849,9.313,2.47771Z" transform="translate(-158.600502,-21.572021)" opacity="0" fill="#ef4423"/></g></g></svg>
