<svg width="379" height="78" viewBox="0 0 379 78" fill="none" xmlns="http://www.w3.org/2000/svg">
<path fill-rule="evenodd" clip-rule="evenodd" d="M40.6701 0L49.2987 11.1431L55.2024 0L61.7118 11.1431L69.7346 0V23.6369H40.6701V0ZM10.4551 28.361H0V77.0497H27.7597V67.8383H10.4551V28.361ZM42.3937 74.8565C45.9989 76.9518 50.1568 78 54.8671 78C59.5778 78.0003 63.7357 76.9525 67.3409 74.8565C70.9091 72.7511 73.811 69.657 75.7047 65.9377C77.6756 62.0872 78.6609 57.6522 78.6609 52.6322C78.6609 47.7097 77.6756 43.372 75.7047 39.6194C73.8162 35.9521 70.9081 32.9273 67.3409 30.9195C63.7357 28.8238 59.5778 27.776 54.8671 27.776C50.1083 27.776 45.9263 28.8238 42.3213 30.9195C38.7461 32.9834 35.8403 36.057 33.9576 39.7657C31.9863 43.5671 31.0011 47.9533 31.0013 52.9246C31.0013 57.847 31.9867 62.2092 33.9576 66.0106C35.8819 69.7135 38.8084 72.7823 42.3937 74.8565ZM64.3134 64.4021C61.9579 67.278 58.8092 68.7157 54.8671 68.7154C52.4409 68.7648 50.0554 68.0774 48.0173 66.7417C45.9957 65.3652 44.3965 63.4396 43.4028 61.1854C42.3452 58.7973 41.8166 56.0434 41.8166 52.9243C41.8166 49.8051 42.3452 47.0515 43.4028 44.6635C44.5086 42.2263 46.0467 40.3742 48.0173 39.1071C50.0612 37.7839 52.4425 37.0975 54.8671 37.1334C57.2701 37.091 59.6305 37.7782 61.6446 39.1071C63.7118 40.4316 65.3239 42.3726 66.2594 44.6635C67.3652 47.0515 67.9177 49.8051 67.9177 52.9243C67.9184 57.701 66.7164 61.5272 64.3134 64.4021ZM97.0635 28.361H86.6084V77.0497H97.0635V57.3843L111.484 77.0497H124.174L105.428 51.4637L125.183 28.361H112.71L97.0632 47.2222L97.0635 28.361ZM142 28.361H131.545V77.0497H142V28.361Z" fill="white"/>
<path fill-rule="evenodd" clip-rule="evenodd" d="M161 29H379V78H161V29ZM174.6 68.2272C177.636 71.2845 181.851 72.8136 187.247 72.8136C190.111 72.8649 192.959 72.3597 195.648 71.3234L194.533 64.7636C192.482 65.5095 190.328 65.8881 188.159 65.884C184.821 65.8819 182.207 64.8855 180.317 62.8948C178.427 60.904 177.481 58.1131 177.481 54.522C177.481 51.0011 178.375 48.1917 180.163 46.0939C181.952 43.9602 184.38 42.8937 187.448 42.8937C189.761 42.9311 192.039 43.4951 194.126 44.5468L195.492 37.6673C192.912 36.6043 190.167 36.0613 187.397 36.0675C184.213 35.9993 181.07 36.8282 178.291 38.4685C175.668 40.0244 173.538 42.3619 172.169 45.1877C170.706 48.3203 169.977 51.7767 170.045 55.2674C170.046 60.8497 171.564 65.1693 174.6 68.2272ZM224.065 36.6028H215.262L202.918 72.121H210.405L212.985 64.0146H226.24L228.972 72.121H236.56L224.065 36.6028ZM219.509 43.8019L224.065 57.4016H215.108L219.509 43.8019ZM248.283 72.121C250.122 72.5898 252.007 72.8223 253.899 72.8147C257.878 72.8141 260.981 71.8531 263.207 69.9325C265.434 68.0125 266.547 65.3281 266.547 61.8794C266.546 59.6402 266.091 57.8273 265.181 56.4405C264.347 55.0947 263.219 53.979 261.892 53.1875C260.326 52.3053 258.703 51.539 257.036 50.8945L254.961 50.041C253.914 49.6164 252.926 49.0426 252.027 48.3351C251.723 48.0606 251.482 47.7153 251.324 47.327C251.166 46.9386 251.095 46.517 251.117 46.0954C251.104 45.5775 251.219 45.0647 251.449 44.6072C251.68 44.1493 252.018 43.7615 252.432 43.4818C253.308 42.8066 254.539 42.469 256.125 42.469C257.496 42.4828 258.858 42.698 260.172 43.1088C261.584 43.5186 262.944 44.1098 264.219 44.8685L265.332 37.8292C262.438 36.5921 259.349 35.9409 256.226 35.9087C252.313 35.9087 249.261 36.8866 247.069 38.842C244.877 40.7974 243.781 43.4818 243.781 46.8951C243.781 48.9929 244.186 50.6993 244.995 52.0149C245.769 53.2587 246.787 54.3135 247.98 55.1081C249.446 55.9815 250.967 56.7479 252.533 57.401C252.774 57.4948 253.01 57.6019 253.241 57.7212C253.444 57.7924 253.63 57.8636 253.799 57.9348L255.009 58.4681C256.135 58.8949 257.206 59.4686 258.197 60.1751C258.528 60.4184 258.795 60.7468 258.972 61.1294C259.149 61.5121 259.231 61.9363 259.209 62.3615C259.212 62.9312 259.074 63.4921 258.808 63.9885C258.541 64.4844 258.156 64.8978 257.691 65.1883C256.505 65.9485 255.131 66.3199 253.745 66.2548C252.164 66.2277 250.597 65.9577 249.09 65.4547C247.421 64.8778 245.825 64.0899 244.335 63.1079L243.728 70.2548C245.156 71.0975 246.69 71.7255 248.283 72.121ZM284.658 36.6033H277.323V72.12H284.658V36.6033ZM305.286 36.6033H296.688V72.12H303.416V47.0565L317.479 72.12H325.978V36.6018H319.25V61.509L305.286 36.6033ZM344.078 70.5212C346.751 72.0888 349.772 72.8802 352.83 72.8147C355.889 72.8802 358.909 72.0882 361.582 70.5212C364.086 68.9853 366.122 66.7282 367.451 64.0146C368.878 61.0039 369.59 57.6731 369.525 54.3089C369.591 51.0118 368.878 47.7491 367.451 44.8147C366.126 42.1396 364.086 39.9327 361.582 38.4685C358.909 36.901 355.889 36.11 352.83 36.175C349.756 36.1054 346.718 36.8969 344.028 38.4685C341.519 39.9736 339.48 42.2159 338.159 44.9213C336.794 47.9074 336.085 51.1793 336.085 54.4943C336.085 57.8088 336.794 61.0808 338.159 64.0669C339.509 66.7682 341.562 69.0074 344.078 70.5212ZM356.494 65.2871C355.344 65.8327 354.09 66.0909 352.83 66.0412C351.129 66.0776 349.456 65.5756 348.026 64.6022C346.607 63.5976 345.485 62.1935 344.788 60.5485C343.304 56.6828 343.304 52.3607 344.788 48.495C345.456 46.8382 346.579 45.43 348.013 44.451C349.446 43.472 351.124 42.9674 352.832 43.0018C354.518 42.971 356.174 43.4725 357.587 44.4423C359.037 45.4079 360.169 46.8239 360.825 48.495C361.631 50.3884 362.027 52.4467 361.987 54.522C361.987 58.0061 361.144 60.797 359.457 62.8948C358.658 63.9224 357.644 64.741 356.494 65.2871Z" fill="white"/>
</svg>
