<svg width="135" height="34" viewBox="0 0 135 34" fill="none" xmlns="http://www.w3.org/2000/svg">
<g clip-path="url(#clip0_11001_15630)">
<path d="M11.029 10.5664V22.3702H8.78046L2.9185 15.1986V22.3702H0.25V10.5664H2.49854L8.3255 17.738V10.5664H11.029Z" fill="white"/>
<path d="M13.8008 10.5664H16.5043V22.3702H13.8008V10.5664Z" fill="white"/>
<path d="M30.0214 10.5664V22.3702H27.7728L21.9458 15.2074V22.3789H19.2773V10.5664H21.5259L27.3528 17.738V10.5664H30.0214Z" fill="white"/>
<path d="M41.896 20.1898V22.3789H32.7969V10.5664H41.6686V12.7555H35.5004V15.3212H40.9511V17.4315H35.5091V20.1898H41.896Z" fill="white"/>
<path d="M67.1914 16.6961C67.1914 13.1322 69.8949 10.6016 73.5521 10.6016C75.5731 10.6016 77.2792 11.3284 78.3904 12.7119L76.6405 14.3231C75.8444 13.4036 74.8557 12.9396 73.7096 12.9396C71.5048 12.9396 69.9387 14.4719 69.9387 16.7311C69.9387 18.9903 71.496 20.5227 73.7096 20.5227C74.8907 20.5227 75.8794 20.0586 76.6405 19.1041L78.3904 20.7153C77.288 22.0989 75.6081 22.8257 73.5521 22.8257C69.8949 22.7906 67.1914 20.225 67.1914 16.6961Z" fill="white"/>
<path d="M87.6746 20.0681H82.2326L81.2002 22.5987H78.418L83.6412 10.7949H86.3097L91.5593 22.5987H88.707L87.6746 20.0681ZM86.8347 17.9578L84.9711 13.4306L83.1075 17.9578H86.8347V17.9578Z" fill="white"/>
<path d="M91.8516 21.407L92.7615 19.3404C93.7501 20.0672 95.2375 20.5663 96.6461 20.5663C98.2472 20.5663 98.8947 20.0322 98.8947 19.3054C98.8947 17.0813 92.079 18.6136 92.079 14.2441C92.079 12.2477 93.6801 10.5664 97.0311 10.5664C98.5184 10.5664 99.9971 10.9079 101.108 11.5997L100.268 13.6662C99.1659 13.0533 98.0635 12.7468 97.0311 12.7468C95.43 12.7468 94.7825 13.3597 94.7825 14.0865C94.7825 16.2757 101.598 14.7783 101.598 19.1128C101.598 21.0655 99.9621 22.7555 96.6111 22.7555C94.7825 22.7905 92.884 22.2126 91.8516 21.407Z" fill="white"/>
<path d="M103.469 10.7949H106.172V22.5987H103.469V10.7949Z" fill="white"/>
<path d="M119.72 10.7949V22.5987H117.472L111.61 15.4271V22.5987H108.941V10.7949H111.19L117.017 17.9665V10.7949H119.72Z" fill="white"/>
<path d="M121.773 16.6961C121.773 13.1672 124.477 10.6016 128.204 10.6016C131.896 10.6016 134.635 13.1672 134.635 16.6961C134.635 20.225 131.896 22.7906 128.204 22.7906C124.477 22.7906 121.773 20.1812 121.773 16.6961ZM131.826 16.6961C131.826 14.4369 130.269 12.9045 128.169 12.9045C126.078 12.9045 124.512 14.4369 124.512 16.6961C124.512 18.9553 126.069 20.4877 128.169 20.4877C130.269 20.4526 131.826 18.9203 131.826 16.6961Z" fill="white"/>
<path d="M48.907 16.4695C48.907 16.4608 48.8984 16.4608 48.8984 16.4521C48.8984 16.4521 48.8984 16.4521 48.907 16.4521C48.8984 16.4608 48.8984 16.4695 48.907 16.4695C48.907 16.4695 48.8984 16.4695 48.907 16.4695Z" fill="#F84B00"/>
<path d="M56.1791 8.81641L56.1719 8.82368V8.81641C56.1719 8.81641 56.1719 8.81641 56.1791 8.81641Z" fill="#F84B00"/>
<path d="M61.1512 23.8292C60.9848 23.8251 60.8179 23.8224 60.6514 23.8121C60.1926 23.7842 59.7432 23.6699 59.327 23.4753C58.4079 23.0465 57.7327 22.3756 57.3224 21.4433C57.1402 21.0412 57.0349 20.6087 57.012 20.168C56.9768 19.5491 57.1249 18.9336 57.438 18.3983C57.4781 18.33 57.5208 18.2636 57.5667 18.1881H57.4866C57.2981 18.1922 57.1096 18.207 56.922 18.198C56.576 18.1796 56.2349 18.1081 55.9107 17.986C54.9323 17.6246 54.2071 16.9918 53.8193 16.0102C53.6331 15.5382 53.544 15.0479 53.6007 14.5386C53.6491 14.0768 53.7931 13.6299 54.0236 13.2265C54.0411 13.1955 54.0569 13.1632 54.0757 13.1273C53.9735 13.1151 53.8706 13.1088 53.7676 13.1084C53.5975 13.1169 53.4275 13.1335 53.2583 13.1555C52.3732 13.27 51.5085 13.5079 50.6896 13.8624C49.8213 14.233 49.0204 14.7445 48.3193 15.3761C47.5806 16.0497 46.9935 16.8266 46.6035 17.7498C46.3964 18.2416 46.2636 18.7612 46.2094 19.2919C46.1775 19.5968 46.2067 19.9102 46.2283 20.2183C46.2482 20.422 46.2811 20.6242 46.3269 20.8236C46.4209 21.3303 46.5981 21.8179 46.8514 22.2669C46.9189 22.3832 47.0039 22.4914 47.084 22.6064C47.0813 22.4034 47.0597 22.2161 47.0799 22.0329C47.125 21.6781 47.2303 21.3336 47.3912 21.014C47.6052 20.5715 47.8855 20.1642 48.2226 19.8061C48.3296 19.692 48.4516 19.5923 48.5672 19.4863C48.5648 19.5054 48.5599 19.5242 48.5528 19.542C48.4061 19.8141 48.2707 20.0912 48.1987 20.3952C48.1429 20.6292 48.0777 20.8613 48.035 21.0976C48.0101 21.2636 47.9968 21.4312 47.9949 21.5991C47.9766 21.9292 47.9929 22.2604 48.0435 22.5871C48.093 22.91 48.1864 23.2247 48.3211 23.5225C48.4111 23.7106 48.4956 23.901 48.5991 24.0806C48.8666 24.5426 49.2158 24.9523 49.6297 25.2899C49.9986 25.595 50.4052 25.8515 50.8394 26.0533C51.1911 26.216 51.5574 26.3452 51.9335 26.4391C51.9749 26.4494 52.0181 26.4543 52.0784 26.4647C52.0581 26.4265 52.0491 26.4049 52.0361 26.3861C51.5948 25.7309 51.427 24.994 51.4063 24.2198C51.3973 23.9365 51.4044 23.6528 51.4274 23.3702C51.4516 23.1244 51.4893 22.88 51.5403 22.6383C51.6123 22.2651 51.7108 21.8991 51.8872 21.5605C51.9116 21.5189 51.9385 21.4787 51.9677 21.4402C51.9807 21.4519 51.9839 21.4537 51.9843 21.4554C51.9879 21.4685 51.9915 21.4815 51.9942 21.4945C52.1548 22.3208 52.4441 23.0963 52.9196 23.7959C53.3551 24.4354 53.903 24.9572 54.5841 25.3268C55.3565 25.7457 56.1847 25.9505 57.0664 25.9011C57.3384 25.8913 57.6091 25.8602 57.8762 25.8081C59.0836 25.5486 60.1471 25.0124 61.0194 24.1264C61.1043 24.0327 61.1843 23.9347 61.2592 23.8327L61.2425 23.8121C61.2127 23.8209 61.1821 23.8266 61.1512 23.8292V23.8292ZM48.5699 19.4836L48.5771 19.4756C48.5771 19.4787 48.5771 19.4814 48.5771 19.4845L48.5699 19.4836Z" fill="#E45809"/>
<path d="M62.8382 19.3942C62.6956 19.4282 62.5717 19.5159 62.4923 19.6389C62.3618 19.8226 62.203 19.9856 61.9695 20.0089C61.7313 20.0291 61.492 20.0324 61.2533 20.0188C60.9866 20.008 60.7203 19.9797 60.4544 19.9537C60.3307 19.9416 60.2083 19.9187 60.0855 19.8989C59.9694 19.8801 59.8538 19.8491 59.7373 19.8419C59.6908 19.8378 59.6443 19.8487 59.6045 19.873C59.5647 19.8972 59.5337 19.9335 59.516 19.9766C59.4759 20.0664 59.516 20.1459 59.5826 20.2083C59.9038 20.5186 60.2421 20.8024 60.6667 20.969C60.9086 21.0609 61.1246 21.2097 61.2965 21.4028C61.44 21.5663 61.5467 21.7432 61.4549 21.9762C61.4283 22.044 61.4922 22.1366 61.5561 22.1289C61.6217 22.1236 61.686 22.1071 61.746 22.08C62.1544 21.8684 62.5217 21.5857 62.8306 21.2452C63.1212 20.9349 63.2354 20.5658 63.2507 20.1917C63.2485 19.9375 63.2143 19.7269 63.1185 19.5302C63.0573 19.3996 62.979 19.3632 62.8382 19.3942Z" fill="#E45809"/>
<path d="M63.9002 15.8255C63.7936 15.4735 63.5772 15.1995 63.288 14.9835C63.108 14.8488 62.9123 14.7438 62.7319 14.614C61.9153 14.0284 61.172 13.3473 60.5177 12.5851C60.4353 12.4835 60.3715 12.3681 60.3292 12.2443C60.2878 12.1316 60.2887 12.0045 60.2608 11.8851C60.1877 11.5578 60.0122 11.2623 59.7597 11.0413C59.5037 10.8234 59.2186 10.642 58.9126 10.5024C58.7799 10.4391 58.6427 10.3821 58.5275 10.33C59.1537 9.90562 59.1888 9.46824 59.0602 9.1319C58.7088 8.49559 57.6098 8.16913 57.1122 8.05058C56.8423 7.9895 56.5378 7.93247 56.1972 7.88532C50.4826 6.92075 47.4438 11.114 47.4438 11.114C45.6182 13.2084 45.243 15.5705 45.2709 17.2625C45.2709 17.3124 45.2709 17.3626 45.2709 17.4125C45.2709 17.43 45.2709 17.4471 45.2709 17.4646C45.2709 17.5122 45.2741 17.5598 45.2754 17.6074C45.2754 17.6334 45.2795 17.6595 45.2813 17.686C45.3038 18.2558 45.3767 18.9689 45.5782 19.5437C45.5782 19.5055 45.5782 19.4683 45.5782 19.4305C45.5861 19.1348 45.6126 18.8397 45.6574 18.5473C45.7306 18.1858 45.8269 17.8294 45.9457 17.4803C45.9648 17.4351 45.981 17.3888 45.9943 17.3415C46.0732 17.1215 46.1606 16.9042 46.2566 16.6895C46.9036 15.2575 47.8938 14.0064 49.1398 13.0468C49.845 12.499 50.6323 12.0656 51.4728 11.7625C52.1171 11.5264 52.7926 11.3861 53.4778 11.3462C53.9683 11.3235 54.4598 11.3518 54.9444 11.4306C55.1328 11.4598 55.3146 11.4957 55.5116 11.4499C55.9191 11.3563 56.3112 11.2051 56.6759 11.0009C56.3106 11.2407 54.436 12.6071 55.2979 14.8852C56.1977 17.2621 58.6562 16.967 59.3229 16.6738C59.3044 16.7443 59.2887 16.8027 59.2747 16.8615C59.2064 17.148 59.1537 17.4354 59.1996 17.7331C59.2277 17.9619 59.2993 18.1832 59.4106 18.3851C59.7538 18.9662 60.2986 19.1966 60.9401 19.2415C61.2534 19.2566 61.567 19.2198 61.8682 19.1324C62.4854 18.968 63.0032 18.6582 63.3707 18.1224C63.4688 17.9796 63.5057 17.8274 63.4517 17.6658C63.3833 17.4435 63.2697 17.2377 63.1182 17.0611C62.9667 16.8845 62.7804 16.7409 62.5709 16.6392C62.4008 16.5561 62.3086 16.4214 62.31 16.2301C62.31 16.1044 62.3999 16.0276 62.5237 16.0159C62.7036 15.9989 62.8651 16.1426 62.915 16.3172C62.9546 16.4383 63.0101 16.5535 63.0801 16.6599C63.1229 16.7184 63.1767 16.768 63.2385 16.8058C63.5111 17.0016 63.7923 16.8458 63.8876 16.5979C63.9795 16.3493 63.984 16.077 63.9002 15.8255V15.8255ZM56.7425 10.9829L56.7384 10.969L56.7506 10.9627C56.7485 10.9697 56.7458 10.9764 56.7425 10.9829V10.9829ZM60.4628 14.3594C59.9983 14.2184 59.5334 14.0768 59.0683 13.9346C58.9463 13.8973 58.8231 13.8636 58.703 13.8205C58.6692 13.8088 58.6251 13.772 58.6215 13.7424C58.6148 13.6853 58.6715 13.6853 58.7142 13.6822L60.0125 13.5771C60.0128 13.5787 60.0128 13.5804 60.0125 13.582C60.111 13.5762 60.2091 13.5686 60.3076 13.565C60.3401 13.5609 60.3729 13.5696 60.3989 13.5893C60.425 13.6091 60.4423 13.6382 60.4471 13.6705C60.4921 13.8618 60.5371 14.0527 60.5847 14.244C60.6113 14.3513 60.5694 14.3917 60.4628 14.3594Z" fill="#E45809"/>
<path d="M56.5638 6.93027C56.9982 6.99088 57.3867 7.06419 57.7309 7.1427C58.1398 7.23957 58.5399 7.37108 58.9267 7.53581L60.7055 2.43115C60.1988 2.7319 59.726 3.02515 59.2383 3.28491C58.8975 3.46502 58.7443 3.64339 58.8039 4.06998C58.846 4.42044 58.7667 4.77478 58.5794 5.07329C58.3921 5.3718 58.1083 5.59625 57.7757 5.7088C57.4452 5.83936 57.0816 5.85933 56.7389 5.76576C56.3962 5.67218 56.0926 5.47004 55.873 5.18927C55.6579 4.91134 55.5375 4.5711 55.5297 4.21895C55.5218 3.8668 55.6269 3.52148 55.8294 3.23411C55.9367 3.08056 56.0641 2.94549 56.1524 2.8335C55.5913 1.86949 54.8849 0.936644 54.3651 0.0488281C53.8521 0.941262 53.1561 1.87988 52.6024 2.84735C52.6919 2.95703 52.8204 3.09269 52.9283 3.24566C53.133 3.5313 53.2409 3.87568 53.236 4.22782C53.231 4.57996 53.1135 4.92113 52.9007 5.20082C52.6837 5.48363 52.3818 5.6885 52.0399 5.785C51.6979 5.88151 51.3342 5.8645 51.0026 5.73651C50.6689 5.62706 50.383 5.40505 50.1933 5.10803C50.0035 4.811 49.9215 4.45717 49.9612 4.10634C50.0185 3.67918 49.8619 3.50254 49.5205 3.32474C49.0276 3.0696 48.5525 2.77982 48.043 2.48311L49.6949 6.56833C49.6949 6.56833 49.7035 6.58854 49.7202 6.61971L49.8762 7.00474L50.0966 7.55255H50.1723C51.8713 6.87543 54.0076 6.49502 56.5638 6.93027Z" fill="#E45809"/>
</g>
<defs>
<clipPath id="clip0_11001_15630">
<rect width="135" height="33.986" fill="white"/>
</clipPath>
</defs>
</svg>
