<svg width="800" height="800" viewBox="0 0 800 800" fill="none" xmlns="http://www.w3.org/2000/svg">
<path d="M268.717 196.61C261.792 198.103 254.855 200.467 247.924 203.501C237.003 208.196 227.73 214.305 219.606 221.102C219.312 212.14 219.478 203.588 220.044 195.369C224.14 100.165 302.929 24 399.726 24C493.725 24 570.828 95.6441 579.029 186.936C580.406 197.447 580.872 208.631 580.355 220.233C567.57 208.378 551.161 200.395 531.311 196.673C518.586 136.259 464.652 90.8704 399.997 90.8704C335.37 90.8704 281.464 136.204 268.717 196.61ZM257.17 224.351C268.246 219.427 278.994 217.048 289.383 217.048H505.062C560.761 217.522 589.107 247.745 590 307.81V482.206C589.107 542.177 560.761 572.51 505.062 573H289.383C278.994 573 268.246 570.582 257.17 565.745C246.498 561.082 237.718 555.494 230.715 548.697C217.319 532.803 210.472 509.488 210 478.689V311.311C210.472 280.583 217.319 257.229 230.715 241.256C237.718 234.577 246.498 228.982 257.17 224.351Z" fill="#E2001A"/>
<path d="M268.717 196.61C261.792 198.103 254.855 200.467 247.924 203.501C237.003 208.196 227.73 214.305 219.606 221.102C219.312 212.14 219.478 203.588 220.044 195.369C224.14 100.165 302.929 24 399.726 24C493.725 24 570.828 95.6441 579.029 186.936C580.406 197.447 580.872 208.631 580.355 220.233C567.57 208.378 551.161 200.395 531.311 196.673C518.586 136.259 464.652 90.8704 399.997 90.8704C335.37 90.8704 281.464 136.204 268.717 196.61ZM257.17 224.351C268.246 219.427 278.994 217.048 289.383 217.048H505.062C560.761 217.522 589.107 247.745 590 307.81V482.206C589.107 542.177 560.761 572.51 505.062 573H289.383C278.994 573 268.246 570.582 257.17 565.745C246.498 561.082 237.718 555.494 230.715 548.697C217.319 532.803 210.472 509.488 210 478.689V311.311C210.472 280.583 217.319 257.229 230.715 241.256C237.718 234.577 246.498 228.982 257.17 224.351Z" stroke="white"/>
<path fill-rule="evenodd" clip-rule="evenodd" d="M616.35 606.235C616.533 598.102 619.574 591.57 625.532 586.671C631.311 581.7 638.897 579.14 648.283 579H667.163V608.11H655.735C649.451 608.25 646.238 611.22 646.108 616.944V623.327H667.163V653.49H646.108V742.427H616.35V606.235ZM86.0563 660.692C85.9083 656.02 83.6755 653.608 79.3341 653.452H56.1817C50.6935 653.78 47.8714 656.747 47.7314 662.321V703.414C47.8714 709.174 50.9947 712.109 57.0906 712.275H78.3036C80.5126 712.275 82.3464 711.466 83.8076 709.819C85.3322 708.584 86.0563 706.992 86.0563 705.022V660.692ZM18 654.857C18.1511 644.579 20.4719 636.765 24.9769 631.421C27.3323 629.187 30.2891 627.312 33.8774 625.765C37.6032 624.115 41.2153 623.319 44.7243 623.319H87.2295C105.98 623.478 115.511 633.592 115.815 653.688V715.533C115.672 722.667 112.845 728.857 107.362 734.037C101.947 739.473 95.4684 742.244 87.9297 742.411H47.7314V787H18V654.857ZM169.486 706.31C169.486 708.029 170.284 709.39 171.867 710.408C173.262 711.638 175.025 712.275 177.255 712.275H200.098C205.267 712.275 207.941 710.303 208.089 706.31V697.896C208.089 693.306 205.362 690.989 199.879 690.989H177.255C174.285 690.989 172.226 691.476 171.08 692.399C170.023 693.486 169.486 695.635 169.486 698.824V706.31ZM208.089 659.968C208.239 655.459 205.584 653.304 200.09 653.452H140.198V623.319H207.634C227.272 623.631 237.242 633 237.575 651.475V714.507C237.411 722.482 234.938 729.053 230.137 734.28C225.111 739.693 218.64 742.411 210.707 742.411H169.946C150.107 742.244 140.053 733.315 139.747 715.554V691.233C139.897 672.67 149.513 663.241 168.538 662.916H208.089V659.968ZM327.151 754.387C325.486 755.883 323.457 756.724 321.097 756.864H261.739V787H331.152C339.768 786.849 346.522 783.835 351.474 777.936C356.336 772.039 358.867 764.263 359.029 754.553V623.319H329.542V704.824C329.542 706.77 328.67 708.428 326.911 709.819C325.098 711.466 322.929 712.275 320.434 712.275H299.446C294.111 712.275 291.476 709.097 291.476 702.73V623.319H261.739V712.275C261.739 717.13 262.426 721.17 263.787 724.341C265.082 727.81 267.22 731.134 270.195 734.307C273.326 737.302 276.449 739.413 279.575 740.547C282.537 741.787 286.506 742.411 291.476 742.411H329.542V749.569C329.542 751.385 328.744 752.99 327.151 754.387ZM382.376 712.275H435.361C440.213 712.109 442.728 710.194 442.879 706.524V703.814C442.879 703.034 442.638 702.164 442.179 701.225C440.992 698.951 439.539 697.819 437.811 697.819H411.543C403.745 697.671 397.092 695.019 391.501 689.905C385.849 685.185 382.947 679.374 382.783 672.554V650.084C383.093 632.555 392.745 623.631 411.76 623.319H473.213V653.452H421.153C415.039 653.452 411.966 655.301 411.966 658.982V661.903C411.966 665.727 415.11 667.639 421.38 667.639H447.564C454.547 667.8 460.49 670.433 465.45 675.571C470.457 680.748 473.055 686.907 473.213 694.054V716.038C473.055 722.209 470.159 728.373 464.586 734.518C461.869 737.535 459.092 739.613 456.315 740.785C453.438 741.864 449.535 742.411 444.541 742.411H382.376V712.275ZM526.507 710.408C524.898 709.39 524.1 708.029 524.1 706.31V698.824C524.1 695.635 524.655 693.486 525.712 692.399C526.851 691.476 528.898 690.989 531.866 690.989H554.503C559.973 690.989 562.731 693.306 562.731 697.896V706.31C562.578 710.303 559.914 712.275 554.746 712.275H531.866C529.665 712.275 527.892 711.638 526.507 710.408ZM554.706 653.452C560.202 653.304 562.861 655.459 562.731 659.968V662.916H523.164C504.116 663.241 494.513 672.67 494.381 691.233V715.554C494.659 733.315 504.729 742.244 524.552 742.411H565.337C573.282 742.411 579.761 739.693 584.753 734.28C589.527 729.053 592.019 722.482 592.178 714.507V651.475C591.869 633 581.899 623.631 562.274 623.319H494.83V653.452H554.706ZM751.737 658.701V659.405L714.445 673.258V661.158C714.445 658.905 715.494 657.075 717.553 655.684C719.21 654.182 721.35 653.452 724.008 653.452H744.703C746.735 653.452 748.431 653.907 749.816 654.857C751.1 655.838 751.737 657.152 751.737 658.701ZM714.921 703.872V701.997L782 675.981V652.157C781.701 633.235 772.318 623.631 753.801 623.319H713.716C694.754 623.631 685.104 632.907 684.772 651.134L685.025 711.442C685.025 717.201 685.633 721.826 686.859 725.306C687.979 728.648 690.207 731.895 693.476 735.089C696.271 737.718 699.476 739.613 703.041 740.769C706.31 741.864 710.92 742.411 716.847 742.411H781.799V712.275H720.716C719.04 712.275 717.783 711.371 716.847 709.591C715.555 708.203 714.921 706.286 714.921 703.872Z" fill="#008ACA"/>
</svg>
