<svg width="114" height="54" viewBox="0 0 114 54" fill="none" xmlns="http://www.w3.org/2000/svg">
  <g>
    <path fill-rule="evenodd" clip-rule="evenodd"
          d="M30.2361 43.0094C30.9237 42.655 31.5854 42.2576 32.2179 41.8208H11.7821C12.4146 42.2576 13.0763 42.655 13.7639 43.0094H30.2361ZM33.7549 40.6321C34.1907 40.2559 34.6084 39.8592 35.0063 39.4434H8.99374C9.39163 39.8592 9.80926 40.2559 10.2451 40.6321H33.7549ZM35.9951 38.3208C36.3057 37.9372 36.6009 37.5407 36.8796 37.1321H7.12036C7.39914 37.5407 7.69431 37.9372 8.00493 38.3208H35.9951ZM37.548 36.0755C37.7745 35.6882 37.987 35.2918 38.1847 34.8868H5.81528C6.01299 35.2918 6.22546 35.6882 6.45198 36.0755H37.548ZM38.6589 33.8302C38.8188 33.4406 38.9654 33.0442 39.0982 32.6415H4.90179C5.03458 33.0442 5.18121 33.4406 5.3411 33.8302H38.6589ZM39.3756 31.717C39.4815 31.3259 39.5746 30.9295 39.6543 30.5283H4.34566C4.4254 30.9295 4.51846 31.3259 4.62438 31.717H39.3756ZM39.8131 29.6038C39.8699 29.2115 39.9141 28.8151 39.9452 28.4151H4.05481C4.08592 28.8151 4.1301 29.2115 4.18694 29.6038H39.8131ZM39.9894 27.6226C39.9965 27.416 40 27.2084 40 27C40 26.8106 39.9971 26.6219 39.9913 26.434H4.00873C4.00292 26.6219 4 26.8106 4 27C4 27.2084 4.00354 27.416 4.01057 27.6226H39.9894ZM39.9495 25.6415C39.9197 25.2415 39.8767 24.8451 39.8212 24.4528H4.17883C4.12326 24.8451 4.08034 25.2415 4.05049 25.6415H39.9495ZM39.7151 23.7925C39.6429 23.3915 39.5575 22.9951 39.4593 22.6038H4.5407C4.44248 22.9951 4.35708 23.3915 4.28495 23.7925H39.7151ZM39.28 21.9434C39.1625 21.5412 39.0314 21.1448 38.8871 20.7547H5.11295C4.96865 21.1448 4.83748 21.5412 4.71997 21.9434H39.28ZM38.682 20.2264C38.5179 19.8227 38.3396 19.4262 38.1477 19.0377H5.85234C5.6604 19.4262 5.48208 19.8227 5.31798 20.2264H38.682ZM37.8757 18.5094C37.6582 18.1037 37.4256 17.7072 37.1787 17.3208H6.82129C6.57437 17.7072 6.34179 18.1037 6.12432 18.5094H37.8757ZM36.9181 16.9245C36.6417 16.516 36.3489 16.1195 36.0407 15.7358H7.95927C7.6511 16.1195 7.35833 16.516 7.08189 16.9245H36.9181ZM35.7131 15.3396C35.3618 14.9269 34.9923 14.5303 34.6056 14.1509H9.39437C9.00776 14.5303 8.63819 14.9269 8.28692 15.3396H35.7131ZM34.3307 13.8868C33.8849 13.4675 33.4178 13.0707 32.9311 12.6981H11.0689C10.5822 13.0707 10.1151 13.4675 9.66932 13.8868H34.3307ZM32.5772 12.434C31.9821 12.0011 31.3595 11.6039 30.7125 11.2453H13.2875C12.6405 11.6039 12.0179 12.0011 11.4228 12.434H32.5772ZM30.4698 11.1132C29.5909 10.6436 28.6684 10.2449 27.71 9.92453H16.29C15.3316 10.2449 14.4091 10.6436 13.5302 11.1132H30.4698ZM27.2984 9.79245C25.6233 9.27729 23.844 9 22 9C20.156 9 18.3767 9.27729 16.7016 9.79245H27.2984ZM22 45C23.8552 45 25.6449 44.7193 27.3289 44.1981H16.6711C18.3551 44.7193 20.1448 45 22 45Z"
          fill="#E12B36"/>
  </g>
  <path d="M47.4854 43.9327V36.6744H44.7773V35.6647H51.4368V36.6744H48.7287V43.9327H47.4854Z" fill="white"/>
  <path
    d="M62.4707 44C61.8798 44 61.3587 43.9514 60.9073 43.8542C60.4642 43.7495 60.0908 43.5513 59.7872 43.2596C59.4917 42.9679 59.2702 42.5491 59.1224 42.0031C58.9747 41.4497 58.9009 40.7242 58.9009 39.8268C58.9009 38.9293 58.9747 38.2038 59.1224 37.6504C59.2784 37.0895 59.504 36.6632 59.7995 36.3715C60.1031 36.0723 60.4765 35.8704 60.9197 35.7657C61.371 35.6535 61.888 35.5974 62.4707 35.5974C63.0697 35.5974 63.5908 35.6535 64.034 35.7657C64.4853 35.8704 64.8587 36.0723 65.1542 36.3715C65.4578 36.6632 65.6835 37.0895 65.8312 37.6504C65.9789 38.2038 66.0528 38.9293 66.0528 39.8268C66.0528 40.7242 65.9748 41.4497 65.8189 42.0031C65.6712 42.5491 65.4496 42.9679 65.1542 43.2596C64.8587 43.5513 64.4853 43.7495 64.034 43.8542C63.5908 43.9514 63.0697 44 62.4707 44ZM62.4707 42.9904C62.8974 42.9904 63.2585 42.953 63.5539 42.8782C63.8575 42.7959 64.0996 42.6463 64.2802 42.4294C64.4689 42.2051 64.6043 41.8835 64.6864 41.4647C64.7685 41.0458 64.8095 40.4999 64.8095 39.8268C64.8095 39.1237 64.7685 38.5591 64.6864 38.1328C64.6043 37.699 64.4689 37.3737 64.2802 37.1568C64.0996 36.9399 63.8575 36.794 63.5539 36.7193C63.2585 36.6445 62.8974 36.6071 62.4707 36.6071C62.0685 36.6071 61.7198 36.6445 61.4243 36.7193C61.1289 36.794 60.8868 36.9399 60.6981 37.1568C60.5093 37.3737 60.3657 37.699 60.2672 38.1328C60.177 38.5591 60.1318 39.1237 60.1318 39.8268C60.1318 40.4999 60.1688 41.0458 60.2426 41.4647C60.3247 41.8835 60.456 42.2051 60.6365 42.4294C60.8171 42.6463 61.0551 42.7959 61.3505 42.8782C61.6541 42.953 62.0275 42.9904 62.4707 42.9904Z"
    fill="white"/>
  <path
    d="M74.2686 43.9327V35.6647H75.5118V39.3107H76.989L79.2786 35.6647H80.5957L77.9615 39.8043L80.6449 43.9327H79.3155L76.9767 40.3204H75.5118V43.9327H74.2686Z"
    fill="white"/>
  <path
    d="M90.827 43.9327V41.2627L87.9958 35.6647H89.2883L91.4671 40.1184L93.6582 35.6647H94.9015L92.0703 41.2627V43.9327H90.827Z"
    fill="white"/>
  <path
    d="M105.986 44C105.395 44 104.874 43.9514 104.422 43.8542C103.979 43.7495 103.606 43.5513 103.302 43.2596C103.007 42.9679 102.785 42.5491 102.637 42.0031C102.49 41.4497 102.416 40.7242 102.416 39.8268C102.416 38.9293 102.49 38.2038 102.637 37.6504C102.793 37.0895 103.019 36.6632 103.314 36.3715C103.618 36.0723 103.991 35.8704 104.435 35.7657C104.886 35.6535 105.403 35.5974 105.986 35.5974C106.585 35.5974 107.106 35.6535 107.549 35.7657C108 35.8704 108.374 36.0723 108.669 36.3715C108.973 36.6632 109.198 37.0895 109.346 37.6504C109.494 38.2038 109.568 38.9293 109.568 39.8268C109.568 40.7242 109.49 41.4497 109.334 42.0031C109.186 42.5491 108.965 42.9679 108.669 43.2596C108.374 43.5513 108 43.7495 107.549 43.8542C107.106 43.9514 106.585 44 105.986 44ZM105.986 42.9904C106.412 42.9904 106.773 42.953 107.069 42.8782C107.373 42.7959 107.615 42.6463 107.795 42.4294C107.984 42.2051 108.119 41.8835 108.201 41.4647C108.283 41.0458 108.324 40.4999 108.324 39.8268C108.324 39.1237 108.283 38.5591 108.201 38.1328C108.119 37.699 107.984 37.3737 107.795 37.1568C107.615 36.9399 107.373 36.794 107.069 36.7193C106.773 36.6445 106.412 36.6071 105.986 36.6071C105.584 36.6071 105.235 36.6445 104.939 36.7193C104.644 36.794 104.402 36.9399 104.213 37.1568C104.024 37.3737 103.881 37.699 103.782 38.1328C103.692 38.5591 103.647 39.1237 103.647 39.8268C103.647 40.4999 103.684 41.0458 103.758 41.4647C103.84 41.8835 103.971 42.2051 104.152 42.4294C104.332 42.6463 104.57 42.7959 104.865 42.8782C105.169 42.953 105.542 42.9904 105.986 42.9904Z"
    fill="white"/>
  <path d="M45.2119 10H49.1272V29.0358H49.108H45.2119V27.0597V10Z" fill="white"/>
  <path d="M62.1783 10H66.0937V27.2711V29.0358H61.9439L62.1783 24.0068V10Z" fill="white"/>
  <path fill-rule="evenodd" clip-rule="evenodd"
        d="M54.2579 19.5179L56.7043 22.7027L55.526 23.6851L53.6951 25.2115L49.108 29.0358H45.2119V27.0597L54.2579 19.5179Z"
        fill="white"/>
  <path fill-rule="evenodd" clip-rule="evenodd" d="M57.6104 10H53.6951V25.2115L55.526 23.6851L57.6104 25.423V10Z"
        fill="white"/>
  <path fill-rule="evenodd" clip-rule="evenodd"
        d="M56.794 19.5179L54.3477 22.7027L55.526 23.6851L57.6104 25.423L61.9439 29.0358H66.0937V27.2711L56.794 19.5179Z"
        fill="white"/>
  <path fill-rule="evenodd" clip-rule="evenodd"
        d="M78.1409 10H82.1989V24.7914V24.9567H82.3633H90.9912V29.0358H82.9512H80.6824L79.3298 27.6761L78.1409 26.481V24.9567V20.7123V10Z"
        fill="white"/>
  <path fill-rule="evenodd" clip-rule="evenodd"
        d="M82.9512 29.0358H80.6824L79.3298 27.6761L78.1409 26.481V24.9567V20.7123L82.1989 24.7914V24.9567H82.3633L84.6862 27.2917L82.9512 29.0358Z"
        fill="white"/>
  <rect x="70.1094" y="10" width="4.01573" height="19.0358" fill="white"/>
  <path fill-rule="evenodd" clip-rule="evenodd"
        d="M108.974 13.3993L105.741 10L97.2799 10L95.9868 10H93.4007V12.7194V14.0791L93.4007 24.9567V26.3164L93.4007 29.0358L95.9868 29.0358H97.2799L105.741 29.0358L108.974 25.6366L109.62 24.9567L110.267 24.2769V14.759L109.62 14.0791L108.974 13.3993ZM106.388 14.0791L104.125 14.0791L97.2799 14.0791V24.9567L104.125 24.9567H106.388V22.5772V16.4586V14.0791Z"
        fill="white"/>
  <path d="M106.388 14.0791L104.125 14.0791L106.388 16.4586V14.0791Z" fill="white"/>
  <path d="M104.125 24.9567H106.388V22.5772L104.125 24.9567Z" fill="white"/>
  <defs>
    <filter id="filter0_d_7781_11902" x="2" y="7" width="40" height="40" filterUnits="userSpaceOnUse"
            color-interpolation-filters="sRGB">
      <feFlood flood-opacity="0" result="BackgroundImageFix"/>
      <feColorMatrix in="SourceAlpha" type="matrix" values="0 0 0 0 0 0 0 0 0 0 0 0 0 0 0 0 0 0 127 0"
                     result="hardAlpha"/>
      <feOffset/>
      <feGaussianBlur stdDeviation="1"/>
      <feColorMatrix type="matrix" values="0 0 0 0 0.882353 0 0 0 0 0.168627 0 0 0 0 0.211765 0 0 0 0.7 0"/>
      <feBlend mode="normal" in2="BackgroundImageFix" result="effect1_dropShadow_7781_11902"/>
      <feBlend mode="normal" in="SourceGraphic" in2="effect1_dropShadow_7781_11902" result="shape"/>
    </filter>
  </defs>
</svg>
