<svg version="1.1" id="Layer_1" xmlns="http://www.w3.org/2000/svg" xmlns:xlink="http://www.w3.org/1999/xlink" x="0px" y="0px"
     viewBox="0 0 204 80"  style="enable-background:new 0 0 204 80;" xml:space="preserve">
<style type="text/css">
	.st0{fill:#FFFFFF;}
	.st1{fill:url(#SVGID_1_);}
	.st2{fill:url(#SVGID_00000056414358768600644600000012059224801293969591_);}
	.st3{fill:url(#SVGID_00000120530671437903213240000011243696779104306337_);}
	.st4{fill:url(#SVGID_00000066482664899487570780000016997340778645310895_);}
	.st5{fill:url(#SVGID_00000053534674899795802180000015707648530272813500_);}
	.st6{fill:url(#SVGID_00000067920731808355385570000005479642220992755896_);}
	.st7{fill:url(#SVGID_00000006682949906071843350000000888565727843576723_);}
</style>
    <path class="st0" d="M47.8,66.6c0-4.5,3.7-8.1,8.3-8.1c2.4,0,4.7,1,6.1,2.6c0.4,0.4,0.4,0.8,0.4,1.2c0,0.8-0.6,1.4-1.4,1.4
	c-0.4,0-0.8-0.2-1.2-0.6c-1-1.2-2.2-1.8-3.9-1.8c-2.8,0-5.1,2.2-5.1,5.1c0,3,2,5.1,5.1,5.1c1.4,0,2.8-0.6,3.9-1.8
	c0.4-0.4,0.8-0.6,1.2-0.6c0.8,0,1.4,0.6,1.4,1.4c0,0.4-0.2,0.8-0.4,1.2c-1.4,1.6-3.7,2.6-6.1,2.6C51.3,74.7,47.8,71.1,47.8,66.6z"/>
    <path class="st0" d="M84.6,73.1c0,0.8-0.6,1.6-1.6,1.6c-0.6,0-1.2-0.4-1.4-1.2L81,71.9h-6.5l-0.6,1.6c-0.2,0.8-0.8,1.2-1.4,1.2
	c-0.8,0-1.6-0.6-1.6-1.6c0-0.2,0-0.6,0.2-0.8l5.3-12.6c0.2-0.8,0.8-1,1.4-1s1.2,0.4,1.4,1l5.3,12.6C84.6,72.5,84.6,72.9,84.6,73.1z
	 M75.2,69.2h4.5l-2.2-6.1L75.2,69.2z"/>
    <path class="st0" d="M93.1,72.5c-0.4-0.4-0.6-0.8-0.6-1.2c0-0.8,0.8-1.4,1.4-1.4c0.2,0,0.6,0,0.8,0.4c0.6,0.6,1.8,1.6,3.2,1.6
	c1.4,0,2.2-0.6,2.2-1.6c0-0.8-0.6-1.2-2-2l-1.6-0.8c-2.4-1.2-3.9-2.4-3.9-4.5c0-2.6,2.2-4.5,5.1-4.5c2.4,0,3.7,1,4.5,1.8
	c0.4,0.4,0.4,0.8,0.4,1c0,0.8-0.8,1.4-1.4,1.4c-0.2,0-0.6,0-0.8-0.4c-0.6-0.6-1.4-1-2.4-1c-1.2,0-2,0.6-2,1.4c0,0.8,0.4,1.2,1.8,1.8
	l1.8,0.8c2.6,1.2,3.9,2.4,3.9,4.5c0,2.8-2.4,4.7-5.5,4.7C96.3,74.7,94.3,73.9,93.1,72.5z"/>
    <path class="st0" d="M112.6,73.1v-13c0-1,0.6-1.6,1.6-1.6s1.6,0.8,1.6,1.6v13c0,1-0.6,1.6-1.6,1.6S112.6,73.9,112.6,73.1z"/>
    <path class="st0" d="M138.8,60.1v13c0,0.8-0.6,1.6-1.6,1.6c-0.8,0-1.2-0.4-1.6-1l-6.9-8.9v8.3c0,1-0.6,1.6-1.6,1.6s-1.6-0.8-1.6-1.6
	v-13c0-0.8,0.6-1.6,1.6-1.6c0.8,0,1.2,0.4,1.6,1l6.9,8.9v-8.3c0-1,0.6-1.6,1.6-1.6C138,58.5,138.8,59.1,138.8,60.1L138.8,60.1z"/>
    <path class="st0" d="M164.1,66.6c0,4.5-3.7,8.1-8.3,8.1s-8.3-3.5-8.3-8.1c0-4.5,3.7-8.1,8.3-8.1C160.5,58.5,164.1,62.1,164.1,66.6z
	 M150.7,66.6c0,3,2,5.1,5.1,5.1c2.8,0,5.1-2.2,5.1-5.1c0-3-2-5.1-5.1-5.1C152.8,61.5,150.7,63.6,150.7,66.6z"/>
    <g>

		<linearGradient id="SVGID_1_" gradientUnits="userSpaceOnUse" x1="25.1" y1="813.8167" x2="25.1" y2="770.9019" gradientTransform="matrix(1 0 0 1 0 -762)">
		<stop  offset="0" style="stop-color:#7BD008"/>
            <stop  offset="1" style="stop-color:#A4DD06"/>
	</linearGradient>
        <path class="st1" d="M44.8,12c0,1-0.2,2-0.6,2.8L30.6,48.1c-1,2.4-2.8,3.9-5.5,3.9s-4.5-1.2-5.5-3.9L6,14.6C5.6,14,5.4,12.8,5.4,12
		c0-3,2.4-5.5,5.7-5.5c2.4,0,4.3,1.4,5.3,4.1l8.7,21.7l8.7-21.7c1-2.6,2.8-4.1,5.3-4.1C42.5,6.5,44.8,8.7,44.8,12z"/>

        <linearGradient id="SVGID_00000013878102533339282750000014351004498830041744_" gradientUnits="userSpaceOnUse" x1="102" y1="813.8" x2="102" y2="770.8853" gradientTransform="matrix(1 0 0 1 0 -762)">
		<stop  offset="0" style="stop-color:#7BD008"/>
            <stop  offset="1" style="stop-color:#A4DD06"/>
	</linearGradient>
        <path style="fill:url(#SVGID_00000013878102533339282750000014351004498830041744_);" d="M120.5,45.5c0,2.8-2.2,5.5-5.1,5.5
		c-2,0-4.1-1-5.5-2.8L101,37.4h-0.2h-5.9v8.7c0,3.2-2.4,5.7-5.7,5.7s-5.7-2.4-5.7-5.7V13c0-3.2,2.4-5.7,5.7-5.7h11.4
		c9.9,0,16.9,6.1,16.9,15c0,4.9-2.2,9.1-5.9,11.8l6.9,7.5C120.1,42.9,120.5,44.1,120.5,45.5L120.5,45.5z M94.9,27.4h5.9
		c3.2,0,5.3-2,5.3-5.1s-2-5.1-5.3-5.1h-5.9V27.4z"/>

        <linearGradient id="SVGID_00000024708204053031427550000000901841484155834513_" gradientUnits="userSpaceOnUse" x1="143.2" y1="813.8167" x2="143.2" y2="770.9019" gradientTransform="matrix(1 0 0 1 0 -762)">
		<stop  offset="0" style="stop-color:#7BD008"/>
            <stop  offset="1" style="stop-color:#A4DD06"/>
	</linearGradient>
        <path style="fill:url(#SVGID_00000024708204053031427550000000901841484155834513_);" d="M162.7,29c0,12.8-9.9,21.9-23.8,21.9h-9.5
		c-3.2,0-5.7-2.4-5.7-5.7V13c0-3.2,2.4-5.7,5.7-5.7h9.5C153,7.3,162.7,16.3,162.7,29z M135.1,17.7v23.1h3.9
		c7.3,0,12.2-4.7,12.2-11.8s-4.7-11.4-12.2-11.4C139,17.7,135.1,17.7,135.1,17.7z"/>

        <linearGradient id="SVGID_00000121965597529637373220000018248454172572674956_" gradientUnits="userSpaceOnUse" x1="63.65" y1="813.8167" x2="63.65" y2="770.9019" gradientTransform="matrix(1 0 0 1 0 -762)">
		<stop  offset="0" style="stop-color:#7BD008"/>
            <stop  offset="1" style="stop-color:#A4DD06"/>
	</linearGradient>
        <path style="fill:url(#SVGID_00000121965597529637373220000018248454172572674956_);" d="M59.6,33.1v7.5h13.8c3,0,5.3,2.2,5.3,5.1
		c0,3-2.2,5.1-5.3,5.1H53.9c-3.2,0-5.7-2.4-5.7-5.7V13c0-3.2,2.4-5.7,5.7-5.7h19.9c3,0,5.3,2.2,5.3,5.1c0,3-2.2,5.1-5.3,5.1H59.4
		v6.1L59.6,33.1z"/>

        <linearGradient id="SVGID_00000088111591539720463230000012267062333787785919_" gradientUnits="userSpaceOnUse" x1="70.5" y1="813.8167" x2="70.5" y2="770.9019" gradientTransform="matrix(1 0 0 1 0 -762)">
		<stop  offset="0" style="stop-color:#7BD008"/>
            <stop  offset="1" style="stop-color:#A4DD06"/>
	</linearGradient>
        <path style="fill:url(#SVGID_00000088111591539720463230000012267062333787785919_);" d="M66.5,23.6L66.5,23.6
		c-2.2,0.6-3.9,2.6-3.9,5.1c0,0.4,0,0.8,0,1.2c1-0.6,2.8-1.6,4.7-2.2c1.8-0.6,3.9-0.8,5.5-0.6c-1.2,0.4-3.2,1-5.1,2
		c-1.6,1-3.2,2-4.1,3c1,1.2,2.4,2,4.1,2c0.4,0,0.8,0,1,0c5.5-0.8,8.9-6.5,9.7-9.3C73.6,22.8,69.3,22.8,66.5,23.6z"/>

        <linearGradient id="SVGID_00000023975592006522141700000015726114151711907246_" gradientUnits="userSpaceOnUse" x1="181.55" y1="813.8167" x2="181.55" y2="770.9019" gradientTransform="matrix(1 0 0 1 0 -762)">
		<stop  offset="0" style="stop-color:#7BD008"/>
            <stop  offset="1" style="stop-color:#A4DD06"/>
	</linearGradient>
        <path style="fill:url(#SVGID_00000023975592006522141700000015726114151711907246_);" d="M177.5,33.1v7.5h13.8c3,0,5.3,2.2,5.3,5.1
		c0,3-2.2,5.1-5.3,5.1h-19.5c-3.2,0-5.7-2.4-5.7-5.7V13c0-3.2,2.4-5.7,5.7-5.7h19.9c3,0,5.3,2.2,5.3,5.1c0,3-2.2,5.1-5.3,5.1h-14.4
		v6.1L177.5,33.1L177.5,33.1z"/>

        <linearGradient id="SVGID_00000036954515867964944540000004511637647019405714_" gradientUnits="userSpaceOnUse" x1="188.4" y1="813.8167" x2="188.4" y2="770.9019" gradientTransform="matrix(1 0 0 1 0 -762)">
		<stop  offset="0" style="stop-color:#7BD008"/>
            <stop  offset="1" style="stop-color:#A4DD06"/>
	</linearGradient>
        <path style="fill:url(#SVGID_00000036954515867964944540000004511637647019405714_);" d="M184.4,23.6L184.4,23.6
		c-2.2,0.6-3.9,2.6-3.9,5.1c0,0.4,0,0.8,0,1.2c1-0.6,2.8-1.6,4.7-2.2c1.8-0.6,3.9-0.8,5.5-0.6c-1.2,0.4-3.2,1-5.1,2
		c-1.6,1-3.2,2-4.1,3c1,1.2,2.4,2,4.1,2c0.4,0,0.8,0,1,0c5.5-0.8,8.9-6.5,9.7-9.3C191.6,22.8,187.1,22.8,184.4,23.6z"/>
</g>
</svg>
